<svg width="12" height="7" viewBox="0 0 12 7" fill="none" xmlns="http://www.w3.org/2000/svg">
<path d="M10.8886 0.667257C10.7013 0.481006 10.4478 0.376465 10.1836 0.376465C9.91943 0.376465 9.66598 0.481006 9.47862 0.667257L5.88862 4.20726L2.34862 0.667257C2.16126 0.481006 1.90781 0.376465 1.64362 0.376465C1.37943 0.376465 1.12598 0.481006 0.938621 0.667257C0.844892 0.76022 0.770498 0.870821 0.719729 0.992681C0.66896 1.11454 0.642822 1.24525 0.642822 1.37726C0.642822 1.50927 0.66896 1.63997 0.719729 1.76183C0.770498 1.88369 0.844892 1.99429 0.938621 2.08726L5.17862 6.32726C5.27158 6.42099 5.38218 6.49538 5.50404 6.54615C5.6259 6.59692 5.75661 6.62306 5.88862 6.62306C6.02063 6.62306 6.15134 6.59692 6.2732 6.54615C6.39506 6.49538 6.50566 6.42099 6.59862 6.32726L10.8886 2.08726C10.9823 1.99429 11.0567 1.88369 11.1075 1.76183C11.1583 1.63997 11.1844 1.50927 11.1844 1.37726C11.1844 1.24525 11.1583 1.11454 11.1075 0.992681C11.0567 0.870821 10.9823 0.76022 10.8886 0.667257Z" fill="black"/>
</svg>
