<svg width="33" height="33" viewBox="0 0 33 33" fill="none" xmlns="http://www.w3.org/2000/svg">
<path d="M21.3662 31.2374C24.4655 30.216 27.1635 28.2426 29.0758 25.5983C30.988 22.9539 32.017 19.7736 32.0162 16.5103C32.017 13.2469 30.988 10.0666 29.0758 7.42225C27.1635 4.77792 24.4655 2.80448 21.3662 1.78307M21.3662 31.2374C18.2156 32.2815 14.8123 32.2815 11.6617 31.2374C8.56019 30.218 5.85968 28.2454 3.9452 25.6009C2.03072 22.9564 1 19.775 1 16.5103C1 13.2455 2.03072 10.0641 3.9452 7.41957C5.85968 4.77507 8.56019 2.80249 11.6617 1.78307C14.8123 0.738978 18.2156 0.738978 21.3662 1.78307M21.3662 31.2374C24.4677 30.218 27.1682 28.2454 29.0827 25.6009C30.9972 22.9564 32.0279 19.775 32.0279 16.5103C32.0279 13.2455 30.9972 10.0641 29.0827 7.41957C27.1682 4.77507 24.4677 2.80249 21.3662 1.78307" stroke="#252525" stroke-width="1.55023" stroke-linecap="round" stroke-linejoin="round"/>
<path d="M16.5137 1.7832V31.2376" stroke="#252525" stroke-width="1.55023" stroke-linecap="round" stroke-linejoin="round"/>
<path d="M4.7168 6.43353C6.16146 7.16348 7.67191 7.7552 9.22797 8.2008C11.5941 8.89737 14.0475 9.25234 16.5141 9.25495C18.9127 9.25369 21.2995 8.91979 23.6064 8.2628C25.2112 7.79885 26.7684 7.18376 28.2571 6.42578M4.97258 26.8578C6.39586 26.1585 7.87988 25.5904 9.40624 25.1603C15.6075 23.424 22.2314 24.0367 28.009 26.8811" stroke="#252525" stroke-width="1.55023" stroke-linecap="round" stroke-linejoin="round"/>
<path d="M1.78613 16.5103H31.2405" stroke="#252525" stroke-width="1.55023" stroke-linecap="round" stroke-linejoin="round"/>
<path d="M20.7699 1.7832L20.8939 2.00024C23.4618 6.3794 24.8155 11.3641 24.8155 16.4406C24.8155 21.5172 23.4618 26.5019 20.8939 30.881M12.0576 1.7832L11.9336 2.00024C9.36842 6.38177 8.01958 11.3687 8.02639 16.4459C8.03321 21.5231 9.39542 26.5064 11.9723 30.881" stroke="#252525" stroke-width="1.55023" stroke-linecap="round" stroke-linejoin="round"/>
</svg>
