<svg width="24" height="24" viewBox="0 0 24 24" fill="none" xmlns="http://www.w3.org/2000/svg">
<path d="M23.7623 0.237624C23.4453 -0.0792079 22.8819 -0.0792079 22.5649 0.237624L12 10.7987L1.43507 0.237624C1.11812 -0.0792079 0.554659 -0.0792079 0.237711 0.237624C-0.079237 0.554455 -0.079237 1.11771 0.237711 1.43454L10.8026 11.9956L0.237711 22.5567C-0.079237 22.8735 -0.079237 23.4367 0.237711 23.7536C0.413793 23.9296 0.625091 24 0.83639 24C1.04769 24 1.25899 23.9296 1.43507 23.7536L12 13.1925L22.5649 23.7536C22.741 23.9296 22.9523 24 23.1636 24C23.3749 24 23.5862 23.9296 23.7623 23.7536C24.0792 23.4367 24.0792 22.8735 23.7623 22.5567L13.1974 11.9956L23.7623 1.43454C24.0792 1.11771 24.0792 0.589659 23.7623 0.237624Z" fill="#252525"/>
</svg>
