<svg width="20" height="20" viewBox="0 0 20 20" fill="none" xmlns="http://www.w3.org/2000/svg">
<path d="M17.5211 11.0286C17.3003 11.0286 17.0694 10.9584 16.8487 10.9082C16.4015 10.8097 15.9621 10.6788 15.5339 10.5168C15.0683 10.3474 14.5566 10.3562 14.0971 10.5415C13.6376 10.7268 13.2629 11.0754 13.045 11.5204L12.8242 11.972C11.8467 11.4282 10.9485 10.7529 10.1546 9.9648C9.36656 9.17096 8.69119 8.27272 8.14742 7.29521L8.56893 7.0142C9.01389 6.79634 9.36256 6.42161 9.54784 5.96212C9.73312 5.50263 9.74191 4.99085 9.57253 4.52527C9.41318 4.09615 9.28243 3.65695 9.18113 3.21055C9.13095 2.98976 9.0908 2.75893 9.0607 2.5281C8.93882 1.82118 8.56855 1.181 8.01657 0.722857C7.46458 0.26471 6.76716 0.0186985 6.04989 0.029127H3.03908C2.60656 0.0250659 2.17824 0.114246 1.78328 0.290596C1.38832 0.466946 1.036 0.726326 0.750291 1.05108C0.464586 1.37583 0.252207 1.75833 0.127613 2.17254C0.00301953 2.58674 -0.0308643 3.02293 0.0282687 3.45141C0.562926 7.65589 2.48311 11.5624 5.48551 14.5539C8.48792 17.5454 12.4014 19.4514 16.6078 19.9707H16.9892C17.7292 19.9718 18.4438 19.7003 18.9964 19.208C19.3139 18.924 19.5675 18.5759 19.7405 18.1866C19.9135 17.7974 20.0019 17.3758 20 16.9499V13.9391C19.9877 13.2419 19.7338 12.5707 19.2817 12.0399C18.8296 11.5091 18.2073 11.1517 17.5211 11.0286ZM18.0229 17.0502C18.0227 17.1927 17.9922 17.3336 17.9333 17.4633C17.8745 17.5931 17.7887 17.7089 17.6816 17.8029C17.5695 17.8998 17.4384 17.9721 17.2967 18.0153C17.1549 18.0585 17.0058 18.0716 16.8587 18.0538C13.1001 17.5719 9.6089 15.8524 6.93578 13.1666C4.26267 10.4807 2.55977 6.98142 2.09569 3.22058C2.07972 3.07357 2.09372 2.92485 2.13684 2.78341C2.17996 2.64196 2.25132 2.51072 2.34659 2.39763C2.44064 2.29058 2.55641 2.20478 2.68619 2.14594C2.81597 2.08711 2.9568 2.05659 3.09929 2.05641H6.1101C6.34349 2.05121 6.57138 2.12754 6.75456 2.27225C6.93774 2.41696 7.06474 2.621 7.11371 2.84925C7.15385 3.12357 7.20403 3.39454 7.26425 3.66217C7.38018 4.19121 7.53448 4.71112 7.7259 5.21775L6.32086 5.8701C6.20073 5.92522 6.09266 6.00352 6.00288 6.10052C5.91309 6.19752 5.84335 6.31129 5.79765 6.43532C5.75196 6.55935 5.73121 6.69117 5.73661 6.82324C5.74201 6.9553 5.77343 7.085 5.82909 7.20489C7.27348 10.2987 9.76045 12.7857 12.8543 14.2301C13.0987 14.3305 13.3727 14.3305 13.6171 14.2301C13.7422 14.1853 13.8572 14.1162 13.9554 14.0266C14.0536 13.937 14.1331 13.8288 14.1891 13.7082L14.8113 12.3032C15.3302 12.4887 15.8597 12.6429 16.397 12.7648C16.6647 12.8251 16.9356 12.8752 17.21 12.9154C17.4382 12.9644 17.6422 13.0914 17.787 13.2745C17.9317 13.4577 18.008 13.6856 18.0028 13.919L18.0229 17.0502Z" fill="#3D408A"/>
</svg>
