<svg width="370" height="131" viewBox="0 0 370 131" fill="none" xmlns="http://www.w3.org/2000/svg">
<g clip-path="url(#clip0_2175_3129)">
<rect y="0.588867" width="370" height="130" rx="11.4729" fill="#3D408A"/>
<ellipse cx="365.461" cy="166.804" rx="130.094" ry="237.933" transform="rotate(37.7131 365.461 166.804)" fill="white"/>
<path d="M38.8867 35.1445C38.2096 35.8216 37.4023 36.349 36.4648 36.7266C35.5339 37.1042 34.515 37.293 33.4082 37.293C32.3079 37.293 31.2891 37.1042 30.3516 36.7266C29.4141 36.349 28.6003 35.8184 27.9102 35.1348C27.2201 34.4447 26.6829 33.6374 26.2988 32.7129C25.9212 31.7819 25.7324 30.7695 25.7324 29.6758C25.7324 28.5755 25.9212 27.5632 26.2988 26.6387C26.6829 25.7142 27.2201 24.9102 27.9102 24.2266C28.6003 23.5365 29.4141 23.0026 30.3516 22.625C31.2891 22.2474 32.3079 22.0586 33.4082 22.0586C34.5085 22.0586 35.5241 22.2474 36.4551 22.625C37.3861 23.0026 38.1901 23.5267 38.8672 24.1973L37.0703 26.0234C36.6211 25.4896 36.0807 25.0729 35.4492 24.7734C34.8177 24.474 34.1243 24.3242 33.3691 24.3242C32.653 24.3242 31.9889 24.4577 31.377 24.7246C30.7715 24.9915 30.2441 25.3659 29.7949 25.8477C29.3457 26.3294 28.9941 26.8958 28.7402 27.5469C28.4928 28.1979 28.3691 28.9076 28.3691 29.6758C28.3691 30.444 28.4928 31.1536 28.7402 31.8047C28.9941 32.4492 29.3457 33.0156 29.7949 33.5039C30.2441 33.9857 30.7715 34.36 31.377 34.627C31.9889 34.8939 32.653 35.0273 33.3691 35.0273C34.1243 35.0273 34.8177 34.8776 35.4492 34.5781C36.0807 34.2786 36.6211 33.862 37.0703 33.3281L38.8867 35.1445ZM50.3906 37H48.4082L48.3301 35.4277C47.9785 36.0007 47.5163 36.4401 46.9434 36.7461C46.3704 37.0456 45.6934 37.1953 44.9121 37.1953C43.6556 37.1953 42.6628 36.8112 41.9336 36.043C41.2109 35.2682 40.8496 34.2038 40.8496 32.8496V27.2344H43.252V32.3906C43.252 33.2044 43.457 33.849 43.8672 34.3242C44.2839 34.793 44.847 35.0273 45.5566 35.0273C46.2923 35.0273 46.8815 34.7767 47.3242 34.2754C47.7669 33.7741 47.9883 33.1068 47.9883 32.2734V27.2344H50.3906V37ZM52.3145 36.1602L52.8613 34.0703C53.0762 34.2852 53.3431 34.4805 53.6621 34.6562C53.9811 34.832 54.3197 34.972 54.6777 35.0762C55.0423 35.1738 55.3971 35.2227 55.7422 35.2227C56.2044 35.2227 56.5755 35.1283 56.8555 34.9395C57.1354 34.7441 57.2754 34.4902 57.2754 34.1777C57.2754 33.9303 57.1908 33.7253 57.0215 33.5625C56.8522 33.3932 56.6309 33.2467 56.3574 33.123C56.084 32.9928 55.7845 32.8659 55.459 32.7422C55.0293 32.5859 54.5931 32.4004 54.1504 32.1855C53.7077 31.9642 53.3366 31.6745 53.0371 31.3164C52.7441 30.9518 52.5977 30.4701 52.5977 29.8711C52.5977 29.2917 52.7441 28.7904 53.0371 28.3672C53.3366 27.944 53.7533 27.6185 54.2871 27.3906C54.821 27.1562 55.4427 27.0391 56.1523 27.0391C57.2721 27.0391 58.3887 27.319 59.502 27.8789L58.8086 29.8516C58.6003 29.6953 58.3464 29.5521 58.0469 29.4219C57.7474 29.2917 57.4414 29.1875 57.1289 29.1094C56.8164 29.0312 56.5332 28.9922 56.2793 28.9922C55.9082 28.9922 55.612 29.0736 55.3906 29.2363C55.1693 29.3991 55.0586 29.6139 55.0586 29.8809C55.0586 30.0632 55.1204 30.2292 55.2441 30.3789C55.3678 30.5221 55.5599 30.6621 55.8203 30.7988C56.0807 30.9355 56.416 31.0885 56.8262 31.2578C57.2689 31.4271 57.7116 31.6257 58.1543 31.8535C58.6035 32.0749 58.9779 32.3711 59.2773 32.7422C59.5833 33.1068 59.7363 33.5918 59.7363 34.1973C59.7363 34.7962 59.5736 35.3203 59.248 35.7695C58.929 36.2188 58.4798 36.5703 57.9004 36.8242C57.3275 37.0716 56.6569 37.1953 55.8887 37.1953C54.6126 37.1953 53.4212 36.8503 52.3145 36.1602ZM67.9883 36.7461C67.2721 37.0456 66.5788 37.1953 65.9082 37.1953C65.2246 37.1953 64.6224 37.0488 64.1016 36.7559C63.5872 36.4629 63.1836 36.056 62.8906 35.5352C62.6042 35.0078 62.4609 34.3958 62.4609 33.6992V29.3828H60.752V27.2344H62.5879V24.793H64.8633V27.2344H67.6465V29.3828H64.8633V33.2598C64.8633 33.8132 65.013 34.2493 65.3125 34.5684C65.6185 34.8874 65.9993 35.0469 66.4551 35.0469C66.8587 35.0469 67.2591 34.9232 67.6562 34.6758L67.9883 36.7461ZM74.3359 37.1953C73.3398 37.1953 72.4479 36.974 71.6602 36.5312C70.8789 36.0885 70.2604 35.4863 69.8047 34.7246C69.3555 33.9564 69.1309 33.0872 69.1309 32.1172C69.1309 31.1471 69.3555 30.2812 69.8047 29.5195C70.2604 28.7513 70.8789 28.1458 71.6602 27.7031C72.4479 27.2604 73.3398 27.0391 74.3359 27.0391C75.3255 27.0391 76.2109 27.2604 76.9922 27.7031C77.7734 28.1458 78.3854 28.7513 78.8281 29.5195C79.2773 30.2812 79.502 31.1471 79.502 32.1172C79.502 33.0872 79.2773 33.9564 78.8281 34.7246C78.3854 35.4863 77.7734 36.0885 76.9922 36.5312C76.2109 36.974 75.3255 37.1953 74.3359 37.1953ZM74.3164 35.0371C74.8372 35.0371 75.3027 34.9102 75.7129 34.6562C76.123 34.4023 76.4453 34.054 76.6797 33.6113C76.9206 33.1686 77.041 32.6673 77.041 32.1074C77.041 31.554 76.9206 31.0592 76.6797 30.623C76.4453 30.1803 76.123 29.832 75.7129 29.5781C75.3027 29.3242 74.8372 29.1973 74.3164 29.1973C73.8021 29.1973 73.3366 29.3242 72.9199 29.5781C72.5098 29.832 72.1842 30.1803 71.9434 30.623C71.709 31.0592 71.5918 31.554 71.5918 32.1074C71.5918 32.6673 71.709 33.1686 71.9434 33.6113C72.1842 34.054 72.5098 34.4023 72.9199 34.6562C73.3366 34.9102 73.8021 35.0371 74.3164 35.0371ZM97.1875 37H94.7852V31.9902C94.7852 31.1048 94.5996 30.418 94.2285 29.9297C93.8639 29.4349 93.3464 29.1875 92.6758 29.1875C91.9987 29.1875 91.4681 29.4349 91.084 29.9297C90.7064 30.4245 90.5176 31.1113 90.5176 31.9902V37H88.1152V31.9902C88.1152 31.1048 87.9297 30.418 87.5586 29.9297C87.1875 29.4349 86.6699 29.1875 86.0059 29.1875C85.3223 29.1875 84.7884 29.4349 84.4043 29.9297C84.0267 30.4245 83.8379 31.1113 83.8379 31.9902V37H81.4355V27.2344H83.3594L83.4473 28.8945C83.7793 28.2891 84.2188 27.8301 84.7656 27.5176C85.319 27.1986 85.9701 27.0391 86.7188 27.0391C87.4935 27.0391 88.1608 27.2083 88.7207 27.5469C89.2871 27.8789 89.7201 28.3574 90.0195 28.9824C90.3451 28.3444 90.791 27.8626 91.3574 27.5371C91.9238 27.2051 92.5911 27.0391 93.3594 27.0391C94.5638 27.0391 95.5013 27.4232 96.1719 28.1914C96.849 28.9531 97.1875 30.0143 97.1875 31.375V37ZM100.82 24.6465C100.482 24.6465 100.195 24.5293 99.9609 24.2949C99.7331 24.054 99.6191 23.7643 99.6191 23.4258C99.6191 23.0938 99.7331 22.8105 99.9609 22.5762C100.195 22.3353 100.482 22.2148 100.82 22.2148C101.165 22.2148 101.455 22.3353 101.689 22.5762C101.924 22.8105 102.041 23.0938 102.041 23.4258C102.041 23.7643 101.924 24.054 101.689 24.2949C101.455 24.5293 101.165 24.6465 100.82 24.6465ZM102.021 37H99.6191V27.2344H102.021V37ZM113.32 37H103.994V35.7598L109.258 29.3926H104.268V27.2344H113.008V28.2793L107.598 34.8418H113.32V37ZM123.828 35.8672C122.611 36.7526 121.279 37.1953 119.834 37.1953C118.786 37.1953 117.845 36.9674 117.012 36.5117C116.178 36.056 115.518 35.4342 115.029 34.6465C114.548 33.8522 114.307 32.9603 114.307 31.9707C114.307 31.0267 114.525 30.1836 114.961 29.4414C115.404 28.6992 116.006 28.1133 116.768 27.6836C117.536 27.2539 118.402 27.0391 119.365 27.0391C120.368 27.0391 121.247 27.2767 122.002 27.752C122.764 28.2207 123.356 28.875 123.779 29.7148C124.202 30.5482 124.414 31.5182 124.414 32.625V32.9375H116.895C117.012 33.3802 117.217 33.7708 117.51 34.1094C117.809 34.4479 118.18 34.7116 118.623 34.9004C119.066 35.0892 119.564 35.1836 120.117 35.1836C121.159 35.1836 122.122 34.8451 123.008 34.168L123.828 35.8672ZM116.797 31.5312H122.188C122.135 31.043 121.986 30.6165 121.738 30.252C121.497 29.8874 121.182 29.6042 120.791 29.4023C120.407 29.194 119.974 29.0898 119.492 29.0898C119.004 29.0898 118.568 29.194 118.184 29.4023C117.799 29.6107 117.487 29.9004 117.246 30.2715C117.005 30.6361 116.855 31.056 116.797 31.5312ZM135.527 41.8828H132.959L134.99 36.9609L130.146 27.2344H132.852L136.133 34.2168L139.023 27.2344H141.592L135.527 41.8828ZM147.5 37.1953C146.504 37.1953 145.612 36.974 144.824 36.5312C144.043 36.0885 143.424 35.4863 142.969 34.7246C142.52 33.9564 142.295 33.0872 142.295 32.1172C142.295 31.1471 142.52 30.2812 142.969 29.5195C143.424 28.7513 144.043 28.1458 144.824 27.7031C145.612 27.2604 146.504 27.0391 147.5 27.0391C148.49 27.0391 149.375 27.2604 150.156 27.7031C150.938 28.1458 151.549 28.7513 151.992 29.5195C152.441 30.2812 152.666 31.1471 152.666 32.1172C152.666 33.0872 152.441 33.9564 151.992 34.7246C151.549 35.4863 150.938 36.0885 150.156 36.5312C149.375 36.974 148.49 37.1953 147.5 37.1953ZM147.48 35.0371C148.001 35.0371 148.467 34.9102 148.877 34.6562C149.287 34.4023 149.609 34.054 149.844 33.6113C150.085 33.1686 150.205 32.6673 150.205 32.1074C150.205 31.554 150.085 31.0592 149.844 30.623C149.609 30.1803 149.287 29.832 148.877 29.5781C148.467 29.3242 148.001 29.1973 147.48 29.1973C146.966 29.1973 146.501 29.3242 146.084 29.5781C145.674 29.832 145.348 30.1803 145.107 30.623C144.873 31.0592 144.756 31.554 144.756 32.1074C144.756 32.6673 144.873 33.1686 145.107 33.6113C145.348 34.054 145.674 34.4023 146.084 34.6562C146.501 34.9102 146.966 35.0371 147.48 35.0371ZM163.945 37H161.963L161.885 35.4277C161.533 36.0007 161.071 36.4401 160.498 36.7461C159.925 37.0456 159.248 37.1953 158.467 37.1953C157.21 37.1953 156.217 36.8112 155.488 36.043C154.766 35.2682 154.404 34.2038 154.404 32.8496V27.2344H156.807V32.3906C156.807 33.2044 157.012 33.849 157.422 34.3242C157.839 34.793 158.402 35.0273 159.111 35.0273C159.847 35.0273 160.436 34.7767 160.879 34.2754C161.322 33.7741 161.543 33.1068 161.543 32.2734V27.2344H163.945V37ZM168.955 37H166.553V27.2344H168.643L168.73 29.0117C169.069 28.3867 169.525 27.9017 170.098 27.5566C170.677 27.2116 171.341 27.0391 172.09 27.0391C172.285 27.0391 172.484 27.0521 172.686 27.0781C172.894 27.1042 173.099 27.1432 173.301 27.1953L173.008 29.3633C172.604 29.2461 172.214 29.1875 171.836 29.1875C171.263 29.1875 170.758 29.321 170.322 29.5879C169.893 29.8548 169.557 30.2259 169.316 30.7012C169.076 31.1699 168.955 31.7168 168.955 32.3418V37ZM179.365 37V22.3516H188.652V24.6172H181.943V28.4746H188.262V30.7305H181.943V34.7344H188.75V37H179.365ZM193.32 37H190.088L194.268 31.9902L190.342 27.2344H193.613L195.908 30.3008L198.164 27.2344H201.406L197.52 31.9512L201.689 37H198.418L195.889 33.6113L193.32 37ZM205.518 41.8828H203.115V27.2344H205.234L205.352 28.6016C205.781 28.1133 206.299 27.7324 206.904 27.459C207.51 27.179 208.171 27.0391 208.887 27.0391C209.798 27.0391 210.612 27.2604 211.328 27.7031C212.051 28.1458 212.617 28.7513 213.027 29.5195C213.444 30.2812 213.652 31.1471 213.652 32.1172C213.652 33.0872 213.444 33.9564 213.027 34.7246C212.617 35.4863 212.051 36.0885 211.328 36.5312C210.612 36.974 209.798 37.1953 208.887 37.1953C208.216 37.1953 207.594 37.0749 207.021 36.834C206.449 36.5931 205.947 36.2546 205.518 35.8184V41.8828ZM208.369 35.0273C208.916 35.0273 209.401 34.9036 209.824 34.6562C210.254 34.4023 210.586 34.0573 210.82 33.6211C211.061 33.1784 211.182 32.6738 211.182 32.1074C211.182 31.541 211.061 31.0397 210.82 30.6035C210.579 30.1608 210.247 29.8158 209.824 29.5684C209.401 29.3145 208.916 29.1875 208.369 29.1875C207.855 29.1875 207.389 29.3047 206.973 29.5391C206.556 29.7669 206.221 30.0827 205.967 30.4863C205.713 30.8835 205.563 31.3392 205.518 31.8535V32.3906C205.563 32.9049 205.71 33.3607 205.957 33.7578C206.211 34.1549 206.546 34.4674 206.963 34.6953C207.38 34.9167 207.848 35.0273 208.369 35.0273ZM224.453 35.8672C223.236 36.7526 221.904 37.1953 220.459 37.1953C219.411 37.1953 218.47 36.9674 217.637 36.5117C216.803 36.056 216.143 35.4342 215.654 34.6465C215.173 33.8522 214.932 32.9603 214.932 31.9707C214.932 31.0267 215.15 30.1836 215.586 29.4414C216.029 28.6992 216.631 28.1133 217.393 27.6836C218.161 27.2539 219.027 27.0391 219.99 27.0391C220.993 27.0391 221.872 27.2767 222.627 27.752C223.389 28.2207 223.981 28.875 224.404 29.7148C224.827 30.5482 225.039 31.5182 225.039 32.625V32.9375H217.52C217.637 33.3802 217.842 33.7708 218.135 34.1094C218.434 34.4479 218.805 34.7116 219.248 34.9004C219.691 35.0892 220.189 35.1836 220.742 35.1836C221.784 35.1836 222.747 34.8451 223.633 34.168L224.453 35.8672ZM217.422 31.5312H222.812C222.76 31.043 222.611 30.6165 222.363 30.252C222.122 29.8874 221.807 29.6042 221.416 29.4023C221.032 29.194 220.599 29.0898 220.117 29.0898C219.629 29.0898 219.193 29.194 218.809 29.4023C218.424 29.6107 218.112 29.9004 217.871 30.2715C217.63 30.6361 217.48 31.056 217.422 31.5312ZM229.385 37H226.982V27.2344H229.072L229.16 29.0117C229.499 28.3867 229.954 27.9017 230.527 27.5566C231.107 27.2116 231.771 27.0391 232.52 27.0391C232.715 27.0391 232.913 27.0521 233.115 27.0781C233.324 27.1042 233.529 27.1432 233.73 27.1953L233.438 29.3633C233.034 29.2461 232.643 29.1875 232.266 29.1875C231.693 29.1875 231.188 29.321 230.752 29.5879C230.322 29.8548 229.987 30.2259 229.746 30.7012C229.505 31.1699 229.385 31.7168 229.385 32.3418V37ZM236.367 24.6465C236.029 24.6465 235.742 24.5293 235.508 24.2949C235.28 24.054 235.166 23.7643 235.166 23.4258C235.166 23.0938 235.28 22.8105 235.508 22.5762C235.742 22.3353 236.029 22.2148 236.367 22.2148C236.712 22.2148 237.002 22.3353 237.236 22.5762C237.471 22.8105 237.588 23.0938 237.588 23.4258C237.588 23.7643 237.471 24.054 237.236 24.2949C237.002 24.5293 236.712 24.6465 236.367 24.6465ZM237.568 37H235.166V27.2344H237.568V37ZM249.062 35.8672C247.845 36.7526 246.514 37.1953 245.068 37.1953C244.02 37.1953 243.079 36.9674 242.246 36.5117C241.413 36.056 240.752 35.4342 240.264 34.6465C239.782 33.8522 239.541 32.9603 239.541 31.9707C239.541 31.0267 239.759 30.1836 240.195 29.4414C240.638 28.6992 241.24 28.1133 242.002 27.6836C242.77 27.2539 243.636 27.0391 244.6 27.0391C245.602 27.0391 246.481 27.2767 247.236 27.752C247.998 28.2207 248.59 28.875 249.014 29.7148C249.437 30.5482 249.648 31.5182 249.648 32.625V32.9375H242.129C242.246 33.3802 242.451 33.7708 242.744 34.1094C243.044 34.4479 243.415 34.7116 243.857 34.9004C244.3 35.0892 244.798 35.1836 245.352 35.1836C246.393 35.1836 247.357 34.8451 248.242 34.168L249.062 35.8672ZM242.031 31.5312H247.422C247.37 31.043 247.22 30.6165 246.973 30.252C246.732 29.8874 246.416 29.6042 246.025 29.4023C245.641 29.194 245.208 29.0898 244.727 29.0898C244.238 29.0898 243.802 29.194 243.418 29.4023C243.034 29.6107 242.721 29.9004 242.48 30.2715C242.24 30.6361 242.09 31.056 242.031 31.5312ZM261.133 37H258.73V31.8438C258.73 31.0299 258.522 30.3887 258.105 29.9199C257.689 29.4447 257.126 29.207 256.416 29.207C255.687 29.207 255.101 29.4577 254.658 29.959C254.215 30.4538 253.994 31.1211 253.994 31.9609V37H251.592V27.2344H253.574L253.652 28.8066C254.004 28.2337 254.466 27.7975 255.039 27.498C255.618 27.1921 256.296 27.0391 257.07 27.0391C258.333 27.0391 259.326 27.4232 260.049 28.1914C260.771 28.9596 261.133 30.0208 261.133 31.375V37ZM272.021 35.4961C271.546 36.0365 270.97 36.4564 270.293 36.7559C269.616 37.0488 268.877 37.1953 268.076 37.1953C267.087 37.1953 266.198 36.974 265.41 36.5312C264.629 36.0885 264.01 35.4863 263.555 34.7246C263.105 33.9564 262.881 33.0872 262.881 32.1172C262.881 31.1471 263.105 30.2812 263.555 29.5195C264.01 28.7513 264.629 28.1458 265.41 27.7031C266.198 27.2604 267.087 27.0391 268.076 27.0391C268.87 27.0391 269.603 27.1855 270.273 27.4785C270.951 27.7715 271.527 28.1849 272.002 28.7188L270.596 30.2129C270.303 29.8939 269.948 29.6465 269.531 29.4707C269.121 29.2949 268.685 29.207 268.223 29.207C267.663 29.207 267.165 29.3307 266.729 29.5781C266.299 29.8255 265.96 30.1673 265.713 30.6035C265.472 31.0397 265.352 31.541 265.352 32.1074C265.352 32.6738 265.472 33.1784 265.713 33.6211C265.96 34.0573 266.299 34.4023 266.729 34.6562C267.165 34.9036 267.663 35.0273 268.223 35.0273C268.685 35.0273 269.124 34.9395 269.541 34.7637C269.958 34.5814 270.309 34.334 270.596 34.0215L272.021 35.4961ZM282.773 35.8672C281.556 36.7526 280.225 37.1953 278.779 37.1953C277.731 37.1953 276.79 36.9674 275.957 36.5117C275.124 36.056 274.463 35.4342 273.975 34.6465C273.493 33.8522 273.252 32.9603 273.252 31.9707C273.252 31.0267 273.47 30.1836 273.906 29.4414C274.349 28.6992 274.951 28.1133 275.713 27.6836C276.481 27.2539 277.347 27.0391 278.311 27.0391C279.313 27.0391 280.192 27.2767 280.947 27.752C281.709 28.2207 282.301 28.875 282.725 29.7148C283.148 30.5482 283.359 31.5182 283.359 32.625V32.9375H275.84C275.957 33.3802 276.162 33.7708 276.455 34.1094C276.755 34.4479 277.126 34.7116 277.568 34.9004C278.011 35.0892 278.509 35.1836 279.062 35.1836C280.104 35.1836 281.068 34.8451 281.953 34.168L282.773 35.8672ZM275.742 31.5312H281.133C281.081 31.043 280.931 30.6165 280.684 30.252C280.443 29.8874 280.127 29.6042 279.736 29.4023C279.352 29.194 278.919 29.0898 278.438 29.0898C277.949 29.0898 277.513 29.194 277.129 29.4023C276.745 29.6107 276.432 29.9004 276.191 30.2715C275.951 30.6361 275.801 31.056 275.742 31.5312Z" fill="#FFEF9D"/>
<path d="M332.103 105.668C332.857 106.988 333.989 108.057 335.246 108.811C336 109.251 336.817 109.628 337.697 109.817C338.389 110.006 339.143 110.069 339.96 110.069C340.714 110.069 341.469 109.943 342.223 109.817C343.103 109.628 343.92 109.251 344.674 108.811C345.994 108.057 347.063 106.926 347.817 105.668C348.257 104.914 348.634 104.097 348.823 103.217C349.012 102.526 349.074 101.771 349.074 100.954C349.074 100.2 348.949 99.4456 348.823 98.6913C348.634 97.8113 348.257 96.9942 347.817 96.2399C347.063 94.9199 345.931 93.8513 344.674 93.097C343.92 92.657 343.103 92.2798 342.223 92.0913C341.531 91.9027 340.777 91.8398 339.96 91.8398C339.206 91.8398 338.451 91.9656 337.697 92.0913C336.817 92.2798 336 92.657 335.246 93.097C333.926 93.8513 332.857 94.9827 332.103 96.2399C331.663 96.9942 331.286 97.8113 331.097 98.6913C330.909 99.3827 330.846 100.137 330.846 100.954C330.846 101.708 330.971 102.463 331.097 103.217C331.286 104.097 331.663 104.914 332.103 105.668Z" fill="#7B7B7B"/>
<path d="M365.92 96.9312H364.097C363.469 93.2226 362.023 89.7654 359.886 86.8111L361.143 85.554C362.714 83.9826 362.714 81.4054 361.143 79.7711C359.571 78.1997 356.931 78.1997 355.36 79.7711L354.103 81.0283C351.211 78.8911 347.754 77.4454 344.046 76.8168V74.9939C344.046 72.7311 342.223 70.9082 339.96 70.9082C338.766 70.9082 337.697 71.4111 336.943 72.2911C337.446 73.1711 337.697 74.1768 337.697 75.2454C337.697 78.1368 335.623 80.5882 332.92 81.2168C332.543 82.5368 332.04 83.794 331.348 84.9254C331.663 85.3654 331.851 85.8683 332.04 86.3711C333.234 85.7426 334.554 85.1768 335.874 84.8626C337.194 84.5483 338.577 84.3597 339.96 84.3597C341.343 84.3597 342.726 84.5483 344.046 84.8626C345.617 85.2397 347.126 85.8683 348.446 86.6854C350.834 88.0683 352.783 90.0797 354.229 92.4683C355.046 93.8512 355.674 95.2969 356.051 96.8683C356.366 98.1883 356.554 99.5712 356.554 100.954C356.554 102.337 356.366 103.72 356.051 105.04C355.674 106.611 355.046 108.12 354.229 109.44C352.846 111.828 350.834 113.777 348.446 115.223C347.063 116.04 345.617 116.668 344.046 117.046C342.726 117.36 341.343 117.548 339.96 117.548C338.577 117.548 337.194 117.36 335.874 117.046C334.303 116.668 332.794 116.04 331.474 115.223C329.086 113.84 327.137 111.828 325.691 109.44C324.874 108.057 324.246 106.611 323.868 105.04C323.554 103.72 323.366 102.337 323.366 100.954C323.366 99.5712 323.554 98.1883 323.868 96.8683C324.12 95.9255 324.434 94.9826 324.811 94.1026C324.12 93.914 323.491 93.6626 322.926 93.2855C321.731 93.914 320.474 94.4169 319.217 94.8569C318.651 97.6226 316.2 99.6341 313.246 99.6341C312.24 99.6341 311.297 99.3826 310.417 98.9426C310.103 99.5083 309.914 100.2 309.914 100.891C309.914 103.154 311.737 104.977 314 104.977H315.823C316.451 108.686 317.897 112.143 320.034 115.097L318.777 116.354C317.206 117.926 317.206 120.503 318.777 122.137C319.594 122.954 320.6 123.331 321.668 123.331C322.737 123.331 323.743 122.954 324.56 122.137L325.817 120.88C328.771 122.954 332.228 124.463 335.937 125.091V126.914C335.937 129.177 337.76 131 340.023 131C342.286 131 344.109 129.177 344.109 126.914V125.091C347.817 124.463 351.274 123.017 354.229 120.88L355.486 122.137C356.303 122.954 357.309 123.331 358.377 123.331C359.446 123.331 360.451 122.954 361.269 122.137C362.84 120.566 362.84 117.926 361.269 116.354L360.011 115.097C362.086 112.143 363.594 108.686 364.223 104.977H366.046C368.309 104.977 370.131 103.154 370.131 100.891C370.006 98.7541 368.183 96.9312 365.92 96.9312Z" fill="#7B7B7B"/>
<path d="M310.292 93.6002C310.292 95.1716 311.612 96.4916 313.183 96.4916C314.754 96.4916 316.074 95.1716 316.074 93.6002V92.343C318.714 91.903 321.166 90.8973 323.24 89.3887L324.12 90.2687C324.686 90.8345 325.44 91.0859 326.132 91.0859C326.886 91.0859 327.577 90.8345 328.143 90.2687C329.274 89.1373 329.274 87.3144 328.143 86.183L327.263 85.303C328.772 83.2287 329.777 80.7773 330.217 78.1373H331.474C333.046 78.1373 334.366 76.8173 334.366 75.2458C334.366 73.6744 333.046 72.3544 331.474 72.3544H330.217C329.777 69.7144 328.709 67.2629 327.263 65.1886L328.143 64.3086C329.274 63.1772 329.274 61.3543 328.143 60.2229C327.012 59.0915 325.189 59.0915 324.057 60.2229L323.24 61.1029C321.166 59.5943 318.714 58.5886 316.074 58.1486V56.8914C316.074 55.32 314.754 54 313.183 54C311.612 54 310.292 55.32 310.292 56.8914V58.1486C307.714 58.5886 305.263 59.6572 303.189 61.1029L302.309 60.2229C301.177 59.0915 299.354 59.0915 298.223 60.2229C297.091 61.3543 297.091 63.1772 298.223 64.3086L299.103 65.1886C297.594 67.2629 296.589 69.7144 296.149 72.3544H294.891C293.32 72.3544 292 73.6744 292 75.2458C292 76.8173 293.32 78.1373 294.891 78.1373H296.149C296.589 80.7773 297.594 83.2287 299.103 85.303L298.223 86.183C297.091 87.3144 297.091 89.1373 298.223 90.2687C298.789 90.8345 299.543 91.0859 300.234 91.0859C300.989 91.0859 301.743 90.8345 302.246 90.2687L303.126 89.3887C305.2 90.8973 307.652 91.903 310.292 92.343V93.6002ZM308.406 83.2916C307.086 82.4744 305.954 81.4058 305.137 80.023C304.697 79.2687 304.32 78.4515 304.131 77.5087C303.943 76.7544 303.817 76.0001 303.817 75.2458C303.817 74.4287 303.943 73.6744 304.131 72.9829C304.383 72.1029 304.697 71.2858 305.137 70.4686C305.954 69.1486 307.023 68.0172 308.406 67.2001C309.16 66.7601 309.977 66.3829 310.92 66.1943C311.674 66.0058 312.429 65.8801 313.183 65.8801C314 65.8801 314.754 66.0058 315.446 66.1943C316.326 66.4458 317.143 66.7601 317.96 67.2001C319.28 68.0172 320.412 69.0858 321.229 70.4686C321.669 71.2229 322.046 72.0401 322.234 72.9829C322.423 73.7372 322.549 74.4915 322.549 75.2458C322.549 76.063 322.423 76.8173 322.234 77.5087C321.983 78.3887 321.669 79.2058 321.229 80.023C320.412 81.343 319.343 82.4744 317.96 83.2916C317.206 83.7316 316.389 84.1087 315.446 84.2973C314.692 84.4859 313.937 84.6116 313.183 84.6116C312.366 84.6116 311.612 84.4859 310.92 84.2973C310.04 84.1087 309.223 83.7316 308.406 83.2916Z" fill="#7B7B7B"/>
</g>
<rect x="0.478036" y="1.0669" width="369.044" height="129.044" rx="10.9948" stroke="black" stroke-width="0.956072"/>
<defs>
<clipPath id="clip0_2175_3129">
<rect y="0.588867" width="370" height="130" rx="11.4729" fill="white"/>
</clipPath>
</defs>
</svg>
