<svg width="22" height="20" viewBox="0 0 22 20" fill="none" xmlns="http://www.w3.org/2000/svg">
<path d="M2.46448 2.92884C2.00018 3.39313 1.63188 3.94433 1.38061 4.55096C1.12933 5.15759 1 5.80777 1 6.46438C1 7.12099 1.12933 7.77118 1.38061 8.3778C1.63188 8.98443 2.00018 9.53563 2.46448 9.99992L11 18.5354L19.5355 9.99992C20.4732 9.06224 21 7.79047 21 6.46438C21 5.1383 20.4732 3.86652 19.5355 2.92884C18.5978 1.99115 17.3261 1.46437 16 1.46437C14.6739 1.46437 13.4021 1.99115 12.4644 2.92884L11 4.39328L9.53557 2.92884C9.07128 2.46454 8.52008 2.09624 7.91345 1.84496C7.30682 1.59369 6.65664 1.46436 6.00003 1.46436C5.34341 1.46436 4.69323 1.59369 4.0866 1.84496C3.47997 2.09624 2.92877 2.46454 2.46448 2.92884Z" stroke="#3D408A" stroke-width="2" stroke-linecap="round" stroke-linejoin="round"/>
</svg>
