<?xml version="1.0" encoding="utf-8"?>
<!-- Generator: Adobe Illustrator 27.5.0, SVG Export Plug-In . SVG Version: 6.00 Build 0)  -->
<svg version="1.1" xmlns="http://www.w3.org/2000/svg" xmlns:xlink="http://www.w3.org/1999/xlink" x="0px" y="0px"
	 viewBox="0 0 3710 3710" style="enable-background:new 0 0 3710 3710;" xml:space="preserve">
<g id="Background">
	<g>
		<g>
			<rect style="fill:#FFFFFF;" width="3710" height="3710"/>
		</g>
	</g>
</g>
<g id="Illustration">
	<g>
		<path style="fill:#F4F7FA;" d="M2581.427,635.924c93.978,134.536-16.214,352.65,123.234,453.832
			c135.742,98.493,302.497-62.95,430.425,21.832c189.774,125.769,155.118,701.266-122.342,1058.834
			c-83.441,107.532-153.162,149.372-184.041,270.987c-66.306,261.137,166.726,416.478,122.38,545.632
			c-99.851,290.808-1635.477,534.83-2251.64-339.144c-287.773-408.182-330.83-997.601-73.714-1445.267
			C1090.334,393.703,2370.555,334.052,2581.427,635.924z"/>
		<linearGradient id="SVGID_1_" gradientUnits="userSpaceOnUse" x1="1910.9755" y1="2737.2803" x2="2842.6963" y2="2737.2803">
			<stop  offset="0" style="stop-color:#AA80F9"/>
			<stop  offset="0.9964" style="stop-color:#6165D7"/>
		</linearGradient>
		<path style="fill:url(#SVGID_1_);" d="M1928.061,3111.27c-9.06,0-16.614-7.113-17.065-16.26
			c-0.461-9.432,6.809-17.452,16.24-17.916c0.324-0.017,33.118-1.655,85.138-6.506c9.401-0.872,17.733,6.036,18.611,15.438
			c0.875,9.402-6.035,17.735-15.439,18.612c-52.841,4.927-85.278,6.545-86.634,6.611
			C1928.626,3111.263,1928.342,3111.27,1928.061,3111.27z M2099.232,3095.546c-8.522,0-15.899-6.363-16.955-15.036
			c-1.139-9.374,5.537-17.897,14.911-19.037c28.439-3.458,56.849-7.323,84.443-11.488c9.337-1.411,18.05,5.019,19.459,14.356
			c1.409,9.337-5.019,18.05-14.357,19.459c-27.915,4.213-56.655,8.123-85.418,11.62
			C2100.615,3095.504,2099.92,3095.546,2099.232,3095.546z M2268.687,3069.878c-8.092,0-15.281-5.767-16.798-14.009
			c-1.707-9.287,4.438-18.2,13.726-19.909c28.596-5.259,56.635-10.946,83.341-16.905c9.204-2.062,18.354,3.749,20.411,12.966
			c2.057,9.216-3.747,18.355-12.964,20.411c-27.124,6.05-55.586,11.824-84.604,17.16
			C2270.754,3069.784,2269.712,3069.878,2268.687,3069.878z M2435.854,3032.338c-7.524,0-14.417-5.003-16.487-12.614
			c-2.481-9.112,2.895-18.509,12.009-20.987c28.373-7.721,55.626-15.974,81.004-24.53c8.947-3.012,18.648,1.79,21.667,10.74
			c3.016,8.948-1.793,18.648-10.74,21.665c-26.022,8.771-53.93,17.223-82.954,25.121
			C2438.85,3032.143,2437.34,3032.338,2435.854,3032.338z M2597.878,2977.079c-6.626,0-12.931-3.873-15.712-10.346
			c-3.734-8.675,0.274-18.731,8.95-22.463c27.334-11.759,52.494-24.271,74.779-37.189c8.185-4.736,18.635-1.948,23.37,6.219
			c4.735,8.17,1.95,18.632-6.219,23.367c-23.457,13.596-49.842,26.723-78.419,39.016
			C2602.427,2976.631,2600.133,2977.079,2597.878,2977.079z M2744.337,2889.89c-4.775,0-9.528-1.99-12.907-5.877
			c-6.198-7.125-5.447-17.925,1.68-24.122c21.961-19.104,39.346-39.385,51.666-60.28c4.792-8.135,15.278-10.843,23.41-6.044
			c8.135,4.796,10.844,15.278,6.045,23.413c-14.19,24.071-33.933,47.189-58.679,68.713
			C2752.315,2888.509,2748.318,2889.89,2744.337,2889.89z M2825.11,2745.208c-0.424,0-0.852-0.016-1.279-0.048
			c-9.417-0.698-16.487-8.897-15.789-18.315c0.304-4.098,0.458-8.277,0.458-12.422c0-20.686-3.82-42.526-11.354-64.912
			c-3.016-8.949,1.8-18.647,10.75-21.659c8.933-3.01,18.648,1.798,21.657,10.751c8.723,25.908,13.144,51.418,13.144,75.821
			c0,4.984-0.184,10.014-0.551,14.948C2841.481,2738.36,2833.98,2745.208,2825.11,2745.208z M2775.782,2584.645
			c-5.65,0-11.181-2.799-14.44-7.921c-13.608-21.382-30.38-43.678-49.849-66.268c-6.165-7.153-5.366-17.949,1.787-24.114
			c7.153-6.164,17.953-5.365,24.115,1.789c20.542,23.834,38.304,47.463,52.795,70.232c5.073,7.966,2.725,18.535-5.243,23.605
			C2782.101,2583.78,2778.921,2584.645,2775.782,2584.645z M2665.49,2454.54c-4.261,0-8.529-1.584-11.845-4.771
			c-19.095-18.355-40.225-37.297-62.797-56.299c-7.227-6.082-8.152-16.868-2.07-24.092c6.084-7.222,16.868-8.152,24.091-2.07
			c23.146,19.484,44.837,38.932,64.473,57.807c6.809,6.544,7.023,17.367,0.478,24.176
			C2674.464,2452.783,2669.982,2454.54,2665.49,2454.54z"/>
		<g>
			<g>
				<defs>
					<path id="SVGID_00000068648356159742818000000013293854883804331403_" d="M1308.897,2222.554
						c-58.532-106.297,5.716-278.946,81.358-378.995c88.313-116.81,156.714-87.777,218.328-183.967
						c114.717-179.091-75.35-353.173,26.014-542.951c82.865-155.144,241.333-97.675,325.28-273.659
						c60.576-126.988,7.18-217.949,96.332-311.104c7.621-7.964,91.046-92.669,189.09-74.27
						c98.956,18.571,154.93,131.316,172.149,208.58c31.83,142.821-64.005,185.716-88.401,368.869
						c-33.213,249.356,124.764,317.448,62.357,496c-51.532,147.443-171.143,135.02-225.035,299.635
						c-50.042,152.861,34.911,219.121-8.61,318.734C2057.639,2378.587,1428.283,2439.37,1308.897,2222.554z"/>
				</defs>
				<use xlink:href="#SVGID_00000068648356159742818000000013293854883804331403_"  style="overflow:visible;fill:#D8DEE8;"/>
				<clipPath id="SVGID_00000007428208711390005440000005917074123848271528_">
					<use xlink:href="#SVGID_00000068648356159742818000000013293854883804331403_"  style="overflow:visible;"/>
				</clipPath>
				<g style="clip-path:url(#SVGID_00000007428208711390005440000005917074123848271528_);">
					<path style="opacity:0.7;fill:#FFFFFF;" d="M1387.484,2389.214c-0.808-0.055-1.478-0.697-1.544-1.529
						c-0.072-0.916,0.615-1.716,1.528-1.791c106.835-8.397,207.22-38.776,298.363-90.288
						c86.335-48.797,175.61-99.25,217.237-195.509c31.485-72.801,16.717-127.448-1.978-196.633
						c-18.188-67.316-40.828-151.092-23.658-277.714c9.8-72.3,21.997-162.275,87.132-245.957
						c37.941-48.745,74.036-69.082,105.881-87.029c33.396-18.819,59.774-33.684,76.058-74.965
						c26.552-67.303,11.908-126.16-5.044-194.312c-10.465-42.064-21.287-85.561-24.447-136.938
						c-8.886-144.608,63.423-297.897,214.925-455.609c0.636-0.664,1.694-0.68,2.352-0.047c0.661,0.636,0.683,1.689,0.047,2.353
						c-150.83,157.013-222.829,309.459-214.002,453.098c3.139,51.076,13.925,94.423,24.353,136.341
						c17.092,68.703,31.855,128.04,4.913,196.335c-16.719,42.377-44.896,58.256-77.523,76.644
						c-31.57,17.79-67.357,37.957-104.886,86.171c-64.583,82.976-76.714,172.459-86.465,244.36
						c-17.078,125.956,5.464,209.373,23.576,276.399c18.865,69.813,33.768,124.956,1.821,198.823
						c-42.07,97.285-131.841,148.02-218.654,197.083c-91.57,51.756-192.416,82.274-299.737,90.713
						C1387.647,2389.219,1387.566,2389.219,1387.484,2389.214z"/>
					<path style="opacity:0.7;fill:#FFFFFF;" d="M1937.92,1423.856c-0.611-0.042-1.176-0.424-1.426-1.029
						c-80.648-196.798-90.08-347.715-83.793-439.662c6.825-99.761,33.149-153.712,33.416-154.247
						c0.406-0.822,1.415-1.158,2.229-0.748c0.825,0.408,1.159,1.406,0.751,2.228c-0.263,0.529-26.343,54.046-33.09,153.225
						c-6.232,91.557,3.21,241.856,83.567,437.94c0.35,0.851-0.057,1.821-0.908,2.171
						C1938.419,1423.834,1938.166,1423.873,1937.92,1423.856z"/>
					<path style="opacity:0.7;fill:#FFFFFF;" d="M1872.915,1730.96c-0.71-0.048-1.334-0.551-1.505-1.278
						c-0.213-0.894,0.34-1.79,1.236-2c109.884-26.008,205.083-69.782,282.947-130.104c62.27-48.244,113.668-107.123,152.759-175.009
						c66.556-115.574,74.4-218.463,74.47-219.489c0.065-0.916,0.857-1.607,1.773-1.545l0.003,0c0.915,0.065,1.607,0.86,1.544,1.776
						c-0.073,1.034-7.972,104.688-74.908,220.917c-39.309,68.26-90.989,127.47-153.605,175.979
						c-78.243,60.616-173.868,104.591-284.22,130.709C1873.244,1730.959,1873.077,1730.971,1872.915,1730.96z"/>
					<path style="opacity:0.7;fill:#FFFFFF;" d="M1782.356,2246.544c-0.362-0.025-0.716-0.168-1.007-0.429
						c-79.628-72.419-141.713-151.201-184.527-234.16c-34.267-66.395-56.333-135.594-65.59-205.68
						c-15.766-119.385,11.558-201.089,11.838-201.899c0.295-0.871,1.246-1.327,2.111-1.035c0.871,0.298,1.333,1.243,1.036,2.111
						c-0.276,0.805-27.371,81.913-11.66,200.575c14.5,109.509,69.473,274.328,249.034,437.626c0.68,0.62,0.728,1.671,0.111,2.351
						C1783.345,2246.393,1782.846,2246.578,1782.356,2246.544z"/>
					<path style="opacity:0.7;fill:#FFFFFF;" d="M2121.913,863.428c-0.62-0.042-1.193-0.433-1.436-1.052
						c-0.335-0.855,0.086-1.822,0.941-2.157c79.859-31.27,146.791-75.984,198.943-132.893
						c41.719-45.53,74.136-98.929,96.346-158.722c37.846-101.872,32.833-188.131,32.778-188.99
						c-0.057-0.915,0.637-1.706,1.555-1.766c0.914-0.048,1.703,0.639,1.766,1.555c0.055,0.862,5.121,87.713-32.932,190.231
						c-22.352,60.218-54.989,114.01-97.001,159.874c-52.506,57.319-119.878,102.341-200.239,133.809
						C2122.397,863.408,2122.15,863.444,2121.913,863.428z"/>
				</g>
			</g>
		</g>
		<g>
			<g>
				
					<linearGradient id="SVGID_00000124845350821025344310000013123897471795947946_" gradientUnits="userSpaceOnUse" x1="161.9694" y1="-305.5552" x2="670.71" y2="2946.7595" gradientTransform="matrix(-0.8298 -0.558 -0.558 0.8298 2982.3694 1284.397)">
					<stop  offset="0" style="stop-color:#FF9085"/>
					<stop  offset="1" style="stop-color:#FB6FBB"/>
				</linearGradient>
				<path style="fill:url(#SVGID_00000124845350821025344310000013123897471795947946_);" d="M2058.737,2307.221
					c-18.553-1.581-57.522-21.376-65.553-30.724c-53.444-62.212-161.074-172.19-159.749-258.882
					c0.226-14.806,65.628-31.391,74.286-45.349c39.131-20.695,53.989-25.448,81.526-63.398
					c81.294-112.038-123.729-306.827,101.39-388.248c164.897-59.638,308.609-8.199,279.315-266.945
					c-29.294-258.746,155.896-740.641,437.833-571.548c161.805,97.043,11.764,324.701,99.783,483.962
					c83.641,151.34,23.615,281.55-136.674,381.547c-160.288,99.998-69.391,167.541-15.226,312.465
					c65.066,174.085-205.211,217.212-331.689,226.479C2322.13,2094.042,2067.819,2181.758,2058.737,2307.221z"/>
				<g>
					<defs>
						<path id="SVGID_00000176758318921644921970000005276532422370394283_" d="M2058.737,2307.221
							c-18.553-1.581-57.522-21.376-65.553-30.724c-53.444-62.212-161.074-172.19-159.749-258.882
							c0.226-14.806,65.628-31.391,74.286-45.349c39.131-20.695,53.989-25.448,81.526-63.398
							c81.294-112.038-123.729-306.827,101.39-388.248c164.897-59.638,308.609-8.199,279.315-266.945
							c-29.294-258.746,155.896-740.641,437.833-571.548c161.805,97.043,11.764,324.701,99.783,483.962
							c83.641,151.34,23.615,281.55-136.674,381.547c-160.288,99.998-69.391,167.541-15.226,312.465
							c65.066,174.085-205.211,217.212-331.689,226.479C2322.13,2094.042,2067.819,2181.758,2058.737,2307.221z"/>
					</defs>
					
						<linearGradient id="SVGID_00000057141865789686786890000013706583355936306862_" gradientUnits="userSpaceOnUse" x1="1833.4237" y1="1477.0938" x2="2945.238" y2="1477.0938">
						<stop  offset="0" style="stop-color:#FF9085"/>
						<stop  offset="1" style="stop-color:#FB6FBB"/>
					</linearGradient>
					
						<use xlink:href="#SVGID_00000176758318921644921970000005276532422370394283_"  style="overflow:visible;fill:url(#SVGID_00000057141865789686786890000013706583355936306862_);"/>
					<clipPath id="SVGID_00000016784766075182981630000012194271226684964281_">
						<use xlink:href="#SVGID_00000176758318921644921970000005276532422370394283_"  style="overflow:visible;"/>
					</clipPath>
					<g style="opacity:0.7;clip-path:url(#SVGID_00000016784766075182981630000012194271226684964281_);">
						<g>
							<path style="fill:#FCFDFE;" d="M1915.941,2154.406l-1.887-3.48c536.1-290.798,841.576-868.154,817.146-1544.424l3.958-0.145
								c11.577,320.504-53.791,630.537-189.037,896.579C2403.938,1782.632,2186.024,2007.905,1915.941,2154.406z"/>
							<path style="fill:#FCFDFE;" d="M2791.014,1929.356c-160.616-45.053-425.538-34.928-590.553,22.575l-1.302-3.739
								c165.665-57.728,431.647-67.887,592.923-22.65L2791.014,1929.356z"/>
							<path style="fill:#FCFDFE;" d="M2020.526,2096.117l-2.777-2.823c64.712-63.74,94.715-157.749,89.174-279.41
								c-4.063-89.208-26.785-190.932-67.541-302.35l3.72-1.359c40.892,111.796,63.697,213.918,67.777,303.527
								C2116.475,1936.534,2086.076,2031.552,2020.526,2096.117z"/>
							<path style="fill:#FCFDFE;" d="M2563.852,1464.429l-2.921-2.675c115.801-126.421,291.563-166.548,418.618-177.951
								l0.353,3.946C2853.545,1299.088,2678.794,1338.944,2563.852,1464.429z"/>
							<path style="fill:#FCFDFE;" d="M2692.375,1093.616l-3.959-0.115c5.564-193.058-112.561-357.821-183.468-438.851l2.98-2.609
								C2579.218,733.51,2697.979,899.206,2692.375,1093.616z"/>
						</g>
					</g>
				</g>
			</g>
		</g>
		<g>
			<g>
				
					<linearGradient id="SVGID_00000021830829047273157110000017896492515884421042_" gradientUnits="userSpaceOnUse" x1="1754.9739" y1="1502.9928" x2="2133.0886" y2="1502.9928">
					<stop  offset="0.494" style="stop-color:#EBEFF2"/>
					<stop  offset="1" style="stop-color:#FFFFFF"/>
				</linearGradient>
				
					<rect x="1754.974" y="925.066" style="fill:url(#SVGID_00000021830829047273157110000017896492515884421042_);" width="378.115" height="1155.853"/>
				<rect x="1783.659" y="1034.814" style="fill:#97A6B7;" width="320.745" height="72.387"/>
				<rect x="1783.659" y="1163.242" style="fill:#97A6B7;" width="320.745" height="72.386"/>
				<rect x="1783.659" y="1291.67" style="fill:#97A6B7;" width="320.745" height="72.387"/>
				<rect x="1783.659" y="1420.098" style="fill:#97A6B7;" width="320.745" height="72.387"/>
				<rect x="1783.659" y="1548.526" style="fill:#97A6B7;" width="320.745" height="72.387"/>
				<rect x="1783.659" y="1676.954" style="fill:#97A6B7;" width="320.745" height="72.387"/>
				<rect x="1783.659" y="1805.382" style="fill:#97A6B7;" width="320.745" height="72.387"/>
				<polygon style="fill:#97A6B7;" points="1754.974,925.066 1754.974,2080.919 1653.274,2045.894 1653.274,1034.814 
					1752.027,928.242 1754.557,925.51 				"/>
				<rect x="1621.982" y="1209.943" style="opacity:0.5;fill:#97A6B7;" width="62.585" height="16.345"/>
				<rect x="1621.982" y="1413.093" style="opacity:0.5;fill:#97A6B7;" width="62.585" height="16.345"/>
				<rect x="1621.982" y="1616.243" style="opacity:0.5;fill:#97A6B7;" width="62.585" height="16.345"/>
				<rect x="1621.982" y="1819.393" style="opacity:0.5;fill:#97A6B7;" width="62.585" height="16.345"/>
				<rect x="1783.659" y="1034.814" style="opacity:0.5;fill:#97A6B7;" width="320.745" height="14.01"/>
				<rect x="1783.659" y="1163.242" style="opacity:0.5;fill:#97A6B7;" width="320.745" height="14.01"/>
				<rect x="1783.659" y="1291.67" style="opacity:0.5;fill:#97A6B7;" width="320.745" height="14.01"/>
				<rect x="1783.659" y="1420.098" style="opacity:0.5;fill:#97A6B7;" width="320.745" height="14.01"/>
				<rect x="1783.659" y="1548.526" style="opacity:0.5;fill:#97A6B7;" width="320.745" height="14.01"/>
				<rect x="1783.659" y="1676.954" style="opacity:0.5;fill:#97A6B7;" width="320.745" height="14.01"/>
				<rect x="1783.659" y="1805.382" style="opacity:0.5;fill:#97A6B7;" width="320.745" height="14.01"/>
				<path style="opacity:0.1;fill:#97A6B7;" d="M2120.533,2080.919h-365.559l-101.7-35.026v-223.909
					c4.003-13.963,8.292-27.226,12.882-39.439c42.858-114.138,28.907-160.535,37.877-244.06
					c8.853-82.451-10.457-524.734,47.995-610.244c0.769-1.121,1.538-2.172,2.334-3.176c0.065,0.14,0.13,0.304,0.196,0.443
					c0.144,0.327,0.287,0.63,0.417,0.934c23.065,51.932,36.09,81.891,43.561,108.37c1.343,4.74,2.504,9.387,3.495,14.01
					c3.833,17.583,5.463,35.096,6.31,58.376c0.548,15.528,0.77,33.625,1.043,56.042c0.052,4.483,0.118,9.153,0.183,14.01
					c0.039,2.802,0.078,5.674,0.117,8.593c0.248,17.093,0.431,33.718,0.691,49.783c0.313,19.568,0.743,38.318,1.513,56.042
					c0.209,4.74,0.443,9.41,0.704,14.01c1.213,21.225,3.064,40.793,6.024,58.376c3.69,22.089,9.114,40.98,17.198,56.042
					c2.738,5.137,5.789,9.807,9.192,14.01c7.627,9.457,16.976,16.509,28.462,20.852c14.499,5.464,28.633,18.517,41.802,37.525
					c10.522,15.154,20.419,34.114,29.402,56.041c1.851,4.53,3.677,9.223,5.45,14.01c6.65,17.933,12.699,37.501,18.006,58.376
					c4.538,17.816,8.527,36.59,11.891,56.041c0.808,4.623,1.565,9.293,2.295,14.01c2.934,18.937,5.268,38.482,6.91,58.376
					c1.539,18.423,2.504,37.15,2.803,56.041c0.079,4.647,0.117,9.317,0.117,14.01c0,2.872-0.013,5.744-0.052,8.64
					c-0.208,18.541,1.03,35.002,3.417,49.737C2014.4,1994.662,2105.395,2003.816,2120.533,2080.919z"/>
			</g>
			<g>
				<rect x="1303.343" y="803.043" style="opacity:0.5;fill:#97A6B7;" width="93.564" height="23.938"/>
				<rect x="1303.343" y="1100.555" style="opacity:0.5;fill:#97A6B7;" width="93.564" height="23.938"/>
				<rect x="1303.343" y="1398.068" style="opacity:0.5;fill:#97A6B7;" width="93.564" height="23.938"/>
				<g>
					<polygon style="fill:#97A6B7;" points="1207.984,641.232 1207.984,2080.919 1059.045,2037.284 1059.045,777.917 					"/>
					<rect x="1207.984" y="644.652" style="fill:#D8DEE8;" width="465.912" height="1436.267"/>
					<g>
						<rect x="1292.001" y="815.636" style="fill:#97A6B7;" width="91.655" height="225.699"/>
						<rect x="1418.026" y="815.636" style="fill:#97A6B7;" width="93.564" height="225.699"/>
						<rect x="1545.961" y="815.636" style="fill:#97A6B7;" width="91.655" height="225.699"/>
						<rect x="1292.001" y="1113.149" style="fill:#97A6B7;" width="91.655" height="225.699"/>
						<rect x="1418.026" y="1113.149" style="fill:#97A6B7;" width="93.564" height="225.699"/>
						<rect x="1545.961" y="1113.149" style="fill:#97A6B7;" width="91.655" height="225.699"/>
						<rect x="1292.001" y="1410.661" style="fill:#97A6B7;" width="91.655" height="225.699"/>
						<rect x="1418.026" y="1410.661" style="fill:#97A6B7;" width="93.564" height="225.699"/>
						<rect x="1545.961" y="1410.661" style="fill:#97A6B7;" width="91.655" height="225.699"/>
						<rect x="1292.001" y="1708.174" style="fill:#97A6B7;" width="91.655" height="225.699"/>
						<rect x="1418.026" y="1708.174" style="fill:#97A6B7;" width="93.564" height="225.699"/>
						<rect x="1545.961" y="1708.174" style="fill:#97A6B7;" width="91.655" height="225.699"/>
					</g>
					<rect x="1292.001" y="815.636" style="opacity:0.5;fill:#97A6B7;" width="91.655" height="23.938"/>
					<rect x="1292.001" y="1113.149" style="opacity:0.5;fill:#97A6B7;" width="91.655" height="23.938"/>
					<rect x="1292.001" y="1410.661" style="opacity:0.5;fill:#97A6B7;" width="91.655" height="23.938"/>
					<rect x="1292.001" y="1708.174" style="opacity:0.5;fill:#97A6B7;" width="91.655" height="23.938"/>
					<path style="opacity:0.1;fill:#97A6B7;" d="M1673.896,2057.084v23.835h-465.912l-148.939-43.635v-213.115
						c9.967-45.448,21.997-89.698,36.28-126.254c54.745-140.207,36.91-197.213,48.367-299.803
						c11.457-102.591-13.997-658.837,64.292-753.459c73.19,158.434,68.111,151.594,70.651,320.321
						c1.356,90.246,1.26,170.061,13.367,229.324c10.502,51.5,30.227,87.441,68.111,101.223c7.963,2.906,15.83,7.523,23.544,13.712
						c24.632,19.663,47.794,55.194,67.423,101.428c25.816,60.699,45.617,139.831,54.84,225.699
						c2.54,23.494,4.277,47.533,5.117,71.813c0.286,8.07,0.477,16.209,0.554,24.349c0.077,7.078,0.077,14.157,0,21.236
						c-0.038,2.496-0.038,4.958,0,7.386c0.363,61.349,14.493,103.651,34.37,136.103c8.421,13.747,17.872,25.716,27.764,36.625
						C1613.231,1977.44,1659.556,2003.737,1673.896,2057.084z"/>
				</g>
			</g>
			<g>
				<polygon style="fill:#97A6B7;" points="775.304,853.403 775.304,1997.869 645.459,1963.193 645.459,962.081 763.542,863.252 
					773.814,854.634 				"/>
				<rect x="775.304" y="852.275" style="fill:#F4F7FA;" width="360.891" height="1145.594"/>
				<rect x="844.045" y="978.803" style="fill:#97A6B7;" width="45.828" height="943.833"/>
				<rect x="939.519" y="978.803" style="fill:#97A6B7;" width="47.737" height="943.833"/>
				<rect x="1034.992" y="978.803" style="fill:#97A6B7;" width="47.737" height="943.833"/>
				<rect x="874.596" y="978.803" style="opacity:0.5;fill:#97A6B7;" width="15.276" height="943.833"/>
				<rect x="971.98" y="978.803" style="opacity:0.5;fill:#97A6B7;" width="15.276" height="943.833"/>
				<rect x="1069.363" y="978.803" style="opacity:0.5;fill:#97A6B7;" width="15.276" height="943.833"/>
				<path style="opacity:0.1;fill:#97A6B7;" d="M1136.194,1997.8v0.069H775.304l-129.844-34.676v-116.44
					c60.148-129.674,40.347-183.602,53.332-279.799c12.679-93.904-14.073-588.699,64.751-703.703
					c2.845-4.206,5.824-7.865,8.955-10.977c0.439,0.786,0.878,1.573,1.318,2.359c0.497,0.889,0.993,1.778,1.489,2.667
					c41.016,73.489,59.805,108.575,68.741,145.884c8.708,36.351,8.058,74.789,9.471,152.928
					c1.756,96.093,1.394,179.704,21.081,237.258c4.124,12.14,9.146,23.083,15.276,32.761c11.896,18.842,27.935,32.829,49.646,41.002
					c2.406,0.923,4.869,1.778,7.409,2.531c8.459,2.531,16.822,6.497,25.052,11.729c5.155,3.249,10.254,7.011,15.276,11.285
					c16.861,14.191,32.958,33.684,47.737,57.382c12.488,20.005,24.04,42.986,34.37,68.257c4.716,11.559,9.185,23.595,13.366,36.078
					c0.649,1.915,1.279,3.83,1.909,5.779c23.372,71.95,37.235,157.271,36.013,244.132
					C1120.117,1942.128,1126.074,1972.563,1136.194,1997.8z"/>
			</g>
		</g>
		<g>
			<g>
				
					<linearGradient id="SVGID_00000074423835801029443380000003383437664776582071_" gradientUnits="userSpaceOnUse" x1="1431.7194" y1="1311.9523" x2="2715.2847" y2="1311.9523">
					<stop  offset="0" style="stop-color:#FCB148"/>
					<stop  offset="0.0521" style="stop-color:#FDBA46"/>
					<stop  offset="0.1424" style="stop-color:#FFC244"/>
					<stop  offset="0.3183" style="stop-color:#FFC444"/>
					<stop  offset="0.4849" style="stop-color:#FDB946"/>
					<stop  offset="0.7754" style="stop-color:#F99C4D"/>
					<stop  offset="0.8658" style="stop-color:#F8924F"/>
					<stop  offset="1" style="stop-color:#F8924F"/>
				</linearGradient>
				<path style="fill:url(#SVGID_00000074423835801029443380000003383437664776582071_);" d="M1434.828,1361.076
					c-6.994-6.14,0-45.03,0-45.03l740.096-53.217l540.361,14.328v53.217L1434.828,1361.076z"/>
				
					<linearGradient id="SVGID_00000054237171525594908970000001988946311745341357_" gradientUnits="userSpaceOnUse" x1="1368.6194" y1="1920.5609" x2="1632.4279" y2="1920.5609">
					<stop  offset="0" style="stop-color:#40447E"/>
					<stop  offset="0.9964" style="stop-color:#3C3B6B"/>
				</linearGradient>
				<polygon style="fill:url(#SVGID_00000054237171525594908970000001988946311745341357_);" points="1632.428,2046.01 
					1368.619,2034.458 1368.619,1795.112 1632.428,1843.974 				"/>
				
					<linearGradient id="SVGID_00000070092477132818573280000008053844387593841082_" gradientUnits="userSpaceOnUse" x1="1757.5767" y1="2080.0032" x2="2154.0313" y2="2080.0032">
					<stop  offset="0" style="stop-color:#40447E"/>
					<stop  offset="0.9964" style="stop-color:#3C3B6B"/>
				</linearGradient>
				<path style="fill:url(#SVGID_00000070092477132818573280000008053844387593841082_);" d="M2153.617,2249.328
					c-0.509,15.174-340.24,5.088-340.24,5.088l-55.8-219.713l73.682-128.07C1831.259,1906.633,2167.432,1837.783,2153.617,2249.328z
					"/>
				<g>
					
						<linearGradient id="SVGID_00000150816191303056412440000015427426003359360390_" gradientUnits="userSpaceOnUse" x1="5335.0396" y1="2005.0691" x2="5470.3901" y2="2005.0691" gradientTransform="matrix(-1 0 0 1 6905.2178 0)">
						<stop  offset="0" style="stop-color:#444B8C"/>
						<stop  offset="0.9964" style="stop-color:#3E4177"/>
					</linearGradient>
					<path style="fill:url(#SVGID_00000150816191303056412440000015427426003359360390_);" d="M1520.136,1873.355
						c0.017,0.003,0.036,0.005,0.053,0.008c4.816,0.692,9.237,3.385,13.63,7.251c4.224,3.064,9.322,6.674,9.322,11.283V1892
						c16.269,24.19,26.973,68.896,27.036,118.95c0.084,66.662-18.886,120.547-43.905,126.765c0,0.003,0.051,0.04,0.051,0.04
						c-1.688,0.348-22.649,11.201-88.712,0.508c-1.751-40.571-2.784-270.269-2.784-270.269S1487.63,1864.088,1520.136,1873.355z"/>
					<g>
						
							<linearGradient id="SVGID_00000140726473816468912930000017704449816300490173_" gradientUnits="userSpaceOnUse" x1="5580.9575" y1="1773.0132" x2="5388.3491" y2="2150.6135" gradientTransform="matrix(-1 0 0 1 6905.2178 0)">
							<stop  offset="0" style="stop-color:#EBEFF2"/>
							<stop  offset="0.9946" style="stop-color:#B7C0CE"/>
						</linearGradient>
						<path style="fill:url(#SVGID_00000140726473816468912930000017704449816300490173_);" d="M1388.242,1998.15
							c0,76.252,24.687,139.44,54.606,141.032c29.345,1.561,52.68-56.94,52.625-130.571
							c-0.055-73.556-23.436-136.439-52.728-140.593C1412.882,1863.782,1388.242,1921.978,1388.242,1998.15z"/>
						<path style="fill:#FFFFFF;" d="M1411.649,1999.897c0.009,54.107,16.462,99.085,36.51,100.409
							c19.788,1.306,35.614-40.517,35.578-93.364c-0.035-52.808-15.897-97.638-35.659-100.195
							C1428.057,1904.157,1411.64,1945.832,1411.649,1999.897z"/>
					</g>
				</g>
				<g>
					
						<linearGradient id="SVGID_00000174585073103813113160000005169953109989965503_" gradientUnits="userSpaceOnUse" x1="4812.1665" y1="2213.325" x2="4977.1431" y2="2213.325" gradientTransform="matrix(-1 0 0 1 6905.2178 0)">
						<stop  offset="0" style="stop-color:#444B8C"/>
						<stop  offset="0.9964" style="stop-color:#3E4177"/>
					</linearGradient>
					<path style="fill:url(#SVGID_00000174585073103813113160000005169953109989965503_);" d="M2032.055,2052.781
						c0.021,0.003,0.043,0.006,0.065,0.009c5.87,0.844,11.259,4.126,16.614,8.838c5.149,3.734,11.363,8.135,11.363,13.752v0.126
						c19.83,29.485,32.877,83.976,32.954,144.986c0.103,81.254-23.02,146.933-53.515,154.512c0,0.004,0.063,0.049,0.063,0.049
						c-2.057,0.424-27.606,13.653-108.131,0.619c-2.134-49.451-3.393-329.427-3.393-329.427S1992.434,2041.485,2032.055,2052.781z"
						/>
					<g>
						
							<linearGradient id="SVGID_00000076567548024127262760000010329690391222325634_" gradientUnits="userSpaceOnUse" x1="5111.9126" y1="1930.4758" x2="4877.145" y2="2390.7263" gradientTransform="matrix(-1 0 0 1 6905.2178 0)">
							<stop  offset="0" style="stop-color:#EBEFF2"/>
							<stop  offset="0.9946" style="stop-color:#B7C0CE"/>
						</linearGradient>
						<path style="fill:url(#SVGID_00000076567548024127262760000010329690391222325634_);" d="M1871.291,2204.891
							c0,92.943,30.091,169.962,66.559,171.901c35.768,1.903,64.21-69.404,64.143-159.151
							c-0.067-89.656-28.566-166.303-64.269-171.367C1901.325,2041.112,1871.291,2112.046,1871.291,2204.891z"/>
						<path style="fill:#FFFFFF;" d="M1899.822,2207.021c0.011,65.95,20.065,120.774,44.501,122.387
							c24.119,1.592,43.409-49.385,43.366-113.8c-0.043-64.367-19.377-119.01-43.465-122.126
							C1919.821,2090.325,1899.811,2141.121,1899.822,2207.021z"/>
					</g>
				</g>
				
					<linearGradient id="SVGID_00000065060409814833763390000017683220166907592594_" gradientUnits="userSpaceOnUse" x1="1248.2198" y1="1862.9148" x2="2736.4932" y2="1862.9148">
					<stop  offset="0" style="stop-color:#FCB148"/>
					<stop  offset="0.0521" style="stop-color:#FDBA46"/>
					<stop  offset="0.1424" style="stop-color:#FFC244"/>
					<stop  offset="0.3183" style="stop-color:#FFC444"/>
					<stop  offset="0.4849" style="stop-color:#FDB946"/>
					<stop  offset="0.7754" style="stop-color:#F99C4D"/>
					<stop  offset="0.8658" style="stop-color:#F8924F"/>
					<stop  offset="1" style="stop-color:#F8924F"/>
				</linearGradient>
				<path style="fill:url(#SVGID_00000065060409814833763390000017683220166907592594_);" d="M1434.827,1340.608l-150.269,29.172
					c-11.055,2.146-19.384,11.244-20.648,22.434c-25.92,229.445-13.112,482.844-7.851,564.323
					c1.067,16.525,10.879,31.201,25.735,38.516l77.264,38.045c10.482,5.161,22.715-2.657,22.361-14.335
					c-0.137-4.512-0.207-9.078-0.207-13.693c0-85.912,24.005-155.558,53.615-155.558c29.611,0,53.615,69.645,53.615,155.558
					c0,24.303-1.921,47.301-5.346,67.79c-1.956,11.7,3.989,23.28,14.631,28.52l310.508,152.897
					c9.801,4.826,21.212-2.454,20.954-13.375c-0.118-5.017-0.179-10.081-0.179-15.188c0-122.733,33.449-222.227,74.711-222.227
					c41.259,0,74.708,99.494,74.708,222.227c0,32.589-2.367,63.524-6.606,91.405c-1.498,9.852,3.674,19.52,12.615,23.923
					l217.096,106.899l112.068-8.409l422.892-1161.636L1434.827,1340.608z"/>
				
					<linearGradient id="SVGID_00000006705419441674942600000005638127535559589036_" gradientUnits="userSpaceOnUse" x1="1303.675" y1="2224.1687" x2="1883.9207" y2="1630.1086">
					<stop  offset="0" style="stop-color:#40447E"/>
					<stop  offset="0.9964" style="stop-color:#3C3B6B"/>
				</linearGradient>
				<path style="fill:url(#SVGID_00000006705419441674942600000005638127535559589036_);" d="M2326.388,2045.25l-26.482-628.91
					c-88.068-7.338-869.981-22.355-1036.559-19.026c-10.949,99.255-14.743,202.698-15.096,294.565l739.437,164.527L2326.388,2045.25
					z"/>
				
					<linearGradient id="SVGID_00000026164847557136553360000010193024382546812563_" gradientUnits="userSpaceOnUse" x1="1298.8856" y1="1755.2006" x2="1368.6194" y2="1755.2006">
					<stop  offset="0" style="stop-color:#FCB148"/>
					<stop  offset="0.0521" style="stop-color:#FDBA46"/>
					<stop  offset="0.1424" style="stop-color:#FFC244"/>
					<stop  offset="0.3183" style="stop-color:#FFC444"/>
					<stop  offset="0.4849" style="stop-color:#FDB946"/>
					<stop  offset="0.7754" style="stop-color:#F99C4D"/>
					<stop  offset="0.8658" style="stop-color:#F8924F"/>
					<stop  offset="1" style="stop-color:#F8924F"/>
				</linearGradient>
				<path style="fill:url(#SVGID_00000026164847557136553360000010193024382546812563_);" d="M1363.309,1478.966l-58.487-3.259
					c-3.223-0.18-5.937,2.387-5.937,5.616v522.145l60.172,29.629c3.16,1.557,6.476,1.916,9.562,1.361v-549.876
					C1368.619,1481.599,1366.29,1479.132,1363.309,1478.966z"/>
				
					<linearGradient id="SVGID_00000070808001315373144510000005988889863294886322_" gradientUnits="userSpaceOnUse" x1="1305.026" y1="1754.8866" x2="1362.4788" y2="1754.8866">
					<stop  offset="0" style="stop-color:#40447E"/>
					<stop  offset="0.9964" style="stop-color:#3C3B6B"/>
				</linearGradient>
				<path style="fill:url(#SVGID_00000070808001315373144510000005988889863294886322_);" d="M1361.771,2027.59l-56.745-27.941
					v-517.781l57.453,3.202v542.834C1362.242,2027.809,1362.005,2027.704,1361.771,2027.59z"/>
				
					<linearGradient id="SVGID_00000062164346596646395320000004404593919933516983_" gradientUnits="userSpaceOnUse" x1="1567.8643" y1="1843.9742" x2="1691.9261" y2="1843.9742">
					<stop  offset="0" style="stop-color:#FCB148"/>
					<stop  offset="0.0521" style="stop-color:#FDBA46"/>
					<stop  offset="0.1424" style="stop-color:#FFC244"/>
					<stop  offset="0.3183" style="stop-color:#FFC444"/>
					<stop  offset="0.4849" style="stop-color:#FDB946"/>
					<stop  offset="0.7754" style="stop-color:#F99C4D"/>
					<stop  offset="0.8658" style="stop-color:#F8924F"/>
					<stop  offset="1" style="stop-color:#F8924F"/>
				</linearGradient>
				<path style="fill:url(#SVGID_00000062164346596646395320000004404593919933516983_);" d="M1684.484,1496.869l-106.052-5.911
					c-4.494-0.251-8.284,3.283-8.317,7.783c-0.483,65.304-3.583,500.043-1.589,637.499l123.4,60.763v-692.268
					C1691.926,1500.554,1688.661,1497.101,1684.484,1496.869z"/>
				
					<linearGradient id="SVGID_00000103953578804511065210000016398738401583423133_" gradientUnits="userSpaceOnUse" x1="1583.2211" y1="1839.5293" x2="1676.575" y2="1839.5293">
					<stop  offset="0" style="stop-color:#40447E"/>
					<stop  offset="0.9964" style="stop-color:#3C3B6B"/>
				</linearGradient>
				<path style="fill:url(#SVGID_00000103953578804511065210000016398738401583423133_);" d="M1583.751,2126.629
					c-1.676-142.229,1.107-543.782,1.658-619.905l91.165,5.079v660.531L1583.751,2126.629z"/>
				
					<linearGradient id="SVGID_00000181806446507509181130000015470516891050923448_" gradientUnits="userSpaceOnUse" x1="2010.5671" y1="1981.9608" x2="2201.7104" y2="1981.9608">
					<stop  offset="0" style="stop-color:#FCB148"/>
					<stop  offset="0.0521" style="stop-color:#FDBA46"/>
					<stop  offset="0.1424" style="stop-color:#FFC244"/>
					<stop  offset="0.3183" style="stop-color:#FFC444"/>
					<stop  offset="0.4849" style="stop-color:#FDB946"/>
					<stop  offset="0.7754" style="stop-color:#F99C4D"/>
					<stop  offset="0.8658" style="stop-color:#F8924F"/>
					<stop  offset="1" style="stop-color:#F8924F"/>
				</linearGradient>
				<path style="fill:url(#SVGID_00000181806446507509181130000015470516891050923448_);" d="M2186.209,1524.834l-158.312-8.824
					c-9.414-0.525-17.333,6.956-17.33,16.384c0.021,106.101,0.135,667.9,0.048,821.536l190.918,94.008l0.177-0.013v-906.7
					C2201.71,1532.512,2194.907,1525.318,2186.209,1524.834z"/>
				
					<linearGradient id="SVGID_00000040545146970683610120000003029511477596935832_" gradientUnits="userSpaceOnUse" x1="2032.0593" y1="1975.6239" x2="2180.2188" y2="1975.6239">
					<stop  offset="0" style="stop-color:#40447E"/>
					<stop  offset="0.9964" style="stop-color:#3C3B6B"/>
				</linearGradient>
				<path style="fill:url(#SVGID_00000040545146970683610120000003029511477596935832_);" d="M2032.113,2340.562
					c0.036-79.349,0.051-283.981-0.051-800.314l-0.003-2.489l148.159,8.266v867.463L2032.113,2340.562z"/>
				
					<linearGradient id="SVGID_00000027582844359758157470000012318341134578368421_" gradientUnits="userSpaceOnUse" x1="2886.6538" y1="2232.0554" x2="2266.468" y2="733.7815">
					<stop  offset="0" style="stop-color:#FCB148"/>
					<stop  offset="0.0521" style="stop-color:#FDBA46"/>
					<stop  offset="0.1424" style="stop-color:#FFC244"/>
					<stop  offset="0.3183" style="stop-color:#FFC444"/>
					<stop  offset="0.4849" style="stop-color:#FDB946"/>
					<stop  offset="0.7754" style="stop-color:#F99C4D"/>
					<stop  offset="0.8658" style="stop-color:#F8924F"/>
					<stop  offset="1" style="stop-color:#F8924F"/>
				</linearGradient>
				<path style="fill:url(#SVGID_00000027582844359758157470000012318341134578368421_);" d="M2299.97,1371.69l-0.003,44.65
					l10.598,1.229l-0.036,610.882l-10.598,2.08l-0.023,393.014c-0.001,12.389,10.419,22.228,22.788,21.517l850.581-48.901
					c14.066-0.808,25.058-12.45,25.058-26.54l-0.001-989.628c0-17.575-11.093-33.333-27.734-38.986
					c-250.78-85.201-533.154-81.155-839.931-8.186C2312.678,1337.1,2299.97,1353.197,2299.97,1371.69z"/>
				
					<linearGradient id="SVGID_00000004537378610072994690000010100840623070667406_" gradientUnits="userSpaceOnUse" x1="2299.906" y1="1723.4354" x2="3198.3342" y2="1723.4354">
					<stop  offset="0" style="stop-color:#40447E"/>
					<stop  offset="0.9964" style="stop-color:#3C3B6B"/>
				</linearGradient>
				<polygon style="fill:url(#SVGID_00000004537378610072994690000010100840623070667406_);" points="3198.334,2013.933 
					2299.906,2030.531 2299.906,1416.34 3198.334,1416.34 				"/>
				<g>
					
						<linearGradient id="SVGID_00000106863374742029232590000003605767613607366298_" gradientUnits="userSpaceOnUse" x1="2495.9622" y1="2146.3787" x2="2432.5105" y2="2461.5898">
						<stop  offset="0.0036" style="stop-color:#E38DDD"/>
						<stop  offset="1" style="stop-color:#9571F6"/>
					</linearGradient>
					<path style="fill:url(#SVGID_00000106863374742029232590000003605767613607366298_);" d="M2518.932,2193.237l-81.279,3.112
						c-9.442,0.361-17.11,7.801-17.11,16.617v49.124c0,8.816,7.669,15.609,17.11,15.174l81.279-3.748
						c9.28-0.428,16.787-7.841,16.787-16.559v-48.577C2535.719,2199.661,2528.212,2192.881,2518.932,2193.237z"/>
					
						<linearGradient id="SVGID_00000056389892692684649200000008676881377868158876_" gradientUnits="userSpaceOnUse" x1="3069.2297" y1="2261.7771" x2="3005.7778" y2="2576.988">
						<stop  offset="0.0036" style="stop-color:#E38DDD"/>
						<stop  offset="1" style="stop-color:#9571F6"/>
					</linearGradient>
					<path style="fill:url(#SVGID_00000056389892692684649200000008676881377868158876_);" d="M3115.898,2170.385l-72.056,2.758
						c-8.366,0.32-15.16,7.307-15.16,15.605v46.238c0,8.298,6.795,14.712,15.16,14.326l72.056-3.323
						c8.231-0.38,14.89-7.343,14.89-15.554v-45.753C3130.788,2176.471,3124.129,2170.07,3115.898,2170.385z"/>
				</g>
				<g style="opacity:0.3;">
					<path style="fill:#FFFFFF;" d="M3198.333,2369.621v-989.628c0-17.576-11.094-33.332-27.734-38.987
						c-196.546-66.775-412.502-78.715-644.398-45.635c101.594,69.34,146.559,141.834,165.241,206.333
						c38.411,132.597-41.787,204.992,10.791,349.813c58.868,162.151,197.913,177.459,323.793,323.292
						c43.586,50.496,89.621,121.312,122.347,222.784l24.904-1.432C3187.342,2395.352,3198.333,2383.71,3198.333,2369.621z"/>
				</g>
				
					<linearGradient id="SVGID_00000121971296973373347830000014701804355645086875_" gradientUnits="userSpaceOnUse" x1="2696.3889" y1="2781.8838" x2="2700.4829" y2="2358.1914">
					<stop  offset="0" style="stop-color:#AA80F9"/>
					<stop  offset="0.9964" style="stop-color:#6165D7"/>
				</linearGradient>
				<path style="fill:url(#SVGID_00000121971296973373347830000014701804355645086875_);" d="M2245.971,2275.009l109.982,54.435
					l842.381-40.058v92.485c0,21.451-16.613,39.239-38.014,40.701l-822.218,56.196c-25.212,1.723-50.516-1.578-74.443-9.712
					l-62.125-21.119l8.77-152.182C2211.323,2278.056,2230.083,2267.146,2245.971,2275.009z"/>
				
					<linearGradient id="SVGID_00000106856888078480773040000017543088876681323671_" gradientUnits="userSpaceOnUse" x1="2334.5757" y1="2374.8718" x2="3173.7722" y2="2374.8718">
					<stop  offset="0" style="stop-color:#40447E"/>
					<stop  offset="0.9964" style="stop-color:#3C3B6B"/>
				</linearGradient>
				<path style="fill:url(#SVGID_00000106856888078480773040000017543088876681323671_);" d="M2334.576,2367.435v51.774
					c0,15.599,13.109,27.993,28.683,27.119l795.422-44.621c8.468-0.475,15.091-7.48,15.091-15.961v-66.388
					c0-9.12-7.617-16.392-16.727-15.969l-796.565,36.914C2345.983,2340.975,2334.576,2352.924,2334.576,2367.435z"/>
			</g>
		</g>
		<g>
			<g>
				<g>
					<g>
						
							<linearGradient id="SVGID_00000140714783166138997990000006183651305570778498_" gradientUnits="userSpaceOnUse" x1="691.189" y1="2197.2126" x2="1819.2063" y2="2197.2126" gradientTransform="matrix(0.9993 0.0372 -0.0372 0.9993 -147.3405 -31.9133)">
							<stop  offset="0" style="stop-color:#444B8C"/>
							<stop  offset="0.9964" style="stop-color:#26264F"/>
						</linearGradient>
						<path style="fill:url(#SVGID_00000140714783166138997990000006183651305570778498_);" d="M1410.387,1328.355l149.32,1675.55
							c2.26,25.369-15.358,47.928-39.195,50.126l-807.879,83.209c-48.335,2.572-73.911-23.643-76.082-49.994L493.239,1347.602
							c-2.115-25.683,21.889-49.89,69.642-51.648l800.469-11.766C1387.033,1283.735,1408.182,1303.607,1410.387,1328.355z"/>
						
							<linearGradient id="SVGID_00000173137836664503823070000010389721504931193769_" gradientUnits="userSpaceOnUse" x1="1180.1104" y1="2467.5789" x2="1335.9438" y2="2035.0068" gradientTransform="matrix(0.9993 0.0372 -0.0372 0.9993 -147.3405 -31.9133)">
							<stop  offset="0" style="stop-color:#444B8C"/>
							<stop  offset="0.9964" style="stop-color:#26264F"/>
						</linearGradient>
						<path style="fill:url(#SVGID_00000173137836664503823070000010389721504931193769_);" d="M1447.084,1324.197l150.671,1685.579
							c2.282,25.523-15.43,48.219-39.402,50.432l-838.276,77.362c-25.702,2.371-48.562-17.385-50.753-43.897L524.739,1343.525
							c-2.134-25.836,17.032-47.367,42.544-47.854l832.484-15.904C1423.585,1279.312,1444.859,1299.302,1447.084,1324.197z"/>
					</g>
					
						<linearGradient id="SVGID_00000081644655167614132990000008336338675196630660_" gradientUnits="userSpaceOnUse" x1="1216.2269" y1="1262.7738" x2="258.6262" y2="3856.2754" gradientTransform="matrix(0.9993 0.0372 -0.0372 0.9993 -147.3405 -31.9133)">
						<stop  offset="0" style="stop-color:#FFC444"/>
						<stop  offset="0.9964" style="stop-color:#F36F56"/>
					</linearGradient>
					<path style="fill:url(#SVGID_00000081644655167614132990000008336338675196630660_);" d="M1010.338,1338.447
						c0.757,8.787-5.549,16.062-14.091,16.248c-8.548,0.186-16.094-6.796-16.85-15.593c-0.757-8.797,5.564-16.07,14.11-16.245
						C1002.048,1322.682,1009.581,1329.661,1010.338,1338.447z"/>
				</g>
				<g>
					<defs>
						<path id="SVGID_00000083071458131286416640000007501412619675690892_" d="M1398.195,1365.319l-807.663,19.306
							c-20.936,0.5-36.512,17.347-34.759,37.628l141.738,1639.636c1.76,20.362,20.125,35.36,40.986,33.5l804.749-71.753
							c19.573-1.745,34.022-19.113,32.3-38.794L1436.85,1399.966C1435.134,1380.361,1417.839,1364.849,1398.195,1365.319z"/>
					</defs>
					<clipPath id="SVGID_00000031173548961573933140000003729948350464935049_">
						<use xlink:href="#SVGID_00000083071458131286416640000007501412619675690892_"  style="overflow:visible;"/>
					</clipPath>
					<polygon style="clip-path:url(#SVGID_00000031173548961573933140000003729948350464935049_);fill:#FFFFFF;" points="
						1478.129,1871.668 597.955,1910.231 576.664,1663.936 1457.295,1633.591 					"/>
					<g style="clip-path:url(#SVGID_00000031173548961573933140000003729948350464935049_);">
						<polygon style="fill:#D8DEE8;" points="1578.664,3020.477 700.698,3098.758 586.354,1776.025 1466.776,1741.94 						"/>
						
							<linearGradient id="SVGID_00000133489136195510359780000002568956652765025675_" gradientUnits="userSpaceOnUse" x1="232.0069" y1="983.4997" x2="967.0427" y2="2292.8308" gradientTransform="matrix(1 0 0.0875 1 322.2875 -0.0483)">
							<stop  offset="0" style="stop-color:#FF9085"/>
							<stop  offset="1" style="stop-color:#FB6FBB"/>
						</linearGradient>
						<polygon style="fill:url(#SVGID_00000133489136195510359780000002568956652765025675_);" points="1463.448,1703.912 
							582.954,1736.684 552.598,1385.532 1433.743,1364.469 						"/>
						<g>
							<g>
								<path style="fill:#FFFFFF;" d="M772.453,1629.84c1.156,13.341-9.002,24.536-22.702,25.007
									c-13.715,0.471-25.782-9.982-26.94-23.348c-1.158-13.365,9.034-24.562,22.75-25.007
									C759.262,1606.047,771.296,1616.5,772.453,1629.84z"/>
								<path style="fill:#FFFFFF;" d="M947.009,1624.007c1.151,13.252-8.864,24.37-22.383,24.835
									c-13.533,0.465-25.448-9.922-26.601-23.198c-1.153-13.276,8.895-24.395,22.429-24.835
									C933.974,1600.37,945.857,1610.756,947.009,1624.007z"/>
								<path style="fill:#FFFFFF;" d="M960.423,1502.854l-249.896,7.193c-15.334,0.441-26.731,12.895-25.439,27.815l7.998,92.37
									l23.283-0.776c-0.174-15.772,12.208-28.618,28.655-29.149c16.425-0.53,30.91,11.422,33.454,27.079l113.19-3.773
									c-0.185-15.666,12.023-28.424,28.252-28.947c16.207-0.523,30.51,11.352,33.032,26.905l44.928-1.497l-7.939-91.299
									C988.658,1514.026,975.449,1502.421,960.423,1502.854z"/>
								<polygon style="fill:#FFFFFF;" points="905.243,1533.859 900.868,1542.723 742.976,1462.149 747.409,1453.252 								"/>
								<polygon style="fill:#FFFFFF;" points="967.318,1532.003 962.966,1540.845 805.802,1460.453 810.212,1451.578 								"/>
							</g>
							<polygon style="fill:#FFFFFF;" points="1359.02,1521.877 1041.379,1531.397 1038.699,1500.601 1356.361,1491.458 							"/>
							<polygon style="fill:#FFFFFF;" points="1364.103,1580.041 1046.503,1590.282 1043.823,1559.482 1361.444,1549.618 							"/>
						</g>
						<g>
							<defs>
								<polygon id="SVGID_00000036248035750277674390000003512091664933892789_" points="1578.664,3020.477 700.698,3098.758 
									586.354,1776.025 1466.776,1741.94 								"/>
							</defs>
							<clipPath id="SVGID_00000129906678350547249680000005528664673199181725_">
								<use xlink:href="#SVGID_00000036248035750277674390000003512091664933892789_"  style="overflow:visible;"/>
							</clipPath>
							<g style="clip-path:url(#SVGID_00000129906678350547249680000005528664673199181725_);">
								<path style="fill:#FFFFFF;" d="M1588.04,3156.675c-7.544,0.001-15.081-2.918-20.775-8.736l-447.55-457.278
									c-4.709-4.81-7.601-11.105-8.183-17.811l-49.303-566.558l-421.441-364.214c-12.146-10.497-13.482-28.853-2.986-40.999
									c10.495-12.147,28.854-13.483,41-2.986l430.369,371.93c5.726,4.948,9.296,11.934,9.95,19.473l49.423,567.943
									l440.268,449.838c11.229,11.473,11.031,29.876-0.443,41.105C1602.714,3153.917,1595.373,3156.675,1588.04,3156.675z"/>
								<path style="fill:#FFFFFF;" d="M574.603,2310.304c-15.287,0-28.099-11.934-28.992-27.391
									c-0.927-16.026,11.314-29.77,27.341-30.696l494.423-28.582l443.295-296.369c13.346-8.923,31.398-5.337,40.32,8.009
									c8.922,13.346,5.337,31.397-8.01,40.319l-449.872,300.767c-4.306,2.88-9.306,4.556-14.477,4.855l-502.323,29.039
									C575.737,2310.288,575.167,2310.304,574.603,2310.304z"/>
								<path style="fill:#FFFFFF;" d="M877.375,2861.008c-10.54,0-19.495-8.067-20.42-18.748l-48.832-563.337
									c-0.979-11.289,7.38-21.234,18.67-22.213c11.338-0.981,21.234,7.381,22.213,18.67l47.072,543.032l892.811-71.318
									c11.286-0.904,21.184,7.523,22.086,18.819s-7.524,21.184-18.82,22.087l-913.126,72.941
									C878.476,2860.986,877.923,2861.008,877.375,2861.008z"/>
								<path style="fill:#FFFFFF;" d="M1096.051,3135.698c-1.989,0-4.004-0.497-5.859-1.542c-5.761-3.242-7.801-10.541-4.558-16.3
									l378.343-672.082c-2.112-20.24-12.265-118.025-21.625-215.463c-13.42-139.677-17.469-193.953-17.427-216.393
									c-27.147-0.24-107.264,5.216-180.245,11.546c-6.607,0.581-12.383-4.302-12.959-10.884l-9.867-113.149l-323.529,14.257
									c-6.616,0.27-12.193-4.827-12.485-11.43c-0.291-6.604,4.826-12.193,11.43-12.484l334.984-14.762
									c6.502-0.309,11.896,4.532,12.451,10.917l9.827,112.679c17.222-1.438,50.664-4.159,84.003-6.462
									c104.023-7.189,105.341-4.612,109.689,3.929c1.621,3.184,1.758,6.819,0.521,10.045
									c-2.114,25.558,22.918,281.405,39.437,438.954c0.259,2.469-0.257,4.957-1.474,7.119l-380.213,675.405
									C1104.295,3133.501,1100.234,3135.697,1096.051,3135.698z M1446.475,2011.894c-0.007,0.006-0.012,0.012-0.017,0.018
									C1446.464,2011.906,1446.469,2011.9,1446.475,2011.894z M1446.484,2011.883c0,0.001-0.002,0.002-0.002,0.002
									C1446.482,2011.885,1446.484,2011.884,1446.484,2011.883z"/>
								
									<linearGradient id="SVGID_00000137852536486284764660000015973200968885227670_" gradientUnits="userSpaceOnUse" x1="1125.6566" y1="2843.2134" x2="1593.1674" y2="2843.2134">
									<stop  offset="0" style="stop-color:#AA80F9"/>
									<stop  offset="0.9964" style="stop-color:#6165D7"/>
								</linearGradient>
								<path style="fill:url(#SVGID_00000137852536486284764660000015973200968885227670_);" d="M1588.038,3132.737
									c-1.331,0-2.662-0.515-3.665-1.541l-447.549-457.278c-0.832-0.849-1.343-1.96-1.444-3.143l-9.703-111.51
									c-0.245-2.823,1.842-5.31,4.665-5.555c2.765-0.242,5.308,1.842,5.554,4.665l9.544,109.68l446.264,455.965
									c1.982,2.026,1.947,5.273-0.077,7.254C1590.628,3132.25,1589.332,3132.737,1588.038,3132.737z"/>
								
									<linearGradient id="SVGID_00000033361347481413450160000000007337594208213158_" gradientUnits="userSpaceOnUse" x1="654.6648" y1="2133.7349" x2="1134.9198" y2="2133.7349">
									<stop  offset="0" style="stop-color:#AA80F9"/>
									<stop  offset="0.9964" style="stop-color:#6165D7"/>
								</linearGradient>
								<path style="fill:url(#SVGID_00000033361347481413450160000000007337594208213158_);" d="M1129.784,2552.514
									c-2.631,0-4.871-2.014-5.103-4.685l-3.558-40.882c-0.247-2.823,1.842-5.31,4.665-5.555c2.827-0.25,5.31,1.844,5.554,4.665
									l3.558,40.882c0.247,2.823-1.842,5.31-4.665,5.555C1130.084,2552.508,1129.934,2552.514,1129.784,2552.514z
									 M1122.669,2470.75c-2.632,0-4.871-2.014-5.103-4.685l-3.558-40.882c-0.247-2.823,1.842-5.31,4.665-5.555
									c2.815-0.253,5.308,1.844,5.554,4.665l3.558,40.882c0.247,2.823-1.842,5.31-4.665,5.555
									C1122.969,2470.745,1122.819,2470.75,1122.669,2470.75z M1115.554,2388.988c-2.632,0-4.871-2.014-5.103-4.685l-3.558-40.882
									c-0.247-2.823,1.842-5.31,4.665-5.555c2.804-0.242,5.308,1.844,5.554,4.665l3.558,40.882
									c0.247,2.823-1.842,5.31-4.665,5.555C1115.855,2388.982,1115.704,2388.988,1115.554,2388.988z M1108.439,2307.224
									c-2.632,0-4.871-2.014-5.103-4.685l-3.558-40.882c-0.247-2.823,1.842-5.31,4.665-5.555c2.824-0.246,5.31,1.844,5.554,4.665
									l3.558,40.882c0.247,2.823-1.842,5.31-4.665,5.555C1108.74,2307.219,1108.589,2307.224,1108.439,2307.224z
									 M1101.324,2225.461c-2.633,0-4.872-2.014-5.104-4.685l-3.557-40.882c-0.245-2.822,1.843-5.309,4.665-5.555
									c2.812-0.249,5.308,1.844,5.554,4.666l3.557,40.882c0.245,2.822-1.843,5.309-4.665,5.554
									C1101.623,2225.455,1101.473,2225.461,1101.324,2225.461z M1094.209,2143.697c-2.633,0-4.872-2.014-5.104-4.685
									l-3.557-40.882c-0.245-2.822,1.844-5.309,4.665-5.554c2.83-0.253,5.308,1.844,5.554,4.666l3.557,40.882
									c0.246,2.822-1.843,5.309-4.665,5.554C1094.508,2143.691,1094.358,2143.697,1094.209,2143.697z M1063.421,2074.035
									c-1.189,0-2.383-0.411-3.353-1.248l-31.048-26.832c-2.142-1.853-2.379-5.092-0.526-7.235
									c1.852-2.145,5.089-2.378,7.235-0.528l31.048,26.832c2.142,1.853,2.379,5.092,0.526,7.235
									C1066.289,2073.433,1064.858,2074.035,1063.421,2074.035z M1001.324,2020.37c-1.189,0-2.383-0.411-3.353-1.248
									l-31.048-26.832c-2.142-1.853-2.38-5.092-0.526-7.235c1.852-2.145,5.091-2.378,7.235-0.528l31.048,26.832
									c2.142,1.853,2.38,5.092,0.526,7.235C1004.192,2019.768,1002.761,2020.37,1001.324,2020.37z M939.228,1966.705
									c-1.189,0-2.383-0.411-3.353-1.248l-31.049-26.832c-2.142-1.853-2.379-5.092-0.526-7.235
									c1.852-2.145,5.091-2.378,7.235-0.528l31.049,26.832c2.142,1.853,2.38,5.092,0.526,7.235
									C942.097,1966.103,940.666,1966.705,939.228,1966.705z M877.131,1913.041c-1.189,0-2.383-0.411-3.353-1.248l-31.049-26.832
									c-2.142-1.853-2.379-5.092-0.526-7.235c1.85-2.145,5.093-2.378,7.235-0.528l31.049,26.832
									c2.142,1.853,2.379,5.092,0.526,7.235C880,1912.439,878.569,1913.041,877.131,1913.041z M815.034,1859.376
									c-1.189,0-2.383-0.411-3.353-1.248l-31.048-26.832c-2.142-1.853-2.379-5.092-0.526-7.235
									c1.852-2.144,5.091-2.378,7.235-0.528l31.048,26.833c2.142,1.852,2.379,5.091,0.526,7.234
									C817.903,1858.774,816.472,1859.376,815.034,1859.376z M752.937,1805.711c-1.189,0-2.383-0.411-3.353-1.249l-31.048-26.831
									c-2.142-1.853-2.379-5.092-0.526-7.235c1.852-2.145,5.091-2.378,7.235-0.528l31.048,26.832
									c2.142,1.853,2.379,5.092,0.526,7.235C755.806,1805.109,754.375,1805.711,752.937,1805.711z M690.84,1752.047
									c-1.189,0-2.383-0.411-3.353-1.248l-31.048-26.832c-2.142-1.853-2.379-5.092-0.526-7.235
									c1.853-2.145,5.093-2.377,7.235-0.528l31.048,26.832c2.142,1.853,2.379,5.092,0.526,7.235
									C693.709,1751.445,692.278,1752.047,690.84,1752.047z"/>
							</g>
						</g>
					</g>
				</g>
			</g>
			<g style="opacity:0.48;">
				<path style="fill:#FFFFFF;" d="M1245.668,2481.315c-81.267-283.932-318.208-255.541-389.067-512.106
					c-58.197-210.716,75.993-321.797-5.406-498.211c-38.284-82.969-105.351-139.071-174.9-177.411l-109.011,2.083
					c-25.514,0.488-44.678,22.018-42.545,47.854l144.585,1750.147c2.191,26.512,25.053,46.268,50.754,43.897l687.31-63.43
					c-43.947-55.751-85.647-123.983-114.589-205.938C1231.538,2694.723,1290.606,2638.329,1245.668,2481.315z"/>
			</g>
		</g>
		<g>
			<g>
				
					<linearGradient id="SVGID_00000170983173219367540270000006429000838135341481_" gradientUnits="userSpaceOnUse" x1="1101.5569" y1="2105.749" x2="1273.2584" y2="2548.0098">
					<stop  offset="0" style="stop-color:#AA80F9"/>
					<stop  offset="0.9964" style="stop-color:#6165D7"/>
				</linearGradient>
				<path style="fill:url(#SVGID_00000170983173219367540270000006429000838135341481_);" d="M1294.047,2167.648
					c0,72.855-102.067,205.8-148.257,262.235c-11.494,14.044-32.982,14.044-44.476,0
					c-46.191-56.434-148.257-189.379-148.257-262.235c0-94.162,76.333-170.496,170.495-170.496
					C1217.714,1997.152,1294.047,2073.486,1294.047,2167.648z"/>
				
					<ellipse transform="matrix(0.7071 -0.7071 0.7071 0.7071 -1203.6779 1429.3604)" style="fill:#FFFFFF;" cx="1123.552" cy="2167.648" rx="95.088" ry="95.088"/>
				<g style="opacity:0.3;">
					
						<linearGradient id="SVGID_00000083079311751928529300000014935966902601805219_" gradientUnits="userSpaceOnUse" x1="1040.0768" y1="2129.6177" x2="1211.7787" y2="2571.8794">
						<stop  offset="0" style="stop-color:#AA80F9"/>
						<stop  offset="0.9964" style="stop-color:#6165D7"/>
					</linearGradient>
					<path style="fill:url(#SVGID_00000083079311751928529300000014935966902601805219_);" d="M1122.799,2359.88
						c10.817-71.235,57.858-94.036,49.784-161.3c-9.312-77.573-77.997-98.233-79.654-167.274
						c-0.267-11.115,1.245-21.833,4.097-32.097c-81.563,12.742-143.969,83.299-143.969,168.438
						c0,72.855,102.067,205.8,148.257,262.235c6.766,8.266,16.993,11.661,26.607,10.197
						C1119.655,2408.878,1119.404,2382.235,1122.799,2359.88z"/>
				</g>
			</g>
			
				<linearGradient id="SVGID_00000180348682830811902710000003626997319452385197_" gradientUnits="userSpaceOnUse" x1="1168.2402" y1="2445.0002" x2="1056.7246" y2="2614.2649">
				<stop  offset="0" style="stop-color:#AA80F9"/>
				<stop  offset="0.9964" style="stop-color:#6165D7"/>
			</linearGradient>
			
				<circle style="fill:url(#SVGID_00000180348682830811902710000003626997319452385197_);" cx="1123.552" cy="2512.831" r="34.849"/>
		</g>
		
			<linearGradient id="SVGID_00000167397009617339963440000002342270764728706734_" gradientUnits="userSpaceOnUse" x1="1697.5074" y1="3098.98" x2="2102.136" y2="3098.98">
			<stop  offset="0" style="stop-color:#AA80F9"/>
			<stop  offset="0.9964" style="stop-color:#6165D7"/>
		</linearGradient>
		
			<ellipse style="fill:url(#SVGID_00000167397009617339963440000002342270764728706734_);" cx="1899.822" cy="3098.98" rx="202.314" ry="105.076"/>
		<g>
			<g>
				
					<linearGradient id="SVGID_00000065042789848366870300000005576882374596602025_" gradientUnits="userSpaceOnUse" x1="1467.6675" y1="1720.8821" x2="1434.1334" y2="1775.1284" gradientTransform="matrix(1 0 0 1 -131.3984 0)">
					<stop  offset="0" style="stop-color:#FFC444"/>
					<stop  offset="0.9964" style="stop-color:#F36F56"/>
				</linearGradient>
				<path style="fill:url(#SVGID_00000065042789848366870300000005576882374596602025_);" d="M1334.511,1776.238
					c3.405-5.276,9.617-16.504,10.013-31.583c0.773-29.301-20.96-52.153-23.88-50.842c-1.574,0.708,0.423,9.292,1.541,13.096
					c2.328,7.922,4.832,8.687,4.621,12.325c-0.431,7.49-11.243,7.779-16.947,17.718c-4.106,7.158-4.434,17.353,0,25.421
					C1317.219,1775.758,1333.811,1776.23,1334.511,1776.238z"/>
				
					<linearGradient id="SVGID_00000011008378861542960500000008709361284846847404_" gradientUnits="userSpaceOnUse" x1="1945.3208" y1="2362.928" x2="1958.8624" y2="2390.7742" gradientTransform="matrix(1 0 0 1 -131.3984 0)">
					<stop  offset="0" style="stop-color:#FFC444"/>
					<stop  offset="0.9964" style="stop-color:#F36F56"/>
				</linearGradient>
				<polygon style="fill:url(#SVGID_00000011008378861542960500000008709361284846847404_);" points="1798.722,2412.641 
					1790.369,2383.898 1825.242,2358.057 1846.977,2349.93 1834.108,2390.146 				"/>
				
					<linearGradient id="SVGID_00000101095045783215311900000013139744730236235159_" gradientUnits="userSpaceOnUse" x1="661.2827" y1="3072.0408" x2="661.2827" y2="2984.6833" gradientTransform="matrix(1 0 0 1 1118.1646 0)">
					<stop  offset="0" style="stop-color:#FFC444"/>
					<stop  offset="0.9964" style="stop-color:#F36F56"/>
				</linearGradient>
				<path style="fill:url(#SVGID_00000101095045783215311900000013139744730236235159_);" d="M1755.555,2991.533
					c0,0,19.075,47.984,14.055,69.265c20.478-0.401,33.729-3.011,33.729-3.011s-8.231-21.885-9.837-32.725
					c-2.171-14.647-2.008-38.347-2.008-38.347L1755.555,2991.533z"/>
				<path style="fill:#26264F;" d="M1545.301,3103.763c1.234,1.489,3.422,4.599,3.606,8.815c0.1,2.29-0.423,4.174-1.082,5.906
					c-3.253,8.558-8.361,9.687-13.872,18.768c-3.367,5.549-2.732,7.221-5.818,9.726c-4.067,3.302-8.986,3.49-13.251,3.539
					c-7.206,0.084-17.58-0.174-30.642-1.731c6.846-8.823,14.125-17.785,21.867-26.834c3.395-3.968,6.785-7.844,10.165-11.627
					l20.126-6.801C1539.367,3103.604,1542.335,3103.684,1545.301,3103.763z"/>
				
					<linearGradient id="SVGID_00000158719534167541045180000011084773435610924720_" gradientUnits="userSpaceOnUse" x1="395.0151" y1="3096.937" x2="395.0151" y2="2991.6567" gradientTransform="matrix(1 0 0 1 1118.1646 0)">
					<stop  offset="0" style="stop-color:#FFC444"/>
					<stop  offset="0.9964" style="stop-color:#F36F56"/>
				</linearGradient>
				<path style="fill:url(#SVGID_00000158719534167541045180000011084773435610924720_);" d="M1528.564,3006.048
					c0,0-11.505,60.026,3.135,76.835c12.47,16.808-6.023,4.817-6.023,4.817l-22.085,19.275l-13.25,22.888
					c0,0,12.197-58.751,8.944-82.066c-3.253-23.314-4.88-39.038-4.88-39.038L1528.564,3006.048z"/>
				
					<linearGradient id="SVGID_00000137124883724999746070000010295502338078381696_" gradientUnits="userSpaceOnUse" x1="336.1176" y1="2683.3792" x2="680.5573" y2="2683.3792" gradientTransform="matrix(1 0 0 1 1118.1646 0)">
					<stop  offset="0" style="stop-color:#311944"/>
					<stop  offset="1" style="stop-color:#893976"/>
				</linearGradient>
				<path style="fill:url(#SVGID_00000137124883724999746070000010295502338078381696_);" d="M1485.188,2349.445
					c0,0-30.906,27.652-30.906,141.513c0,113.862,14.64,361.105,14.64,361.105l23.425,177.013c0,0,24.29,0.865,40.556-4.014
					c14.639-66.691,38.495-179.504,27.107-273.847c-4.879-102.476,40.665-230.977,40.665-230.977s39.038,130.128,66.691,195.192
					c27.652,65.063,80.298,268.892,85.177,283.532c32.357,2.932,46.177-5.623,46.177-5.623s-20.747-219.353-40.265-302.309
					c-19.52-82.957-17.893-283.028-50.426-339.959C1634.835,2321.792,1485.188,2349.445,1485.188,2349.445z"/>
				
					<linearGradient id="SVGID_00000098194484093170839750000012585802478436354970_" gradientUnits="userSpaceOnUse" x1="325.1708" y1="2426.6184" x2="573.3206" y2="2843.4143" gradientTransform="matrix(1 0 0 1 1118.1646 0)">
					<stop  offset="0" style="stop-color:#311944"/>
					<stop  offset="1" style="stop-color:#893976"/>
				</linearGradient>
				<path style="fill:url(#SVGID_00000098194484093170839750000012585802478436354970_);" d="M1485.189,2349.445
					c0,0-30.907,27.652-30.907,141.513c0,113.862,14.641,361.105,14.641,361.105l23.425,177.013c0,0,24.29,0.865,40.556-4.014
					c14.64-66.691,38.495-179.504,27.109-273.847c-4.88-102.476,40.664-230.977,40.664-230.977s39.038,130.128,66.691,195.192
					c27.652,65.063,80.299,268.893,85.178,283.532c32.356,2.932,46.177-5.623,46.177-5.623s-20.748-219.353-40.265-302.309
					c-19.52-82.957-17.893-283.028-50.425-339.96C1634.836,2321.792,1485.189,2349.445,1485.189,2349.445z"/>
				
					<linearGradient id="SVGID_00000031190594100104659390000014071090791063589270_" gradientUnits="userSpaceOnUse" x1="422.8606" y1="2368.4563" x2="671.0103" y2="2785.2522" gradientTransform="matrix(1 0 0 1 1118.1646 0)">
					<stop  offset="0" style="stop-color:#311944"/>
					<stop  offset="1" style="stop-color:#893976"/>
				</linearGradient>
				<path style="opacity:0.25;fill:url(#SVGID_00000031190594100104659390000014071090791063589270_);" d="M1645.735,2558.073
					c9.637,62.64,28.91,96.371,77.095,139.736c38.547,28.91,9.637,91.551,24.093,139.735c4.818,14.455,19.274,28.91,24.092,43.366
					c17.93,35.861,1.183,79.727,9.313,117.697c12.651-1.747,18.393-5.267,18.393-5.267s-20.748-219.353-40.265-302.309
					c-19.52-82.957-17.893-283.028-50.425-339.96c-73.196-29.278-222.843-1.625-222.843-1.625s-30.907,27.652-30.907,141.513
					c0,9.239,0.099,19.366,0.276,30.157c32.085,28.395,97.705,34.704,138.176,3.229c2.445-1.834,5.046-2.958,7.734-3.505
					c0.124-0.36,0.21-0.603,0.21-0.603s0.067,0.225,0.17,0.563C1619.265,2517.44,1641.557,2541.358,1645.735,2558.073z"/>
				<g>
					<path style="fill:#26264F;" d="M1764.593,3079.007c0,0-4.753,0-4.358,6.141c0.397,6.139-2.139,27.262,22.024,28.252
						c24.164,0.99,27.891-1.711,28.683-1.711c0.792,0-6.338-20.204-6.338-20.204l-7.725-9.903l-20.798-2.178L1764.593,3079.007z"/>
					<path style="fill:#444B8C;" d="M1818.172,3100.208c-0.515-5.1-3.369-13.129-6.24-19.59c-4.267-9.599-0.764-13.19-4.842-21.932
						c-1.409-3.023-2.78-5.889-5.758-8.73c-0.686-0.653-7.354-6.815-17.063-6.502c-1.911,0.062-4.853,0.191-8.034,1.885
						c-3.746,1.997-5.624,4.996-7.227,7.63c-2.52,4.138-1.941,5.407-5.822,17.266c-0.313,0.951-0.995,3.021-1.521,5.876
						c-0.403,2.185-0.565,4.02-0.637,5.274c6.338,0,30.702,0.99,35.85,4.754c5.151,3.763,7.725,10.102,7.725,16.441
						c0,6.338,3.169,9.308,6.338,9.111C1813.773,3111.512,1819.398,3106.269,1818.172,3100.208z"/>
				</g>
				<path style="fill:#444B8C;" d="M1525.475,3074.451c5.443,0.085,9.437,4.417,12.447,14.856
					c3.012,10.44,17.467,19.676,0.604,17.468c-16.865-2.208-29.113,21.682-35.135,30.518c-6.024,8.834-22.192,16.682-21.791,8.049
					c0.401-8.633,7.536-12.668,9.543-21.501C1493.151,3115.006,1513.059,3074.256,1525.475,3074.451z"/>
				
					<linearGradient id="SVGID_00000062186770952101464810000004183616393478832266_" gradientUnits="userSpaceOnUse" x1="456.782" y1="-3476.3682" x2="719.5862" y2="-2935.9536" gradientTransform="matrix(-0.9906 -0.1367 0.1367 -0.9906 2659.9219 -1269.0822)">
					<stop  offset="0" style="stop-color:#AA80F9"/>
					<stop  offset="0.9964" style="stop-color:#6165D7"/>
				</linearGradient>
				<path style="fill:url(#SVGID_00000062186770952101464810000004183616393478832266_);" d="M1811.52,2363.188
					c4.002-11.126,28.979-84.215-11.39-150.87c-33.048-54.566-90.232-72.368-98.386-74.776
					c-49.635-14.658-74.512,4.173-90.173-13.158c-26.575-29.41,3.529-129.588,61.758-149.655
					c65.637-22.619,144.378,64.355,176.287,121.481c41.861,74.947,31.557,149.435,29.135,164.776
					c-6.294,39.866-20.928,70.274-31.773,88.944C1835.159,2354.349,1823.339,2358.769,1811.52,2363.188z"/>
				
					<linearGradient id="SVGID_00000105398153326228350100000014926306649853581998_" gradientUnits="userSpaceOnUse" x1="1620.3013" y1="1978.9205" x2="1886.4644" y2="2526.2424" gradientTransform="matrix(1 0 0 1 -131.3984 0)">
					<stop  offset="0" style="stop-color:#AA80F9"/>
					<stop  offset="0.9964" style="stop-color:#6165D7"/>
				</linearGradient>
				<path style="fill:url(#SVGID_00000105398153326228350100000014926306649853581998_);" d="M1640.115,1960.586
					c-58.589-2.343-103.772-1.414-129.296,24.092c-26.959,26.94,0.285,57.354-5.569,127.826
					c-8.961,107.889-77.712,134.249-82.885,243.705c-1.744,36.88,4.496,67.023,9.344,85.177
					c15.089,18.791,39.785,45.309,76.231,67.482c53.036,32.268,83.792,26.642,159.96,47.488
					c124.588,34.098,135.672,74.704,197.45,64.359c62.436-10.456,117.214-62.999,110.597-91.852
					c-3.963-17.28-29.132-12.385-58.11-38.74c-37.348-33.966-22.945-66.389-51.339-102.89
					c-40.786-52.429-97.608-20.378-132.365-65.817c-35.158-45.965-21.212-136.539,8.423-185.91
					c19.357-32.247,27.646-70.036,44.118-103.847c1.369-2.809,2.957-7.416,2.258-13.174c-2.674-22.02-39.38-33.965-67.181-42.727
					C1679.349,1962.392,1644.933,1960.777,1640.115,1960.586z"/>
				
					<linearGradient id="SVGID_00000053542978680593610100000013869494940518579110_" gradientUnits="userSpaceOnUse" x1="486.6566" y1="1910.4384" x2="537.5217" y2="1991.285" gradientTransform="matrix(1 0 0 1 1118.1646 0)">
					<stop  offset="0.0036" style="stop-color:#E38DDD"/>
					<stop  offset="1" style="stop-color:#9571F6"/>
				</linearGradient>
				<path style="fill:url(#SVGID_00000053542978680593610100000013869494940518579110_);" d="M1590.765,1958.163l11.555-3.555
					c0,0,3.022,15.644,40.176,17.599c20.621,0,33.954-11.555,33.954-11.555l7.895,5.755c0,0-17.322,21.639-44.871,21.087
					C1603.92,1986.785,1590.765,1958.163,1590.765,1958.163z"/>
				<g>
					
						<linearGradient id="SVGID_00000152246344099693623520000000886035673514673842_" gradientUnits="userSpaceOnUse" x1="548.064" y1="1898.0359" x2="492.1633" y2="1988.4634" gradientTransform="matrix(1 0 0 1 1118.1646 0)">
						<stop  offset="0" style="stop-color:#FFC444"/>
						<stop  offset="0.9964" style="stop-color:#F36F56"/>
					</linearGradient>
					<path style="fill:url(#SVGID_00000152246344099693623520000000886035673514673842_);" d="M1614.294,1910.575
						c2.227-17.182,15.81-28.19,18.773-30.547c12.41-9.863,14.936-10.856,19.198-11.666l5.82-0.882c0,0,0.314,0.007,0.636,0.027
						c3.407,0.206,13.619,4.193,15.477,5.497c5.932,4.172,1.564,33.712-16.418,70.452c-0.707,3.111-1.414,6.223-2.122,9.333
						c15.673,2.754,19.554,5.582,19.678,7.84c0.267,4.891-16.892,11.129-32.797,11.535c-19.944,0.509-41.12-8.072-40.714-14.476
						c0.164-2.592,3.926-5.79,18.407-8.93c2.264-3.182,4.525-6.364,6.789-9.545
						C1624.968,1936.722,1612.654,1923.233,1614.294,1910.575z"/>
					
						<linearGradient id="SVGID_00000104675894093956729370000015960797485621841807_" gradientUnits="userSpaceOnUse" x1="-58.0722" y1="1267.4746" x2="-112.1679" y2="1354.9824" gradientTransform="matrix(0.9717 -0.2361 0.2361 0.9717 1403.3766 640.4756)">
						<stop  offset="0" style="stop-color:#FFC444"/>
						<stop  offset="0.9964" style="stop-color:#F36F56"/>
					</linearGradient>
					<path style="fill:url(#SVGID_00000104675894093956729370000015960797485621841807_);" d="M1638.948,1904.106
						c4.523-2.707,7.969,3.112,5.838,8.198c-2.13,5.086-9.291,8.269-13.634,5.235
						C1626.809,1914.508,1632.86,1907.748,1638.948,1904.106z"/>
					
						<linearGradient id="SVGID_00000117640890803574139260000010491887103040288407_" gradientUnits="userSpaceOnUse" x1="1773.6964" y1="1581.8428" x2="2097.3635" y2="2096.2893" gradientTransform="matrix(1 0 0 1 -131.3984 0)">
						<stop  offset="0" style="stop-color:#FF9085"/>
						<stop  offset="1" style="stop-color:#FB6FBB"/>
					</linearGradient>
					<path style="fill:url(#SVGID_00000117640890803574139260000010491887103040288407_);" d="M1648.45,1907.865
						c17.585,35.203-9.557,64.046-9.095,100.496c0.808,63.723,85.852,140.726,171.01,139.332c58.446-0.956,97.823-38.336,140-79.13
						c31.27-30.245,96.605-93.436,104.698-192.349c2.711-33.127,8.915-108.948-43.827-154.611
						c-59.409-51.436-165.619-40.37-194.785,4.87c-25.202,39.093,19.131,85.078-12.175,126.609
						c-20.674,27.426-65.763,41.539-91.305,28c-16.658-8.829-15.251-24.251-34.086-31.652c-22.826-8.968-54.698,1.971-58.436,17.043
						C1617.299,1879.181,1637.297,1885.542,1648.45,1907.865z"/>
				</g>
				
					<linearGradient id="SVGID_00000148660648775550811230000008756867730969862303_" gradientUnits="userSpaceOnUse" x1="1590.6799" y1="1991.6807" x2="1852.459" y2="2529.9873" gradientTransform="matrix(1 0 0 1 -131.3984 0)">
					<stop  offset="0" style="stop-color:#AA80F9"/>
					<stop  offset="0.9964" style="stop-color:#6165D7"/>
				</linearGradient>
				<path style="fill:url(#SVGID_00000148660648775550811230000008756867730969862303_);" d="M1341.629,1772.135
					c-1.502,14.096-6.583,76.451,36.427,129.101c40.19,49.195,97.106,59.022,107.685,60.62c51.174,7.733,73.243-14.322,91.126,0.706
					c30.347,25.501,14.223,128.854-40.716,156.693c-61.927,31.381-151.821-44.01-191.24-96.237
					c-51.717-68.519-51.695-143.716-51.393-159.244c0.784-40.352,11.124-72.476,19.313-92.453c3.364-1.013,8.485-2.134,14.763-1.916
					C1333.577,1769.614,1338.406,1770.96,1341.629,1772.135z"/>
				
					<linearGradient id="SVGID_00000174568831296868030810000009765272536893702273_" gradientUnits="userSpaceOnUse" x1="1581.8629" y1="1997.6146" x2="1848.0253" y2="2544.9348" gradientTransform="matrix(1 0 0 1 -131.3984 0)">
					<stop  offset="0" style="stop-color:#AA80F9"/>
					<stop  offset="0.9964" style="stop-color:#6165D7"/>
				</linearGradient>
				<path style="opacity:0.4;fill:url(#SVGID_00000174568831296868030810000009765272536893702273_);" d="M1867.224,2579.474
					c-14.981-15.359,1.51-46.332-20.619-69.357c-20.538-21.371-43.792-4.106-76.855-22.494
					c-42.409-23.585-30.723-66.765-71.232-89.978c-29.131-16.694-42.819,1.254-88.103-7.499
					c-45.208-8.737-100.269-39.904-127.468-95.601c-11.557-23.666-15.817-47.193-16.382-68.223
					c-20.333,36.325-41.422,71.137-44.199,129.886c-1.744,36.88,4.496,67.023,9.344,85.176
					c15.089,18.791,39.785,45.31,76.231,67.482c53.036,32.268,83.792,26.642,159.96,47.488
					c124.588,34.098,135.672,74.704,197.45,64.359c39.903-6.682,76.591-30.554,96.211-54.447
					C1903.983,2591.898,1878.097,2590.621,1867.224,2579.474z"/>
			</g>
		</g>
	</g>
</g>
</svg>
