<svg width="12" height="12" viewBox="0 0 12 12" fill="none" xmlns="http://www.w3.org/2000/svg">
<path d="M8.49991 0.999911C9.16239 1.00189 9.79717 1.26594 10.2656 1.73438C10.7341 2.20283 10.9981 2.83761 11.0001 3.50009V8.49991C10.9981 9.16239 10.7341 9.79717 10.2656 10.2656C9.79717 10.7341 9.16239 10.9981 8.49991 11.0001H3.50009C2.83761 10.9981 2.20283 10.7341 1.73438 10.2656C1.26594 9.79717 1.00189 9.16239 0.999911 8.49991V3.50009C1.00189 2.83761 1.26594 2.20283 1.73438 1.73438C2.20283 1.26594 2.83761 1.00189 3.50009 0.999911H8.49991ZM8.49991 0H3.50009C1.575 0 0 1.575 0 3.50009V8.49991C0 10.425 1.575 12 3.50009 12H8.49991C10.425 12 12 10.425 12 8.49991V3.50009C12 1.575 10.425 0 8.49991 0Z" fill="white"/>
<path d="M9.24991 3.5C9.10157 3.5 8.95657 3.45601 8.83323 3.3736C8.70989 3.29119 8.61376 3.17406 8.557 3.03701C8.50023 2.89997 8.48538 2.74917 8.51432 2.60368C8.54326 2.4582 8.61469 2.32456 8.71958 2.21967C8.82447 2.11478 8.95811 2.04335 9.10359 2.01441C9.24908 1.98547 9.39988 2.00032 9.53692 2.05709C9.67397 2.11386 9.7911 2.20999 9.87351 2.33332C9.95592 2.45666 9.99991 2.60166 9.99991 2.75C10.0001 2.84855 9.98087 2.94617 9.94325 3.03726C9.90563 3.12835 9.8504 3.21112 9.78071 3.2808C9.71103 3.35049 9.62826 3.40573 9.53717 3.44334C9.44608 3.48096 9.34846 3.50021 9.24991 3.5Z" fill="white"/>
<path d="M6 3.99991C6.39558 3.99991 6.78228 4.11721 7.11119 4.33699C7.4401 4.55676 7.69646 4.86913 7.84784 5.2346C7.99923 5.60007 8.03883 6.00222 7.96166 6.3902C7.88449 6.77818 7.694 7.13456 7.41428 7.41428C7.13456 7.69399 6.77818 7.88448 6.3902 7.96166C6.00222 8.03883 5.60007 7.99922 5.2346 7.84784C4.86913 7.69646 4.55676 7.4401 4.33699 7.11119C4.11722 6.78228 3.99991 6.39558 3.99991 6C4.00048 5.46972 4.21138 4.96132 4.58635 4.58635C4.96132 4.21138 5.46972 4.00048 6 3.99991ZM6 3C5.40666 3 4.82664 3.17595 4.33329 3.50559C3.83994 3.83524 3.45543 4.30377 3.22836 4.85195C3.0013 5.40013 2.94189 6.00333 3.05765 6.58527C3.1734 7.16721 3.45912 7.70176 3.87868 8.12132C4.29824 8.54088 4.83279 8.8266 5.41473 8.94236C5.99667 9.05811 6.59987 8.9987 7.14805 8.77164C7.69623 8.54458 8.16477 8.16006 8.49441 7.66671C8.82405 7.17336 9 6.59334 9 6C9 5.20435 8.68393 4.44129 8.12132 3.87868C7.55871 3.31607 6.79565 3 6 3Z" fill="white"/>
</svg>
