<svg width="30" height="30" viewBox="0 0 30 30" fill="none" xmlns="http://www.w3.org/2000/svg">
<path d="M21.2498 2.49978C22.906 2.50472 24.4929 3.16484 25.664 4.33595C26.8352 5.50707 27.4953 7.09402 27.5002 8.75022V21.2498C27.4953 22.906 26.8352 24.4929 25.664 25.664C24.4929 26.8352 22.906 27.4953 21.2498 27.5002H8.75022C7.09402 27.4953 5.50707 26.8352 4.33595 25.664C3.16484 24.4929 2.50472 22.906 2.49978 21.2498V8.75022C2.50472 7.09402 3.16484 5.50707 4.33595 4.33595C5.50707 3.16484 7.09402 2.50472 8.75022 2.49978H21.2498ZM21.2498 0H8.75022C3.9375 0 0 3.9375 0 8.75022V21.2498C0 26.0625 3.9375 30 8.75022 30H21.2498C26.0625 30 30 26.0625 30 21.2498V8.75022C30 3.9375 26.0625 0 21.2498 0Z" fill="black"/>
<path d="M23.125 8.75C22.7542 8.75 22.3916 8.64003 22.0833 8.43401C21.775 8.22798 21.5346 7.93514 21.3927 7.59253C21.2508 7.24992 21.2137 6.87292 21.286 6.50921C21.3584 6.14549 21.537 5.8114 21.7992 5.54918C22.0614 5.28695 22.3955 5.10838 22.7592 5.03603C23.1229 4.96368 23.4999 5.00081 23.8425 5.14273C24.1851 5.28464 24.478 5.52496 24.684 5.83331C24.89 6.14165 25 6.50416 25 6.875C25.0005 7.12138 24.9524 7.36543 24.8584 7.59316C24.7643 7.82088 24.6262 8.02779 24.452 8.20201C24.2778 8.37622 24.0709 8.51431 23.8432 8.60835C23.6154 8.70239 23.3714 8.75053 23.125 8.75Z" fill="black"/>
<path d="M15 9.99978C15.989 9.99978 16.9557 10.293 17.778 10.8425C18.6003 11.3919 19.2412 12.1728 19.6196 13.0865C19.9981 14.0002 20.0971 15.0055 19.9041 15.9755C19.7112 16.9454 19.235 17.8364 18.5357 18.5357C17.8364 19.235 16.9454 19.7112 15.9755 19.9041C15.0055 20.0971 14.0002 19.9981 13.0865 19.6196C12.1728 19.2411 11.3919 18.6003 10.8425 17.778C10.293 16.9557 9.99978 15.989 9.99978 15C10.0012 13.6743 10.5285 12.4033 11.4659 11.4659C12.4033 10.5285 13.6743 10.0012 15 9.99978ZM15 7.5C13.5166 7.5 12.0666 7.93987 10.8332 8.76398C9.59986 9.58809 8.63856 10.7594 8.07091 12.1299C7.50325 13.5003 7.35472 15.0083 7.64411 16.4632C7.9335 17.918 8.64781 19.2544 9.6967 20.3033C10.7456 21.3522 12.082 22.0665 13.5368 22.3559C14.9917 22.6453 16.4997 22.4968 17.8701 21.9291C19.2406 21.3614 20.4119 20.4001 21.236 19.1668C22.0601 17.9334 22.5 16.4834 22.5 15C22.5 13.0109 21.7098 11.1032 20.3033 9.6967C18.8968 8.29018 16.9891 7.5 15 7.5Z" fill="black"/>
</svg>
