<svg width="13" height="22" viewBox="0 0 13 22" fill="none" xmlns="http://www.w3.org/2000/svg">
<path d="M12.3948 0.617323C12.7824 1.00834 13 1.53729 13 2.08864C13 2.63998 12.7824 3.16893 12.3948 3.55995L5.0276 11.0522L12.3948 18.44C12.7824 18.8311 13 19.36 13 19.9114C13 20.4627 12.7824 20.9917 12.3948 21.3827C12.2014 21.5783 11.9712 21.7335 11.7176 21.8395C11.464 21.9455 11.1919 22 10.9172 22C10.6425 22 10.3705 21.9455 10.1169 21.8395C9.86325 21.7335 9.63308 21.5783 9.43961 21.3827L0.615596 12.5339C0.420534 12.3399 0.265711 12.1091 0.160054 11.8548C0.0543977 11.6005 0 11.3277 0 11.0522C0 10.7767 0.0543977 10.5039 0.160054 10.2496C0.265711 9.99526 0.420534 9.76444 0.615596 9.57043L9.43961 0.617323C9.63308 0.421714 9.86325 0.266456 10.1169 0.160503C10.3705 0.0545507 10.6425 0 10.9172 0C11.1919 0 11.464 0.0545507 11.7176 0.160503C11.9712 0.266456 12.2014 0.421714 12.3948 0.617323Z" fill="#3D408A"/>
</svg>
