<svg width="370" height="299" viewBox="0 0 370 299" fill="none" xmlns="http://www.w3.org/2000/svg">
<g clip-path="url(#clip0_1276_2843)">
<rect width="370" height="298.295" rx="11.4729" fill="#FCD660"/>
<ellipse cx="301.845" cy="178.001" rx="130.094" ry="237.933" transform="rotate(37.7131 301.845 178.001)" fill="white"/>
<g filter="url(#filter0_d_1276_2843)">
<rect x="24.5" y="212.147" width="205.556" height="56" rx="28" fill="#3D408A" shape-rendering="crispEdges"/>
<rect x="24.978" y="212.625" width="204.599" height="55.0439" rx="27.522" stroke="black" stroke-width="0.956072" shape-rendering="crispEdges"/>
<path d="M81.3145 246.455H78.4388V234.962H74.312V232.45H85.4506V234.962H81.3145V246.455ZM89.4654 246.455H86.7858V237.118H89.1199L89.2133 238.734C89.5245 238.167 89.9478 237.725 90.4831 237.408C91.0184 237.09 91.6315 236.932 92.3224 236.932C92.5216 236.932 92.7208 236.947 92.9199 236.978C93.1253 237.003 93.3339 237.044 93.5455 237.1L93.2094 239.509C92.7986 239.39 92.4095 239.331 92.0423 239.331C91.5257 239.331 91.0713 239.449 90.6791 239.686C90.2932 239.916 89.9945 240.24 89.7828 240.657C89.5712 241.068 89.4654 241.55 89.4654 242.104V246.455ZM102.826 246.455H100.492L100.352 245.344C100.01 245.755 99.5863 246.075 99.0821 246.306C98.5779 246.53 98.024 246.642 97.4202 246.642C96.7666 246.642 96.1846 246.517 95.6742 246.268C95.1638 246.013 94.7624 245.665 94.4698 245.223C94.1773 244.774 94.031 244.267 94.031 243.701C94.031 243.103 94.1897 242.577 94.5072 242.123C94.8246 241.668 95.2603 241.314 95.8143 241.058C96.3745 240.797 97.0094 240.666 97.719 240.666C98.136 240.666 98.553 240.713 98.9701 240.806C99.3933 240.9 99.7855 241.03 100.146 241.199V240.956C100.146 240.582 100.041 240.262 99.829 239.994C99.6236 239.72 99.3373 239.509 98.9701 239.359C98.6091 239.21 98.2045 239.135 97.7563 239.135C97.3268 239.135 96.9005 239.204 96.4772 239.341C96.0602 239.477 95.6742 239.683 95.3195 239.957L94.5912 237.912C95.2199 237.588 95.8548 237.346 96.4959 237.184C97.1432 237.016 97.7688 236.932 98.3725 236.932C99.2813 236.932 100.069 237.112 100.735 237.473C101.401 237.828 101.914 238.332 102.275 238.986C102.642 239.633 102.826 240.402 102.826 241.292V246.455ZM98.0084 244.578C98.3632 244.578 98.7024 244.501 99.0261 244.345C99.3498 244.189 99.6112 243.978 99.8104 243.71C100.016 243.442 100.125 243.147 100.137 242.823V242.758C99.8633 242.571 99.5583 242.428 99.2222 242.328C98.8923 242.222 98.5562 242.17 98.2138 242.17C97.7034 242.17 97.2864 242.282 96.9627 242.506C96.639 242.73 96.4772 243.019 96.4772 243.374C96.4772 243.604 96.5426 243.813 96.6733 244C96.8102 244.18 96.9938 244.323 97.2241 244.429C97.4544 244.529 97.7159 244.578 98.0084 244.578ZM113.19 244.971C112.735 245.493 112.178 245.904 111.519 246.203C110.859 246.496 110.134 246.642 109.343 246.642C108.385 246.642 107.526 246.433 106.766 246.016C106.013 245.593 105.419 245.014 104.983 244.28C104.553 243.545 104.339 242.714 104.339 241.787C104.339 240.853 104.553 240.022 104.983 239.294C105.419 238.559 106.013 237.984 106.766 237.567C107.526 237.143 108.385 236.932 109.343 236.932C110.127 236.932 110.849 237.078 111.509 237.371C112.169 237.663 112.726 238.068 113.18 238.584L111.603 240.237C111.36 239.957 111.052 239.739 110.678 239.583C110.311 239.421 109.925 239.341 109.52 239.341C109.054 239.341 108.637 239.446 108.269 239.658C107.902 239.863 107.613 240.15 107.401 240.517C107.189 240.878 107.084 241.295 107.084 241.768C107.084 242.247 107.189 242.674 107.401 243.047C107.613 243.421 107.902 243.713 108.269 243.925C108.637 244.13 109.054 244.233 109.52 244.233C109.925 244.233 110.314 244.155 110.688 244C111.061 243.838 111.366 243.617 111.603 243.337L113.19 244.971ZM117.513 246.455H114.833V232.45H117.513V241.058L118.428 239.957L121.117 237.118H124.468L120.519 241.273L124.935 246.455H121.471L118.68 242.954L117.513 244.018V246.455ZM130.631 246.455V232.45H135.812C137.319 232.45 138.486 232.771 139.314 233.412C140.148 234.047 140.565 234.94 140.565 236.091C140.565 236.795 140.4 237.417 140.07 237.959C139.74 238.494 139.295 238.902 138.735 239.182C139.532 239.418 140.151 239.826 140.593 240.405C141.041 240.978 141.265 241.681 141.265 242.515C141.265 243.312 141.069 244.006 140.677 244.597C140.291 245.182 139.743 245.64 139.034 245.97C138.33 246.293 137.502 246.455 136.55 246.455H130.631ZM133.506 238.314H135.654C136.295 238.314 136.802 238.161 137.176 237.856C137.549 237.551 137.736 237.137 137.736 236.614C137.736 236.104 137.546 235.702 137.166 235.41C136.793 235.111 136.273 234.962 135.607 234.962H133.506V238.314ZM133.506 243.944H135.831C136.342 243.944 136.783 243.872 137.157 243.729C137.53 243.579 137.817 243.371 138.016 243.103C138.221 242.829 138.324 242.512 138.324 242.151C138.324 241.79 138.231 241.482 138.044 241.227C137.863 240.971 137.599 240.778 137.25 240.648C136.902 240.511 136.488 240.442 136.009 240.442H133.506V243.944ZM152.142 246.455H149.967L149.873 244.961C149.544 245.509 149.105 245.926 148.557 246.212C148.015 246.499 147.381 246.642 146.652 246.642C145.457 246.642 144.52 246.275 143.842 245.54C143.164 244.806 142.824 243.797 142.824 242.515V237.118H145.504V241.899C145.504 242.627 145.675 243.2 146.017 243.617C146.366 244.028 146.839 244.233 147.437 244.233C148.059 244.233 148.551 244.018 148.912 243.589C149.279 243.153 149.463 242.565 149.463 241.824V237.118H152.142V246.455ZM153.767 245.652L154.355 243.374C154.542 243.579 154.791 243.769 155.102 243.944C155.419 244.118 155.759 244.258 156.12 244.364C156.487 244.463 156.832 244.513 157.156 244.513C157.542 244.513 157.844 244.441 158.062 244.298C158.28 244.149 158.388 243.95 158.388 243.701C158.388 243.495 158.314 243.324 158.164 243.187C158.021 243.044 157.825 242.92 157.576 242.814C157.333 242.702 157.063 242.593 156.764 242.487C156.359 242.331 155.942 242.151 155.513 241.945C155.09 241.74 154.732 241.46 154.439 241.105C154.147 240.75 154 240.28 154 239.695C154 239.135 154.147 238.65 154.439 238.239C154.732 237.822 155.146 237.501 155.681 237.277C156.216 237.047 156.839 236.932 157.548 236.932C158.7 236.932 159.848 237.221 160.993 237.8L160.237 239.919C160.038 239.764 159.789 239.621 159.49 239.49C159.191 239.353 158.883 239.244 158.566 239.163C158.255 239.082 157.975 239.042 157.726 239.042C157.421 239.042 157.181 239.104 157.007 239.229C156.839 239.353 156.755 239.524 156.755 239.742C156.755 239.904 156.814 240.05 156.932 240.181C157.05 240.305 157.225 240.427 157.455 240.545C157.691 240.657 157.981 240.778 158.323 240.909C158.746 241.065 159.173 241.251 159.602 241.469C160.038 241.681 160.402 241.967 160.695 242.328C160.993 242.683 161.143 243.156 161.143 243.747C161.143 244.326 160.984 244.834 160.667 245.269C160.355 245.705 159.913 246.044 159.341 246.287C158.774 246.524 158.108 246.642 157.343 246.642C156.067 246.642 154.875 246.312 153.767 245.652ZM171.366 245.409C170.209 246.231 168.942 246.642 167.566 246.642C166.546 246.642 165.627 246.424 164.812 245.988C164.003 245.546 163.362 244.949 162.889 244.196C162.422 243.442 162.189 242.593 162.189 241.647C162.189 240.744 162.4 239.938 162.823 239.229C163.253 238.519 163.835 237.959 164.569 237.548C165.304 237.137 166.138 236.932 167.072 236.932C168.036 236.932 168.886 237.159 169.62 237.613C170.355 238.061 170.928 238.69 171.338 239.499C171.749 240.302 171.955 241.233 171.955 242.291V242.59H165.074C165.186 242.957 165.369 243.281 165.624 243.561C165.88 243.835 166.197 244.052 166.577 244.214C166.956 244.376 167.392 244.457 167.884 244.457C168.836 244.457 169.723 244.149 170.545 243.533L171.366 245.409ZM164.952 241.227H169.48C169.431 240.822 169.303 240.467 169.098 240.162C168.898 239.851 168.634 239.608 168.304 239.434C167.98 239.26 167.616 239.172 167.212 239.172C166.801 239.172 166.434 239.263 166.11 239.443C165.792 239.624 165.534 239.867 165.335 240.172C165.136 240.477 165.008 240.828 164.952 241.227ZM173 245.652L173.589 243.374C173.775 243.579 174.024 243.769 174.335 243.944C174.653 244.118 174.992 244.258 175.353 244.364C175.72 244.463 176.066 244.513 176.39 244.513C176.775 244.513 177.077 244.441 177.295 244.298C177.513 244.149 177.622 243.95 177.622 243.701C177.622 243.495 177.547 243.324 177.398 243.187C177.255 243.044 177.059 242.92 176.81 242.814C176.567 242.702 176.296 242.593 175.997 242.487C175.593 242.331 175.176 242.151 174.746 241.945C174.323 241.74 173.965 241.46 173.673 241.105C173.38 240.75 173.234 240.28 173.234 239.695C173.234 239.135 173.38 238.65 173.673 238.239C173.965 237.822 174.379 237.501 174.914 237.277C175.45 237.047 176.072 236.932 176.782 236.932C177.933 236.932 179.082 237.221 180.227 237.8L179.471 239.919C179.271 239.764 179.022 239.621 178.724 239.49C178.425 239.353 178.117 239.244 177.799 239.163C177.488 239.082 177.208 239.042 176.959 239.042C176.654 239.042 176.414 239.104 176.24 239.229C176.072 239.353 175.988 239.524 175.988 239.742C175.988 239.904 176.047 240.05 176.165 240.181C176.284 240.305 176.458 240.427 176.688 240.545C176.925 240.657 177.214 240.778 177.557 240.909C177.98 241.065 178.406 241.251 178.836 241.469C179.271 241.681 179.636 241.967 179.928 242.328C180.227 242.683 180.376 243.156 180.376 243.747C180.376 244.326 180.218 244.834 179.9 245.269C179.589 245.705 179.147 246.044 178.574 246.287C178.008 246.524 177.342 246.642 176.576 246.642C175.3 246.642 174.108 246.312 173 245.652Z" fill="white"/>
</g>
<path d="M409.154 214.933L402.528 195.153C400.56 189.257 396.79 184.128 391.75 180.491C386.71 176.853 380.655 174.89 374.44 174.878H284.241C278.026 174.89 271.971 176.853 266.931 180.491C261.892 184.128 258.122 189.257 256.153 195.153L249.527 214.933C248.039 219.389 247.631 224.135 248.336 228.779C249.04 233.424 250.838 237.835 253.58 241.649C256.323 245.464 259.932 248.572 264.11 250.719C268.289 252.866 272.917 253.99 277.615 253.999H381.066C385.764 253.99 390.393 252.866 394.571 250.719C398.749 248.572 402.358 245.464 405.101 241.649C407.843 237.835 409.641 233.424 410.345 228.779C411.05 224.135 410.642 219.389 409.154 214.933Z" fill="#DADDE2"/>
<path d="M381.561 89.9198C375.416 82.0389 367.46 75.7571 358.369 71.6075C349.278 67.458 339.32 65.5634 329.341 66.0845C319.361 65.5634 309.403 67.458 300.312 71.6075C291.221 75.7571 283.265 82.0389 277.121 89.9198C272.227 96.9008 269.073 104.95 267.92 113.397C266.768 121.844 267.65 130.444 270.494 138.48C280.978 169.931 320.637 209.887 322.319 211.569C323.243 212.485 324.339 213.211 325.544 213.703C326.749 214.195 328.039 214.444 329.341 214.437C331.887 214.427 334.331 213.435 336.165 211.668C337.846 210.085 376.912 172.107 388.187 138.48C391.031 130.444 391.914 121.844 390.761 113.397C389.608 104.95 386.454 96.9008 381.561 89.9198Z" fill="#F16A59"/>
<path d="M329.34 145.208C325.428 145.208 321.604 144.048 318.351 141.875C315.098 139.701 312.563 136.612 311.066 132.997C309.569 129.383 309.177 125.406 309.94 121.569C310.703 117.732 312.587 114.207 315.354 111.441C318.12 108.675 321.644 106.791 325.481 106.028C329.318 105.264 333.296 105.656 336.91 107.153C340.524 108.65 343.614 111.186 345.787 114.438C347.961 117.691 349.121 121.516 349.121 125.428C349.121 130.674 347.037 135.705 343.327 139.415C339.618 143.124 334.586 145.208 329.34 145.208Z" fill="white"/>
<path d="M50.3703 66.1221H27.9623V31.1097H34.1245V60.7068H50.3703V66.1221ZM64.1652 66.5889C61.7843 66.5889 59.6525 66.0598 57.7696 65.0017C55.9023 63.9435 54.424 62.5041 53.3347 60.6835C52.261 58.8473 51.7241 56.7699 51.7241 54.4513C51.7241 52.1327 52.261 50.063 53.3347 48.2424C54.424 46.4062 55.9023 44.959 57.7696 43.9009C59.6525 42.8427 61.7843 42.3136 64.1652 42.3136C66.5305 42.3136 68.6468 42.8427 70.5141 43.9009C72.3814 44.959 73.8442 46.4062 74.9023 48.2424C75.976 50.063 76.5129 52.1327 76.5129 54.4513C76.5129 56.7699 75.976 58.8473 74.9023 60.6835C73.8442 62.5041 72.3814 63.9435 70.5141 65.0017C68.6468 66.0598 66.5305 66.5889 64.1652 66.5889ZM64.1185 61.4304C65.3634 61.4304 66.476 61.127 67.4564 60.5201C68.4367 59.9132 69.207 59.0807 69.7672 58.0225C70.3429 56.9644 70.6308 55.7662 70.6308 54.4279C70.6308 53.1052 70.3429 51.9226 69.7672 50.88C69.207 49.8218 68.4367 48.9893 67.4564 48.3824C66.476 47.7756 65.3634 47.4721 64.1185 47.4721C62.8892 47.4721 61.7766 47.7756 60.7806 48.3824C59.8003 48.9893 59.0222 49.8218 58.4465 50.88C57.8863 51.9226 57.6062 53.1052 57.6062 54.4279C57.6062 55.7662 57.8863 56.9644 58.4465 58.0225C59.0222 59.0807 59.8003 59.9132 60.7806 60.5201C61.7766 61.127 62.8892 61.4304 64.1185 61.4304ZM101.395 62.5275C100.259 63.819 98.8819 64.8227 97.2636 65.5385C95.6452 66.2388 93.8791 66.5889 91.965 66.5889C89.5998 66.5889 87.4757 66.0598 85.5928 65.0017C83.7255 63.9435 82.2471 62.5041 81.1579 60.6835C80.0842 58.8473 79.5473 56.7699 79.5473 54.4513C79.5473 52.1327 80.0842 50.063 81.1579 48.2424C82.2471 46.4062 83.7255 44.959 85.5928 43.9009C87.4757 42.8427 89.5998 42.3136 91.965 42.3136C93.8635 42.3136 95.6141 42.6638 97.2169 43.364C98.8353 44.0642 100.212 45.0524 101.348 46.3284L97.9872 49.8997C97.2869 49.1372 96.4388 48.5458 95.4429 48.1257C94.4626 47.7055 93.42 47.4955 92.3152 47.4955C90.9769 47.4955 89.7865 47.7911 88.7439 48.3824C87.7169 48.9738 86.9077 49.7907 86.3164 50.8333C85.7406 51.8759 85.4527 53.0741 85.4527 54.4279C85.4527 55.7817 85.7406 56.9877 86.3164 58.0459C86.9077 59.0885 87.7169 59.9132 88.7439 60.5201C89.7865 61.1114 90.9769 61.4071 92.3152 61.4071C93.42 61.4071 94.4704 61.197 95.4663 60.7768C96.4622 60.3411 97.3025 59.7498 97.9872 59.0029L101.395 62.5275ZM126.09 66.1221H121.095L120.769 63.2511C119.913 64.3092 118.847 65.1339 117.571 65.7253C116.295 66.301 114.879 66.5889 113.323 66.5889C111.673 66.5889 110.203 66.2699 108.911 65.6319C107.619 64.9783 106.6 64.0914 105.853 62.971C105.122 61.8506 104.756 60.5745 104.756 59.1429C104.756 57.6335 105.153 56.3108 105.947 55.1749C106.756 54.0233 107.853 53.1208 109.238 52.4672C110.638 51.8137 112.233 51.4869 114.023 51.4869C115.112 51.4869 116.201 51.6114 117.291 51.8603C118.396 52.1093 119.415 52.4594 120.348 52.9107V52.1638C120.348 51.1368 120.068 50.2498 119.508 49.5028C118.948 48.7559 118.193 48.1802 117.244 47.7756C116.295 47.3554 115.229 47.1453 114.046 47.1453C112.972 47.1453 111.899 47.3321 110.825 47.7055C109.751 48.0634 108.748 48.6003 107.814 49.3161L106.18 44.8112C107.674 43.9864 109.199 43.364 110.755 42.9439C112.327 42.5237 113.859 42.3136 115.353 42.3136C117.547 42.3136 119.446 42.7493 121.049 43.6208C122.651 44.4766 123.889 45.7059 124.76 47.3087C125.647 48.896 126.09 50.7711 126.09 52.9341V66.1221ZM114.513 61.9673C115.525 61.9673 116.458 61.7572 117.314 61.337C118.185 60.9169 118.893 60.3334 119.438 59.5864C119.998 58.8239 120.294 57.9525 120.325 56.9722V56.7154C119.594 56.1863 118.769 55.7817 117.851 55.5016C116.933 55.206 116.007 55.0581 115.073 55.0581C113.642 55.0581 112.467 55.3849 111.549 56.0385C110.631 56.6765 110.172 57.5168 110.172 58.5594C110.172 59.1974 110.358 59.7809 110.732 60.31C111.105 60.8235 111.619 61.2281 112.272 61.5238C112.941 61.8194 113.688 61.9673 114.513 61.9673ZM146.514 65.5152C144.803 66.231 143.145 66.5889 141.543 66.5889C139.909 66.5889 138.469 66.2388 137.224 65.5385C135.995 64.8383 135.03 63.8657 134.33 62.6208C133.645 61.3604 133.303 59.8976 133.303 58.2326V47.9156H129.218V42.7805H133.606V36.9451H139.045V42.7805H145.697V47.9156H139.045V57.1822C139.045 58.5049 139.403 59.5475 140.119 60.31C140.85 61.0725 141.76 61.4537 142.85 61.4537C143.815 61.4537 144.772 61.1581 145.721 60.5668L146.514 65.5152ZM172.003 63.4144C169.094 65.5307 165.911 66.5889 162.457 66.5889C159.951 66.5889 157.703 66.0443 155.711 64.955C153.719 63.8657 152.14 62.3796 150.973 60.4967C149.821 58.5983 149.245 56.4664 149.245 54.1011C149.245 51.8448 149.767 49.8296 150.809 48.0557C151.867 46.2817 153.307 44.8812 155.127 43.8542C156.964 42.8271 159.033 42.3136 161.336 42.3136C163.733 42.3136 165.833 42.8816 167.639 44.0176C169.459 45.138 170.875 46.7018 171.887 48.7092C172.898 50.701 173.404 53.0196 173.404 55.665V56.412H155.431C155.711 57.4701 156.201 58.4038 156.901 59.213C157.617 60.0221 158.504 60.6524 159.562 61.1036C160.62 61.5549 161.811 61.7805 163.134 61.7805C165.623 61.7805 167.926 60.9714 170.043 59.353L172.003 63.4144ZM155.197 53.0508H168.082C167.958 51.8837 167.6 50.8644 167.008 49.993C166.433 49.1216 165.678 48.4447 164.744 47.9623C163.826 47.4643 162.791 47.2154 161.64 47.2154C160.473 47.2154 159.43 47.4643 158.512 47.9623C157.594 48.4603 156.847 49.1527 156.271 50.0397C155.695 50.9111 155.338 51.9148 155.197 53.0508ZM180.523 66.5889C179.652 66.5889 178.951 66.3244 178.422 65.7953C177.893 65.2662 177.629 64.5737 177.629 63.7179C177.629 62.8465 177.893 62.1462 178.422 61.6171C178.951 61.0725 179.652 60.8002 180.523 60.8002C181.379 60.8002 182.071 61.0725 182.601 61.6171C183.145 62.1462 183.417 62.8465 183.417 63.7179C183.417 64.5737 183.145 65.2662 182.601 65.7953C182.071 66.3244 181.379 66.5889 180.523 66.5889Z" fill="#3D408A"/>
</g>
<rect x="0.478036" y="0.478036" width="369.044" height="297.339" rx="10.9948" stroke="black" stroke-width="0.956072"/>
<defs>
<filter id="filter0_d_1276_2843" x="15.5129" y="206.985" width="223.53" height="73.9742" filterUnits="userSpaceOnUse" color-interpolation-filters="sRGB">
<feFlood flood-opacity="0" result="BackgroundImageFix"/>
<feColorMatrix in="SourceAlpha" type="matrix" values="0 0 0 0 0 0 0 0 0 0 0 0 0 0 0 0 0 0 127 0" result="hardAlpha"/>
<feOffset dy="3.82429"/>
<feGaussianBlur stdDeviation="4.49354"/>
<feComposite in2="hardAlpha" operator="out"/>
<feColorMatrix type="matrix" values="0 0 0 0 0 0 0 0 0 0 0 0 0 0 0 0 0 0 0.38 0"/>
<feBlend mode="normal" in2="BackgroundImageFix" result="effect1_dropShadow_1276_2843"/>
<feBlend mode="normal" in="SourceGraphic" in2="effect1_dropShadow_1276_2843" result="shape"/>
</filter>
<clipPath id="clip0_1276_2843">
<rect width="370" height="298.295" rx="11.4729" fill="white"/>
</clipPath>
</defs>
</svg>
