<svg width="370" height="299" viewBox="0 0 370 299" fill="none" xmlns="http://www.w3.org/2000/svg">
<g clip-path="url(#clip0_2175_3112)">
<rect width="370" height="298.295" rx="11.4729" fill="#FCD660"/>
<ellipse cx="301.845" cy="178.001" rx="130.094" ry="237.933" transform="rotate(37.7131 301.845 178.001)" fill="white"/>
<path d="M409.154 214.933L402.528 195.153C400.56 189.257 396.79 184.128 391.75 180.491C386.71 176.853 380.655 174.89 374.44 174.878H284.241C278.026 174.89 271.971 176.853 266.931 180.491C261.892 184.128 258.122 189.257 256.153 195.153L249.527 214.933C248.039 219.389 247.631 224.135 248.336 228.779C249.04 233.424 250.838 237.835 253.58 241.649C256.323 245.464 259.932 248.572 264.11 250.719C268.289 252.866 272.917 253.99 277.615 253.999H381.066C385.764 253.99 390.393 252.866 394.571 250.719C398.749 248.572 402.358 245.464 405.101 241.649C407.843 237.835 409.641 233.424 410.345 228.779C411.05 224.135 410.642 219.389 409.154 214.933Z" fill="#DADDE2"/>
<path d="M381.56 89.9198C375.416 82.0389 367.46 75.7571 358.369 71.6075C349.278 67.458 339.32 65.5634 329.34 66.0845C319.361 65.5634 309.403 67.458 300.311 71.6075C291.22 75.7571 283.265 82.0389 277.12 89.9198C272.227 96.9008 269.073 104.95 267.92 113.397C266.767 121.844 267.65 130.444 270.494 138.48C280.977 169.931 320.637 209.887 322.318 211.569C323.242 212.485 324.338 213.211 325.543 213.703C326.748 214.195 328.039 214.444 329.34 214.437C331.887 214.427 334.331 213.435 336.164 211.668C337.846 210.085 376.912 172.107 388.187 138.48C391.031 130.444 391.913 121.844 390.761 113.397C389.608 104.95 386.454 96.9008 381.56 89.9198Z" fill="#F16A59"/>
<path d="M329.341 145.208C325.429 145.208 321.604 144.048 318.352 141.875C315.099 139.701 312.563 136.612 311.066 132.997C309.569 129.383 309.177 125.406 309.941 121.569C310.704 117.732 312.588 114.207 315.354 111.441C318.12 108.675 321.645 106.791 325.482 106.028C329.319 105.264 333.296 105.656 336.91 107.153C340.525 108.65 343.614 111.186 345.788 114.438C347.961 117.691 349.121 121.516 349.121 125.428C349.121 130.674 347.037 135.705 343.328 139.415C339.618 143.124 334.587 145.208 329.341 145.208Z" fill="white"/>
<path d="M50.3698 66.1221H27.9619V31.1097H34.124V60.7068H50.3698V66.1221ZM64.1647 66.5889C61.7839 66.5889 59.652 66.0598 57.7691 65.0017C55.9018 63.9435 54.4235 62.5041 53.3342 60.6835C52.2605 58.8473 51.7236 56.7699 51.7236 54.4513C51.7236 52.1327 52.2605 50.063 53.3342 48.2424C54.4235 46.4062 55.9018 44.959 57.7691 43.9009C59.652 42.8427 61.7839 42.3136 64.1647 42.3136C66.53 42.3136 68.6463 42.8427 70.5136 43.9009C72.3809 44.959 73.8437 46.4062 74.9018 48.2424C75.9755 50.063 76.5124 52.1327 76.5124 54.4513C76.5124 56.7699 75.9755 58.8473 74.9018 60.6835C73.8437 62.5041 72.3809 63.9435 70.5136 65.0017C68.6463 66.0598 66.53 66.5889 64.1647 66.5889ZM64.118 61.4304C65.3629 61.4304 66.4755 61.127 67.4559 60.5201C68.4362 59.9132 69.2065 59.0807 69.7667 58.0225C70.3424 56.9644 70.6303 55.7662 70.6303 54.4279C70.6303 53.1052 70.3424 51.9226 69.7667 50.88C69.2065 49.8218 68.4362 48.9893 67.4559 48.3824C66.4755 47.7756 65.3629 47.4721 64.118 47.4721C62.8887 47.4721 61.7761 47.7756 60.7802 48.3824C59.7998 48.9893 59.0218 49.8218 58.446 50.88C57.8858 51.9226 57.6057 53.1052 57.6057 54.4279C57.6057 55.7662 57.8858 56.9644 58.446 58.0225C59.0218 59.0807 59.7998 59.9132 60.7802 60.5201C61.7761 61.127 62.8887 61.4304 64.118 61.4304ZM101.395 62.5275C100.259 63.819 98.8814 64.8227 97.2631 65.5385C95.6447 66.2388 93.8786 66.5889 91.9646 66.5889C89.5993 66.5889 87.4752 66.0598 85.5923 65.0017C83.725 63.9435 82.2467 62.5041 81.1574 60.6835C80.0837 58.8473 79.5468 56.7699 79.5468 54.4513C79.5468 52.1327 80.0837 50.063 81.1574 48.2424C82.2467 46.4062 83.725 44.959 85.5923 43.9009C87.4752 42.8427 89.5993 42.3136 91.9646 42.3136C93.863 42.3136 95.6136 42.6638 97.2164 43.364C98.8348 44.0642 100.212 45.0524 101.348 46.3284L97.9867 49.8997C97.2864 49.1372 96.4384 48.5458 95.4425 48.1257C94.4621 47.7055 93.4195 47.4955 92.3147 47.4955C90.9764 47.4955 89.786 47.7911 88.7434 48.3824C87.7164 48.9738 86.9072 49.7907 86.3159 50.8333C85.7401 51.8759 85.4522 53.0741 85.4522 54.4279C85.4522 55.7817 85.7401 56.9877 86.3159 58.0459C86.9072 59.0885 87.7164 59.9132 88.7434 60.5201C89.786 61.1114 90.9764 61.4071 92.3147 61.4071C93.4195 61.4071 94.4699 61.197 95.4658 60.7768C96.4617 60.3411 97.302 59.7498 97.9867 59.0029L101.395 62.5275ZM126.09 66.1221H121.095L120.768 63.2511C119.912 64.3092 118.846 65.1339 117.57 65.7253C116.294 66.301 114.878 66.5889 113.322 66.5889C111.673 66.5889 110.202 66.2699 108.911 65.6319C107.619 64.9783 106.6 64.0914 105.853 62.971C105.121 61.8506 104.756 60.5745 104.756 59.1429C104.756 57.6335 105.153 56.3108 105.946 55.1749C106.755 54.0233 107.852 53.1208 109.237 52.4672C110.638 51.8137 112.233 51.4869 114.022 51.4869C115.112 51.4869 116.201 51.6114 117.29 51.8603C118.395 52.1093 119.414 52.4594 120.348 52.9107V52.1638C120.348 51.1368 120.068 50.2498 119.508 49.5028C118.947 48.7559 118.193 48.1802 117.244 47.7756C116.294 47.3554 115.228 47.1453 114.046 47.1453C112.972 47.1453 111.898 47.3321 110.825 47.7055C109.751 48.0634 108.747 48.6003 107.814 49.3161L106.18 44.8112C107.673 43.9864 109.198 43.364 110.755 42.9439C112.326 42.5237 113.859 42.3136 115.353 42.3136C117.547 42.3136 119.445 42.7493 121.048 43.6208C122.651 44.4766 123.888 45.7059 124.76 47.3087C125.647 48.896 126.09 50.7711 126.09 52.9341V66.1221ZM114.513 61.9673C115.524 61.9673 116.458 61.7572 117.314 61.337C118.185 60.9169 118.893 60.3334 119.438 59.5864C119.998 58.8239 120.293 57.9525 120.325 56.9722V56.7154C119.593 56.1863 118.769 55.7817 117.85 55.5016C116.932 55.206 116.006 55.0581 115.073 55.0581C113.641 55.0581 112.466 55.3849 111.548 56.0385C110.63 56.6765 110.171 57.5168 110.171 58.5594C110.171 59.1974 110.358 59.7809 110.731 60.31C111.105 60.8235 111.618 61.2281 112.272 61.5238C112.941 61.8194 113.688 61.9673 114.513 61.9673ZM146.514 65.5152C144.802 66.231 143.145 66.5889 141.542 66.5889C139.908 66.5889 138.469 66.2388 137.224 65.5385C135.995 64.8383 135.03 63.8657 134.33 62.6208C133.645 61.3604 133.303 59.8976 133.303 58.2326V47.9156H129.218V42.7805H133.606V36.9451H139.045V42.7805H145.697V47.9156H139.045V57.1822C139.045 58.5049 139.402 59.5475 140.118 60.31C140.85 61.0725 141.76 61.4537 142.849 61.4537C143.814 61.4537 144.771 61.1581 145.72 60.5668L146.514 65.5152ZM172.003 63.4144C169.093 65.5307 165.911 66.5889 162.456 66.5889C159.951 66.5889 157.702 66.0443 155.71 64.955C153.719 63.8657 152.139 62.3796 150.972 60.4967C149.821 58.5983 149.245 56.4664 149.245 54.1011C149.245 51.8448 149.766 49.8296 150.809 48.0557C151.867 46.2817 153.306 44.8812 155.127 43.8542C156.963 42.8271 159.033 42.3136 161.336 42.3136C163.732 42.3136 165.833 42.8816 167.638 44.0176C169.459 45.138 170.875 46.7018 171.886 48.7092C172.898 50.701 173.403 53.0196 173.403 55.665V56.412H155.43C155.71 57.4701 156.201 58.4038 156.901 59.213C157.617 60.0221 158.504 60.6524 159.562 61.1036C160.62 61.5549 161.81 61.7805 163.133 61.7805C165.623 61.7805 167.926 60.9714 170.042 59.353L172.003 63.4144ZM155.197 53.0508H168.082C167.957 51.8837 167.599 50.8644 167.008 49.993C166.432 49.1216 165.677 48.4447 164.744 47.9623C163.826 47.4643 162.791 47.2154 161.639 47.2154C160.472 47.2154 159.43 47.4643 158.511 47.9623C157.593 48.4603 156.846 49.1527 156.271 50.0397C155.695 50.9111 155.337 51.9148 155.197 53.0508ZM180.523 66.5889C179.651 66.5889 178.951 66.3244 178.422 65.7953C177.893 65.2662 177.628 64.5737 177.628 63.7179C177.628 62.8465 177.893 62.1462 178.422 61.6171C178.951 61.0725 179.651 60.8002 180.523 60.8002C181.378 60.8002 182.071 61.0725 182.6 61.6171C183.145 62.1462 183.417 62.8465 183.417 63.7179C183.417 64.5737 183.145 65.2662 182.6 65.7953C182.071 66.3244 181.378 66.5889 180.523 66.5889Z" fill="#3D408A"/>
</g>
<rect x="0.478036" y="0.478036" width="369.044" height="297.339" rx="10.9948" stroke="black" stroke-width="0.956072"/>
<defs>
<clipPath id="clip0_2175_3112">
<rect width="370" height="298.295" rx="11.4729" fill="white"/>
</clipPath>
</defs>
</svg>
