<svg width="228" height="220" viewBox="0 0 228 220" fill="none" xmlns="http://www.w3.org/2000/svg">
<path d="M180.222 182.059V196.78C180.223 197.668 180.048 198.549 179.708 199.37C179.368 200.191 178.87 200.937 178.242 201.565C177.613 202.193 176.866 202.69 176.044 203.029C175.223 203.368 174.343 203.543 173.454 203.541H159.919C159.03 203.543 158.15 203.368 157.329 203.029C156.507 202.69 155.761 202.193 155.132 201.565C154.504 200.937 154.005 200.191 153.665 199.37C153.325 198.549 153.151 197.668 153.152 196.78V182.059M75.3461 182.059V196.78C75.347 197.668 75.1728 198.549 74.8329 199.37C74.4931 200.191 73.9945 200.937 73.3658 201.565C72.7371 202.193 71.9907 202.69 71.1693 203.029C70.3478 203.368 69.4669 203.543 68.5782 203.541H55.0433C54.1546 203.543 53.2745 203.368 52.4531 203.029C51.6316 202.69 50.8853 202.193 50.2566 201.565C49.6279 200.937 49.1293 200.191 48.7894 199.37C48.4496 198.549 48.2753 197.668 48.2762 196.78V182.059" fill="#2B4255"/>
<path d="M193.75 182.866H34.7413V34.6145C34.7395 32.3462 35.1852 30.1003 36.0537 28.0048C36.9221 25.9093 38.1956 24.0057 39.8015 22.4037C41.4073 20.8017 43.3142 19.532 45.4118 18.6685C47.5094 17.8051 49.7566 17.3649 52.0249 17.3722H176.466C178.734 17.3649 180.981 17.8051 183.079 18.6685C185.176 19.532 187.083 20.8017 188.689 22.4037C190.295 24.0057 191.568 25.9093 192.437 28.0048C193.305 30.1003 193.752 32.3462 193.75 34.6145V182.866Z" fill="#F8B84E"/>
<path d="M28.1047 148.45H200.393V169.124H28.1047V148.45Z" fill="#34485C"/>
<path d="M38.8002 52.5257H113.229V121.441H38.8002V52.5257ZM115.627 52.5257H188.347V121.441H115.627V52.5257Z" fill="#4BBFEB"/>
<path fill-rule="evenodd" clip-rule="evenodd" d="M34.7413 47.764V54.6556H193.688V47.764H34.7413ZM34.7413 118.802V125.694H193.867V118.802H34.7413Z" fill="#34485C"/>
<path fill-rule="evenodd" clip-rule="evenodd" d="M46.2017 132.337V139.229H66.8764V132.337H46.2017ZM161.236 132.337V139.229H181.91V132.337H161.236Z" fill="#F05542"/>
<path fill-rule="evenodd" clip-rule="evenodd" d="M110.803 50.589V121.572H117.695V50.589H110.803Z" fill="#34485C"/>
<path fill-rule="evenodd" clip-rule="evenodd" d="M17.7673 61.3335V90.1607H24.6589V68.225H34.9962V61.3335H17.7673ZM193.502 61.3335V68.225H203.839V90.1607H210.731V61.3335H193.502Z" fill="#576D7E"/>
<path fill-rule="evenodd" clip-rule="evenodd" d="M34.7413 50.589V121.572H41.6329V50.589H34.7413ZM186.975 50.589V121.572H193.867V50.589H186.975Z" fill="#34485C"/>
</svg>
