<svg width="18" height="15" viewBox="0 0 18 15"  xmlns="http://www.w3.org/2000/svg">
<path fill="#ffffff" d="M2.4777 14.0413C2.01145 14.0413 1.61244 13.8755 1.2807 13.5437C0.948948 13.212 0.782792 12.8127 0.782227 12.3459V2.17301C0.782227 1.70676 0.948383 1.30776 1.2807 0.976008C1.61301 0.644261 2.01201 0.478104 2.4777 0.477539H16.0415C16.5078 0.477539 16.907 0.643695 17.2393 0.976008C17.5717 1.30832 17.7375 1.70732 17.737 2.17301V12.3459C17.737 12.8121 17.5711 13.2114 17.2393 13.5437C16.9076 13.876 16.5083 14.0419 16.0415 14.0413H2.4777ZM9.2596 8.10717L2.4777 3.86849V12.3459H16.0415V3.86849L9.2596 8.10717ZM9.2596 6.4117L16.0415 2.17301H2.4777L9.2596 6.4117ZM2.4777 3.86849V2.17301V12.3459V3.86849Z"/>
</svg>
