<svg width="141" height="87" viewBox="0 0 141 87" fill="none" xmlns="http://www.w3.org/2000/svg">
<path d="M25.6911 17.8408C25.7819 18.2724 25.7819 18.7267 25.6911 19.2037C25.6456 19.4309 25.6002 19.658 25.5548 19.8852C25.5321 20.0896 25.498 20.3054 25.4526 20.5325L25.4185 20.6688C25.1005 22.0772 24.737 23.565 24.3281 25.1324C23.942 26.6771 23.5899 28.1422 23.2719 29.5278C22.9993 30.6636 22.7154 31.9129 22.4201 33.2759C22.1248 34.6388 21.8181 35.8881 21.5001 37.0239C21.3865 37.4101 21.2616 37.7962 21.1253 38.1824C21.0117 38.5685 20.864 38.9547 20.6823 39.3409C20.5233 39.6816 20.3302 39.9882 20.1031 40.2608C19.8986 40.5107 19.6601 40.6924 19.3876 40.806C19.115 40.9423 18.8197 40.9877 18.5017 40.9423C18.2064 40.9196 17.877 40.7833 17.5135 40.5334C16.9684 40.1473 16.5595 39.6134 16.2869 38.932C16.037 38.2505 15.7758 37.6259 15.5032 37.058C15.4124 36.899 15.2761 36.5469 15.0944 36.0017C14.9126 35.4565 14.7195 34.8659 14.5151 34.2299C14.3107 33.5712 14.1062 32.9465 13.9018 32.3559C13.7201 31.7426 13.5611 31.2883 13.4248 30.993C13.2203 31.4927 13.0159 32.0606 12.8115 32.6966C12.607 33.3327 12.4139 33.9573 12.2322 34.5706C12.0505 35.184 11.8801 35.7405 11.7211 36.2402C11.5848 36.7172 11.4826 37.0693 11.4145 37.2965C11.2327 37.7508 11.0283 38.2505 10.8011 38.7957C10.5967 39.3409 10.3355 39.8065 10.0175 40.1927C9.72217 40.5788 9.35872 40.8287 8.92713 40.9423C8.49554 41.0786 7.98445 40.9537 7.39385 40.5675C6.93954 40.2949 6.62152 39.9087 6.4398 39.409C6.32623 39.091 6.21265 38.7843 6.09907 38.489C5.98549 38.1937 5.89463 37.8871 5.82649 37.5691L5.14503 35.0136L3.74803 29.5278C3.56631 28.8237 3.38459 28.1081 3.20286 27.3812C3.04386 26.6316 2.85078 25.8593 2.62362 25.0643C2.51005 24.6781 2.40783 24.3033 2.31697 23.9399C2.24882 23.5537 2.16932 23.1448 2.07845 22.7132C2.01031 22.2589 1.91945 21.7478 1.80587 21.1799C1.71501 20.6121 1.60143 19.9533 1.46514 19.2037C1.41971 18.9538 1.38564 18.7267 1.36292 18.5222C1.36292 18.2951 1.38564 18.0679 1.43107 17.8408C1.4765 17.5001 1.63551 17.2048 1.90809 16.9549C2.02167 16.8413 2.15796 16.7504 2.31697 16.6823C2.47597 16.6142 2.64634 16.5574 2.82806 16.5119C3.10065 16.4211 3.38459 16.3756 3.67989 16.3756C3.95247 16.3756 4.23641 16.4665 4.53171 16.6482C4.73615 16.7618 4.89516 16.9095 5.00873 17.0912L5.41761 17.8067C5.46304 17.9657 5.50847 18.1134 5.5539 18.2497C5.59933 18.3632 5.64476 18.4882 5.6902 18.6245C5.73563 18.7835 5.7697 18.9311 5.79241 19.0674C5.81513 19.181 5.83785 19.2946 5.86056 19.4081C6.065 20.5893 6.31487 21.7365 6.61017 22.8495C6.90547 23.9626 7.17805 25.0302 7.42792 26.0524C7.51878 26.4613 7.63236 26.9724 7.76865 27.5857C7.90494 28.1763 8.04123 28.8009 8.17753 29.4597C8.31382 30.0957 8.45011 30.709 8.5864 31.2996C8.72269 31.8902 8.85899 32.3559 8.99528 32.6966C9.29058 31.6744 9.58588 30.6522 9.88118 29.63C10.1992 28.6079 10.5399 27.5743 10.9034 26.5294C11.0851 25.9842 11.2668 25.4959 11.4485 25.0643C11.653 24.61 11.8801 24.2352 12.13 23.9399C12.3799 23.6446 12.6638 23.4515 12.9818 23.3606C13.2998 23.2697 13.6746 23.3038 14.1062 23.4628C14.4924 23.6218 14.8331 23.9626 15.1284 24.485C15.4237 25.0075 15.6849 25.5413 15.9121 26.0865C16.1165 26.5862 16.3096 27.12 16.4913 27.6879C16.6958 28.2331 16.8889 28.7782 17.0706 29.3234C17.275 29.8458 17.4681 30.3456 17.6498 30.8226C17.8316 31.2996 18.0133 31.7085 18.195 32.0492C18.2631 31.7994 18.3426 31.4813 18.4335 31.0952C18.5244 30.709 18.6152 30.3002 18.7061 29.8686C18.8197 29.4143 18.9219 28.9713 19.0127 28.5397C19.1036 28.1081 19.1945 27.7106 19.2853 27.3472C19.5806 26.1205 19.8873 24.8939 20.2053 23.6673C20.5233 22.4179 20.83 21.1913 21.1253 19.9874L21.2956 19.4081C21.3411 19.2946 21.3638 19.181 21.3638 19.0674C21.3865 18.9311 21.4206 18.7835 21.466 18.6245C21.5114 18.4882 21.5569 18.3632 21.6023 18.2497C21.6477 18.1134 21.6932 17.9657 21.7386 17.8067C21.784 17.6931 21.8295 17.5796 21.8749 17.466C21.943 17.3297 22.0225 17.2048 22.1134 17.0912C22.1815 16.9776 22.261 16.8867 22.3519 16.8186C22.4428 16.7504 22.5336 16.6937 22.6245 16.6482C22.9425 16.4665 23.2151 16.3756 23.4422 16.3756C23.7375 16.3756 24.0215 16.4211 24.2941 16.5119C24.6575 16.5801 24.9869 16.7277 25.2822 16.9549C25.5093 17.182 25.6456 17.4773 25.6911 17.8408ZM39.4182 33.8892C39.4409 34.3435 39.4523 34.8205 39.4523 35.3202C39.4523 35.7973 39.4409 36.2402 39.4182 36.6491C39.3955 37.2624 39.3614 37.8303 39.316 38.3527C39.2706 38.8525 39.1797 39.2841 39.0434 39.6475C38.9071 39.9882 38.6913 40.2495 38.396 40.4312C38.1235 40.5902 37.7373 40.6356 37.2376 40.5675C36.7151 40.4993 36.3403 40.2495 36.1131 39.8179C35.886 39.3863 35.727 38.8979 35.6361 38.3527C35.568 37.7849 35.5453 37.217 35.568 36.6491C35.5907 36.0812 35.5907 35.6383 35.568 35.3202C35.5453 34.8205 35.5225 34.2526 35.4998 33.6166C35.4998 32.9578 35.4317 32.3445 35.2954 31.7766C35.1818 31.186 34.9774 30.6863 34.6821 30.2774C34.3868 29.8686 33.9438 29.6528 33.3532 29.63C32.6036 29.5846 32.0244 29.6414 31.6155 29.8004C31.2293 29.9594 30.9454 30.1979 30.7637 30.5159C30.582 30.8112 30.4684 31.1747 30.423 31.6063C30.4002 32.0379 30.3548 32.5035 30.2867 33.0033L30.2526 34.3321V36.8195C30.2526 37.2283 30.2412 37.6599 30.2185 38.1142C30.2185 38.5458 30.1504 38.9433 30.0141 39.3068C29.8778 39.6702 29.662 39.9769 29.3667 40.2268C29.0941 40.4766 28.6852 40.6016 28.1401 40.6016C27.4586 40.6016 26.9475 40.3858 26.6068 39.9542C26.2888 39.4999 26.1298 38.9433 26.1298 38.2846V18.6926C26.1298 18.5563 26.1298 18.4314 26.1298 18.3178C26.1525 18.1815 26.1752 18.0452 26.1979 17.9089C26.2433 17.7726 26.2774 17.6477 26.3001 17.5341C26.3228 17.3978 26.3569 17.2729 26.4023 17.1593C26.4705 16.9322 26.5841 16.7618 26.7431 16.6482C26.8566 16.5346 26.9702 16.4438 27.0838 16.3756C27.1974 16.3075 27.3223 16.2621 27.4586 16.2393C27.5722 16.2166 27.6971 16.2053 27.8334 16.2053C27.9697 16.1826 28.106 16.1712 28.2423 16.1712C28.583 16.1712 28.9124 16.2734 29.2304 16.4779C29.3667 16.5687 29.4916 16.6709 29.6052 16.7845C29.7188 16.8754 29.8096 17.0117 29.8778 17.1934C30.0595 17.625 30.1504 18.0339 30.1504 18.42C30.1731 18.5336 30.1844 18.704 30.1844 18.9311C30.2072 19.1356 30.2185 19.3514 30.2185 19.5785C30.2185 19.8057 30.2185 20.0328 30.2185 20.26C30.2412 20.4644 30.2526 20.6234 30.2526 20.737V20.9074C30.2753 21.6342 30.2867 22.3725 30.2867 23.1221C30.2867 23.8717 30.2867 24.6327 30.2867 25.405V25.9842C31.2407 25.6662 32.2402 25.5186 33.2851 25.5413C34.33 25.5413 35.2613 25.7457 36.0791 26.1546C36.9195 26.5862 37.5556 27.0746 37.9872 27.6197C38.4415 28.1649 38.7708 28.7669 38.9753 29.4256C39.1797 30.0844 39.2933 30.7885 39.316 31.5381C39.3614 32.2877 39.3955 33.0714 39.4182 33.8892ZM51.5722 35.9336C51.8448 35.8654 52.1174 35.82 52.3899 35.7973C52.6852 35.7746 52.9465 35.8086 53.1736 35.8995C53.4235 35.9903 53.6279 36.1494 53.7869 36.3765C53.9459 36.5809 54.0254 36.8762 54.0254 37.2624C54.0254 37.535 53.9573 37.7962 53.821 38.0461C53.6847 38.296 53.5143 38.5231 53.3099 38.7275C53.1055 38.932 52.8783 39.1137 52.6285 39.2727C52.3786 39.409 52.1401 39.5226 51.9129 39.6134C51.2542 39.9087 50.4932 40.1359 49.63 40.2949C48.7896 40.4539 47.915 40.5107 47.0064 40.4653C45.7798 40.4198 44.5986 40.1813 43.4628 39.7497C42.3498 39.2954 41.4752 38.5572 40.8392 37.535C40.2486 36.5355 39.8965 35.4225 39.7829 34.1958C39.6693 32.9692 39.7261 31.8107 39.9533 30.7204C40.2032 29.4029 40.6234 28.3353 41.214 27.5175C41.8273 26.6771 42.5542 26.0069 43.3947 25.5072C44.4169 24.9166 45.564 24.61 46.836 24.5872C48.1081 24.5645 49.3234 24.8144 50.4818 25.3368C51.2542 25.6776 51.947 26.1432 52.5603 26.7338C53.1736 27.3017 53.6393 27.9945 53.9573 28.8123C54.0482 29.0167 54.1163 29.2666 54.1617 29.5619C54.2299 29.8572 54.2753 30.1752 54.298 30.5159C54.3207 30.834 54.3207 31.152 54.298 31.47C54.2753 31.788 54.2185 32.0719 54.1277 32.3218C53.9914 32.7307 53.821 33.0487 53.6166 33.2759C53.4121 33.503 53.1509 33.6734 52.8329 33.787C52.5149 33.9005 52.1287 33.98 51.6744 34.0255C51.2428 34.0482 50.7204 34.0709 50.107 34.0936C49.5619 34.1163 49.0508 34.1277 48.5738 34.1277C48.0967 34.1277 47.6084 34.1277 47.1086 34.1277C46.6089 34.105 46.0864 34.0936 45.5413 34.0936C45.0188 34.0709 44.4282 34.0482 43.7695 34.0255C43.7013 34.4798 43.7581 34.8773 43.9398 35.218C44.1443 35.536 44.4169 35.8086 44.7576 36.0358C45.0983 36.2402 45.4845 36.3992 45.9161 36.5128C46.3477 36.6264 46.7679 36.6945 47.1768 36.7172C47.9491 36.7627 48.6873 36.7059 49.3915 36.5469C50.0957 36.3651 50.8226 36.1607 51.5722 35.9336ZM50.107 29.3234C49.6755 28.8237 49.2211 28.4602 48.7441 28.2331C48.3807 28.074 47.9945 28.0059 47.5856 28.0286C47.1995 28.0286 46.8247 28.0854 46.4612 28.199C45.8025 28.358 45.246 28.6987 44.7917 29.2212C44.7462 29.2666 44.6667 29.3802 44.5531 29.5619C44.4396 29.7209 44.326 29.8913 44.2124 30.073C44.1216 30.2547 44.0534 30.4251 44.008 30.5841C43.9625 30.7431 43.9853 30.8226 44.0761 30.8226H50.7544C50.7317 30.5046 50.6749 30.2434 50.5841 30.0389C50.4932 29.8118 50.3342 29.5733 50.107 29.3234ZM54.7013 28.5397C54.7013 28.2671 54.7013 27.9605 54.7013 27.6197C54.7013 27.2563 54.7127 26.8928 54.7354 26.5294C54.7581 26.1432 54.7922 25.7798 54.8376 25.4391C54.9057 25.0756 54.9966 24.7576 55.1102 24.485C55.2919 24.0761 55.5759 23.8036 55.962 23.6673C56.3482 23.5083 56.7684 23.4401 57.2227 23.4628C57.6997 23.4628 58.0745 23.5423 58.3471 23.7013C58.6197 23.8603 58.8241 24.0761 58.9604 24.3487C59.0967 24.5986 59.1762 24.8939 59.199 25.2346C59.2444 25.5526 59.2671 25.8934 59.2671 26.2568C59.4715 25.8934 59.7441 25.5981 60.0848 25.3709C60.4483 25.1438 60.8117 24.962 61.1752 24.8258C61.5386 24.6895 61.868 24.5986 62.1633 24.5532C62.4586 24.485 62.629 24.4509 62.6744 24.4509C63.2423 24.4055 63.7534 24.3942 64.2077 24.4169C64.6847 24.4396 65.2072 24.5418 65.775 24.7235C66.1385 24.8598 66.5133 25.0529 66.8995 25.3028C67.2856 25.5299 67.6263 25.8025 67.9216 26.1205C68.2169 26.4385 68.41 26.7906 68.5009 27.1768C68.6145 27.5402 68.569 27.9264 68.3646 28.3353C68.0466 28.9032 67.6945 29.1871 67.3083 29.1871C66.9222 29.1644 66.5019 29.0962 66.0476 28.9827C65.7978 28.9372 65.5025 28.835 65.1617 28.676C64.821 28.517 64.5257 28.4148 64.2758 28.3693C63.5035 28.2558 62.822 28.3126 62.2315 28.5397C61.6409 28.7669 61.1298 29.0394 60.6982 29.3575C60.1984 29.7436 59.7668 30.1866 59.4034 30.6863V35.5928C59.4034 36.2061 59.392 36.8422 59.3693 37.5009C59.3693 38.1597 59.2785 38.7616 59.0967 39.3068C58.9377 39.8292 58.6538 40.2608 58.2449 40.6016C57.8587 40.9196 57.2909 41.0559 56.5413 41.0104C56.1324 40.9877 55.7689 40.7946 55.4509 40.4312C55.1329 40.045 54.9398 39.6702 54.8717 39.3068C54.8262 38.9661 54.7922 38.5572 54.7695 38.0802C54.7467 37.6031 54.724 37.1034 54.7013 36.5809C54.7013 36.0585 54.7013 35.536 54.7013 35.0136C54.7013 34.4684 54.7013 33.9687 54.7013 33.5144V28.5397ZM78.6789 35.9336C78.9515 35.8654 79.224 35.82 79.4966 35.7973C79.7919 35.7746 80.0532 35.8086 80.2803 35.8995C80.5302 35.9903 80.7346 36.1494 80.8936 36.3765C81.0526 36.5809 81.1321 36.8762 81.1321 37.2624C81.1321 37.535 81.064 37.7962 80.9277 38.0461C80.7914 38.296 80.621 38.5231 80.4166 38.7275C80.2122 38.932 79.985 39.1137 79.7351 39.2727C79.4853 39.409 79.2468 39.5226 79.0196 39.6134C78.3609 39.9087 77.5999 40.1359 76.7367 40.2949C75.8962 40.4539 75.0217 40.5107 74.1131 40.4653C72.8865 40.4198 71.7053 40.1813 70.5695 39.7497C69.4564 39.2954 68.5819 38.5572 67.9459 37.535C67.3553 36.5355 67.0032 35.4225 66.8896 34.1958C66.776 32.9692 66.8328 31.8107 67.06 30.7204C67.3098 29.4029 67.7301 28.3353 68.3207 27.5175C68.934 26.6771 69.6609 26.0069 70.5013 25.5072C71.5235 24.9166 72.6707 24.61 73.9427 24.5872C75.2148 24.5645 76.4301 24.8144 77.5885 25.3368C78.3609 25.6776 79.0537 26.1432 79.667 26.7338C80.2803 27.3017 80.746 27.9945 81.064 28.8123C81.1548 29.0167 81.223 29.2666 81.2684 29.5619C81.3366 29.8572 81.382 30.1752 81.4047 30.5159C81.4274 30.834 81.4274 31.152 81.4047 31.47C81.382 31.788 81.3252 32.0719 81.2344 32.3218C81.0981 32.7307 80.9277 33.0487 80.7233 33.2759C80.5188 33.503 80.2576 33.6734 79.9396 33.787C79.6216 33.9005 79.2354 33.98 78.7811 34.0255C78.3495 34.0482 77.827 34.0709 77.2137 34.0936C76.6686 34.1163 76.1575 34.1277 75.6804 34.1277C75.2034 34.1277 74.715 34.1277 74.2153 34.1277C73.7156 34.105 73.1931 34.0936 72.648 34.0936C72.1255 34.0709 71.5349 34.0482 70.8762 34.0255C70.808 34.4798 70.8648 34.8773 71.0465 35.218C71.251 35.536 71.5235 35.8086 71.8643 36.0358C72.205 36.2402 72.5912 36.3992 73.0228 36.5128C73.4543 36.6264 73.8746 36.6945 74.2835 36.7172C75.0558 36.7627 75.794 36.7059 76.4982 36.5469C77.2024 36.3651 77.9293 36.1607 78.6789 35.9336ZM77.2137 29.3234C76.7821 28.8237 76.3278 28.4602 75.8508 28.2331C75.4874 28.074 75.1012 28.0059 74.6923 28.0286C74.3062 28.0286 73.9314 28.0854 73.5679 28.199C72.9092 28.358 72.3527 28.6987 71.8983 29.2212C71.8529 29.2666 71.7734 29.3802 71.6598 29.5619C71.5463 29.7209 71.4327 29.8913 71.3191 30.073C71.2282 30.2547 71.1601 30.4251 71.1147 30.5841C71.0692 30.7431 71.0919 30.8226 71.1828 30.8226H77.8611C77.8384 30.5046 77.7816 30.2434 77.6908 30.0389C77.5999 29.8118 77.4409 29.5733 77.2137 29.3234ZM92.533 27.6879C92.533 28.3239 92.533 29.0394 92.533 29.8345C92.5557 30.6295 92.5671 31.4586 92.5671 32.3218C92.5671 33.1623 92.5671 34.0028 92.5671 34.8432C92.5671 35.661 92.5557 36.4219 92.533 37.1261C92.5103 37.4668 92.4762 37.8416 92.4308 38.2505C92.3854 38.6367 92.2945 39.0001 92.1582 39.3409C92.0219 39.6816 91.8061 39.9655 91.5108 40.1927C91.2382 40.3971 90.8634 40.488 90.3864 40.4653C89.6822 40.4198 89.1711 40.1132 88.8531 39.5453C88.5578 38.9774 88.3875 38.1824 88.342 37.1602C88.342 36.6377 88.3307 36.0358 88.308 35.3543C88.308 34.6729 88.2966 33.98 88.2739 33.2759C88.2739 32.5717 88.2739 31.8902 88.2739 31.2315C88.2739 30.55 88.2739 29.9367 88.2739 29.3915C88.2739 29.0735 88.2625 28.6874 88.2398 28.2331C88.2398 27.7787 88.2512 27.3131 88.2739 26.8361C88.2966 26.359 88.3534 25.9047 88.4443 25.4731C88.5351 25.0188 88.6828 24.644 88.8872 24.3487C89.0462 24.167 89.2734 24.0307 89.5687 23.9399C89.864 23.8263 90.1706 23.7695 90.4886 23.7695C90.8294 23.7695 91.1474 23.8263 91.4427 23.9399C91.7607 24.0534 91.9878 24.2124 92.1241 24.4169C92.215 24.5532 92.2831 24.7462 92.3286 24.9961C92.374 25.246 92.4081 25.5299 92.4308 25.8479C92.4762 26.1432 92.4989 26.4613 92.4989 26.802C92.5217 27.12 92.533 27.4153 92.533 27.6879ZM91.2382 20.8051C90.5341 20.9869 89.9435 20.9187 89.4664 20.6007C89.0121 20.26 88.7282 19.7602 88.6146 19.1015C88.5238 18.6245 88.5578 18.2042 88.7168 17.8408C88.8758 17.4773 89.1144 17.2048 89.4324 17.023C89.7504 16.8186 90.1138 16.7277 90.5227 16.7504C90.9316 16.7732 91.3405 16.9322 91.7493 17.2275C92.1355 17.5001 92.4081 17.8181 92.5671 18.1815C92.7488 18.545 92.8056 18.897 92.7375 19.2378C92.692 19.5785 92.5444 19.8965 92.2945 20.1918C92.0446 20.4644 91.6925 20.6688 91.2382 20.8051ZM101.285 34.6047C100.854 34.3321 100.365 34.1163 99.8201 33.9573C99.2977 33.7983 98.7525 33.6507 98.1846 33.5144C97.6394 33.3781 97.1056 33.2304 96.5832 33.0714C96.0607 32.8897 95.5837 32.6398 95.1521 32.3218C94.2208 31.6176 93.6756 30.7545 93.5166 29.7323C93.3803 28.6874 93.6075 27.6425 94.1981 26.5975C94.5161 26.0524 94.9363 25.6094 95.4588 25.2687C95.9812 24.9053 96.5491 24.6327 97.1624 24.4509C97.7985 24.2465 98.4458 24.1329 99.1046 24.1102C99.7633 24.0875 100.388 24.1216 100.979 24.2124C101.365 24.2806 101.774 24.3828 102.205 24.5191C102.637 24.6327 103.034 24.7917 103.398 24.9961C103.784 25.2006 104.125 25.4618 104.42 25.7798C104.738 26.0751 104.965 26.4499 105.101 26.9042C105.192 27.1995 105.204 27.4834 105.136 27.756C105.09 28.0286 104.977 28.2558 104.795 28.4375C104.636 28.6192 104.42 28.7555 104.147 28.8464C103.898 28.9372 103.625 28.9599 103.33 28.9145C102.989 28.8464 102.671 28.7441 102.376 28.6079C102.08 28.4716 101.785 28.3239 101.49 28.1649C101.194 28.0059 100.888 27.8696 100.57 27.756C100.274 27.6425 99.9564 27.5857 99.6157 27.5857C99.0932 27.563 98.6616 27.6538 98.3209 27.8583C97.9802 28.0627 97.7417 28.3126 97.6054 28.6079C97.4918 28.9032 97.5032 29.2212 97.6394 29.5619C97.7985 29.9026 98.1165 30.1979 98.5935 30.4478C99.0251 30.675 99.5021 30.8567 100.025 30.993C100.547 31.1293 101.058 31.2656 101.558 31.4018C102.08 31.5381 102.58 31.6971 103.057 31.8789C103.557 32.0606 104 32.3105 104.386 32.6285C105.136 33.2418 105.59 33.9573 105.749 34.7751C105.931 35.5928 105.885 36.3992 105.613 37.1943C105.34 37.9893 104.863 38.6935 104.181 39.3068C103.523 39.9201 102.739 40.329 101.83 40.5334C101.172 40.6697 100.456 40.7379 99.6838 40.7379C98.9342 40.7379 98.1846 40.6584 97.435 40.4993C96.7081 40.3403 96.0039 40.0905 95.3225 39.7497C94.6637 39.409 94.1072 38.9774 93.6529 38.455C93.3349 38.0915 93.1645 37.6826 93.1418 37.2283C93.1418 36.7513 93.2327 36.3424 93.4144 36.0017C93.6188 35.6383 93.9028 35.3884 94.2662 35.2521C94.6297 35.1158 95.0385 35.1953 95.4928 35.4906C95.8563 35.7405 96.2879 35.9903 96.7876 36.2402C97.2874 36.4674 97.7871 36.6491 98.2868 36.7854C98.7866 36.9217 99.2636 36.9898 99.7179 36.9898C100.195 36.9898 100.604 36.8876 100.945 36.6832C101.444 36.3651 101.705 36.0017 101.728 35.5928C101.751 35.1612 101.603 34.8319 101.285 34.6047ZM19.8305 57.6625C19.8759 58.3894 19.8986 59.0823 19.8986 59.741C19.8986 60.377 19.8759 61.0585 19.8305 61.7854C19.8305 62.058 19.8305 62.3646 19.8305 62.7054C19.8305 63.0461 19.8078 63.3755 19.7624 63.6935C19.7169 64.0115 19.6374 64.3068 19.5238 64.5794C19.4103 64.852 19.2399 65.0678 19.0127 65.2268C18.7402 65.4085 18.4335 65.5334 18.0928 65.6016C17.752 65.647 17.434 65.6243 17.1387 65.5334C16.8434 65.4426 16.5822 65.2722 16.3551 65.0223C16.1506 64.7725 16.037 64.4204 16.0143 63.9661C15.9462 62.9212 15.9121 61.8762 15.9121 60.8313C15.9121 60.3089 15.9007 59.8091 15.878 59.3321C15.878 58.8551 15.8894 58.185 15.9121 57.3218C15.9121 56.8902 15.878 56.4018 15.8099 55.8567C15.7417 55.2888 15.5714 54.8913 15.2988 54.6641C15.0944 54.4824 14.8672 54.3802 14.6173 54.3575C14.3675 54.312 14.1176 54.3347 13.8677 54.4256C13.6406 54.5165 13.4361 54.6868 13.2544 54.9367C13.0727 55.1639 12.9477 55.4592 12.8796 55.8226C12.8796 56.1179 12.8682 56.4246 12.8455 56.7426C12.8455 57.0379 12.8569 57.3218 12.8796 57.5944C12.9023 58.3213 12.9137 59.0141 12.9137 59.6729C12.9137 60.3089 12.9023 60.9903 12.8796 61.7172C12.8569 62.0125 12.8455 62.3306 12.8455 62.6713C12.8682 63.012 12.8682 63.3527 12.8455 63.6935C12.8228 64.0115 12.7547 64.3068 12.6411 64.5794C12.5502 64.852 12.3799 65.0678 12.13 65.2268C11.8574 65.4085 11.5621 65.5221 11.2441 65.5675C10.9488 65.5902 10.6649 65.5448 10.3923 65.4312C10.1424 65.2949 9.91525 65.0905 9.71081 64.8179C9.52909 64.5453 9.42687 64.1819 9.40416 63.7275C9.35872 63.2051 9.32465 62.7281 9.30194 62.2965C9.30194 61.8422 9.30194 61.3651 9.30194 60.8654C9.30194 60.343 9.31329 59.8091 9.33601 59.264C9.35872 58.6961 9.34737 58.1509 9.30194 57.6285C9.30194 57.4695 9.29058 57.2877 9.26786 57.0833C9.26786 56.8562 9.25651 56.629 9.23379 56.4018C9.23379 56.1747 9.21108 55.9589 9.16564 55.7545C9.14293 55.5273 9.0975 55.3456 9.02935 55.2093C8.84763 54.8913 8.51826 54.6868 8.04123 54.596C7.58693 54.5051 7.20077 54.5392 6.88275 54.6982C6.56474 54.8572 6.32623 55.0616 6.16722 55.3115C6.00821 55.5614 5.89463 55.834 5.82649 56.1293C5.75834 56.4246 5.72427 56.7426 5.72427 57.0833C5.72427 57.4013 5.72427 57.708 5.72427 58.0033C5.72427 59.4798 5.72427 60.7632 5.72427 61.8535C5.74698 62.9212 5.63341 63.7843 5.38354 64.4431C5.26996 64.7838 5.03145 65.045 4.668 65.2268C4.32727 65.4085 3.95247 65.4993 3.54359 65.4993C3.15743 65.4993 2.79399 65.4085 2.45326 65.2268C2.11253 65.045 1.88537 64.7611 1.7718 64.3749C1.70365 64.1251 1.63551 63.773 1.56736 63.3187C1.52193 62.8416 1.48786 62.3192 1.46514 61.7513C1.44242 61.1834 1.43107 60.6155 1.43107 60.0477C1.43107 59.4571 1.43107 58.9232 1.43107 58.4462V53.5397C1.40835 53.0173 1.39699 52.4494 1.39699 51.8361C1.39699 51.2227 1.48786 50.6662 1.66958 50.1665C1.82859 49.7349 2.07845 49.4623 2.41918 49.3487C2.75992 49.2124 3.112 49.1556 3.47545 49.1784C3.88432 49.1784 4.20234 49.2919 4.42949 49.5191C4.67936 49.7235 4.86109 49.9848 4.97466 50.3028C5.08824 50.5981 5.15638 50.9388 5.1791 51.325C5.20182 51.6884 5.22453 52.0405 5.24725 52.3812C5.49711 51.8133 5.79241 51.3477 6.13314 50.9842C6.49659 50.5981 7.00769 50.3482 7.66643 50.2346C9.34737 49.9166 10.6876 50.3482 11.687 51.5294C12.1414 51.0751 12.7206 50.7003 13.4248 50.405C13.9699 50.2006 14.5265 50.1097 15.0944 50.1324C15.6622 50.1324 16.196 50.2346 16.6958 50.4391C17.2182 50.6435 17.6839 50.9388 18.0928 51.325C18.5244 51.7111 18.8651 52.1768 19.115 52.722C19.4557 53.4488 19.6488 54.2552 19.6942 55.1411C19.7396 56.027 19.7851 56.8675 19.8305 57.6625ZM37.5993 50.405C37.8038 50.723 37.8946 51.0637 37.8719 51.4272C37.8719 51.9496 37.781 52.4039 37.5993 52.7901C37.5539 52.9037 37.4857 53.0513 37.3949 53.2331C37.3267 53.4148 37.2472 53.6079 37.1564 53.8123C37.0882 54.0167 37.0087 54.2098 36.9179 54.3915C36.827 54.5733 36.7589 54.7096 36.7134 54.8004L36.6453 54.9708C36.3273 55.675 36.0206 56.3564 35.7253 57.0152C35.43 57.6739 35.1006 58.3781 34.7372 59.1277C34.3737 59.8546 34.0217 60.5701 33.6809 61.2743C33.3629 61.9557 33.0449 62.6259 32.7269 63.2846C32.636 63.4663 32.5565 63.648 32.4884 63.8298C32.4202 63.9888 32.3294 64.1591 32.2158 64.3409L30.5803 67.8504C30.285 68.441 30.001 69.0202 29.7284 69.5881C29.4786 70.156 29.1946 70.7239 28.8766 71.2918C28.8085 71.4053 28.7403 71.5076 28.6722 71.5984C28.6268 71.712 28.5813 71.8256 28.5359 71.9391C28.3769 72.2117 28.1384 72.473 27.8204 72.7228C27.5251 72.9954 27.207 73.1431 26.8663 73.1658C26.253 73.2112 25.7192 73.0295 25.2649 72.6206C24.9923 72.4616 24.7765 72.2344 24.6175 71.9391C24.5266 71.7347 24.4812 71.4735 24.4812 71.1555C24.5039 71.0192 24.5153 70.8829 24.5153 70.7466C24.538 70.633 24.5607 70.5194 24.5834 70.4059C24.6289 70.2923 24.6629 70.1787 24.6856 70.0651C24.7084 69.9516 24.7424 69.8607 24.7879 69.7925C24.856 69.6108 24.9128 69.52 24.9582 69.52L27.4456 64.1364C27.332 63.8866 27.2184 63.6367 27.1048 63.3868C26.9912 63.1142 26.889 62.8757 26.7982 62.6713C26.5029 61.9671 26.1849 61.2289 25.8441 60.4565C25.5261 59.6615 25.1967 58.8778 24.856 58.1055C24.5153 57.3105 24.1632 56.5381 23.7997 55.7885C23.4363 55.0389 23.0729 54.3234 22.7094 53.6419C22.5731 53.4148 22.4482 53.1763 22.3346 52.9264C22.221 52.6538 22.1302 52.3926 22.062 52.1427C21.9939 51.8701 21.9712 51.5975 21.9939 51.325C22.0166 51.0524 22.1188 50.7798 22.3005 50.5072C22.4823 50.1665 22.7208 49.928 23.0161 49.7917C23.3114 49.6327 23.618 49.5645 23.936 49.5872C24.2768 49.5872 24.5948 49.6554 24.8901 49.7917C25.1854 49.928 25.4239 50.1097 25.6056 50.3368C25.9918 50.7457 26.2984 51.2 26.5256 51.6998C26.7527 52.1995 26.9685 52.7106 27.173 53.2331C27.6046 54.1417 28.0475 55.0957 28.5018 56.0952C28.9561 57.0947 29.4104 58.0714 29.8647 59.0255L31.6365 55.2774C31.8183 54.914 31.9773 54.5619 32.1136 54.2212C32.2726 53.8804 32.4316 53.5511 32.5906 53.2331C32.7723 52.8469 32.9427 52.4494 33.1017 52.0405C33.2834 51.6316 33.4878 51.2568 33.715 50.9161C33.7604 50.8252 33.8059 50.7457 33.8513 50.6776C33.8967 50.6094 33.9421 50.5299 33.9876 50.4391C34.192 50.1665 34.3737 49.9507 34.5327 49.7917C34.6463 49.7008 34.7372 49.6327 34.8053 49.5872C34.8962 49.5191 34.9984 49.4737 35.112 49.4509C35.271 49.4055 35.4186 49.3828 35.5549 49.3828C35.7139 49.3601 35.8616 49.3601 35.9979 49.3828C36.225 49.4509 36.4976 49.5532 36.8156 49.6895C37.1564 49.8258 37.4176 50.0643 37.5993 50.405Z" fill="#3D408A"/>
<path d="M66.3867 63.5341C67.4141 64.2073 68.2822 65.0045 68.9908 65.9257C69.7348 66.8115 70.3195 67.9098 70.7446 69.2208C71.2052 70.6734 71.4355 72.1438 71.4355 73.6319C71.471 75.0845 71.2052 76.4486 70.6383 77.7241C70.1069 78.9642 69.2388 80.0626 68.0342 81.0192C66.865 81.9404 65.3237 82.5958 63.4105 82.9856C62.383 83.2336 61.1783 83.4285 59.7965 83.5702C58.4148 83.7119 57.1747 83.7828 56.0763 83.7828C54.6945 83.8182 53.2596 83.8182 51.7715 83.7828C50.3188 83.7828 48.9016 83.641 47.5198 83.3576C46.9175 83.1805 46.4746 82.8793 46.1912 82.4541C45.9432 81.9935 45.766 81.4798 45.6597 80.9129C45.518 80.594 45.4471 80.2751 45.4471 79.9563V49.7693C45.4471 48.7773 45.642 48.0155 46.0317 47.4841C46.4569 46.9172 47.0061 46.5097 47.6793 46.2617C48.3524 45.9783 49.1142 45.8188 49.9645 45.7834C50.8149 45.7125 51.7006 45.6771 52.6218 45.6771C53.3305 45.6771 54.0391 45.6771 54.7477 45.6771C55.4917 45.6417 56.2358 45.6417 56.9798 45.6771C58.149 45.7125 59.3537 45.8188 60.5937 45.996C61.8692 46.1377 63.0739 46.4211 64.2077 46.8463C64.7391 47.0235 65.306 47.2715 65.9083 47.5903C66.5107 47.8738 66.989 48.2281 67.3433 48.6533C68.4771 49.6808 69.3097 50.8854 69.8411 52.2672C70.408 53.6136 70.656 54.9954 70.5852 56.4126C70.5143 57.7944 70.1246 59.123 69.416 60.3985C68.7428 61.674 67.733 62.7192 66.3867 63.5341ZM57.0861 77.6178C58.1845 77.547 59.3005 77.423 60.4343 77.2458C61.5681 77.0687 62.3476 76.7321 62.7727 76.236C63.2333 75.6691 63.5522 75.0137 63.7294 74.2696C63.9419 73.4902 63.9951 72.7107 63.8888 71.9312C63.8179 71.1163 63.5876 70.3546 63.1979 69.6459C62.8436 68.9019 62.3653 68.3173 61.7629 67.8921C60.948 67.2544 60.0091 66.8469 58.9462 66.6698C57.8833 66.4572 56.8381 66.3509 55.8106 66.3509C55.3146 66.3509 54.854 66.3686 54.4288 66.404C54.0391 66.404 53.6848 66.4572 53.3659 66.5635C53.0824 66.6343 52.8699 66.7938 52.7281 67.0418C52.5864 67.2898 52.5155 67.6618 52.5155 68.1578C52.5864 69.079 52.5864 70.0002 52.5155 70.9214C52.4447 71.8426 52.4093 72.7284 52.4093 73.5787C52.4093 74.0748 52.3915 74.6239 52.3561 75.2263C52.3561 75.7932 52.551 76.2715 52.9407 76.6612C53.3305 77.0509 53.8973 77.3167 54.6414 77.4584C55.3854 77.6001 56.2003 77.6533 57.0861 77.6178ZM58.149 52.1078C57.0507 52.0723 56.1295 52.0546 55.3854 52.0546C54.6768 52.0192 54.1099 52.0723 53.6848 52.2141C53.295 52.3203 53.0116 52.5861 52.8344 53.0112C52.6927 53.401 52.6396 54.0033 52.675 54.8182C52.675 55.4914 52.6573 56.1646 52.6218 56.8378C52.6218 57.4755 52.6218 58.1133 52.6218 58.751C52.6218 59.4596 52.8521 59.9911 53.3127 60.3454C53.7733 60.6643 54.3402 60.8591 55.0134 60.93C55.722 61.0009 56.4483 61.0009 57.1924 60.93C57.9719 60.8591 58.6451 60.7706 59.2119 60.6643C60.4874 60.4517 61.4618 60.0265 62.135 59.3888C62.8436 58.7156 63.251 57.7412 63.3573 56.4657C63.4991 54.8713 63.0739 53.773 62.0818 53.1707C61.1252 52.5329 59.8143 52.1786 58.149 52.1078ZM104.048 48.4407C104.261 50.1414 104.385 52.1255 104.42 54.393C104.456 56.6252 104.42 58.8927 104.314 61.1957C104.243 63.4633 104.083 65.6246 103.835 67.6795C103.587 69.6991 103.286 71.3289 102.932 72.569C102.684 73.313 102.383 74.0925 102.029 74.9074C101.71 75.6869 101.355 76.3955 100.966 77.0332C100.399 77.9899 99.7078 78.8402 98.8929 79.5842C98.078 80.2929 97.1745 80.9129 96.1825 81.4443C95.2258 81.9404 94.1983 82.3301 93.1 82.6136C92.0371 82.897 90.9741 83.0564 89.9112 83.0919C88.0334 83.1627 86.2442 82.897 84.5435 82.2947C82.8782 81.6569 81.337 80.6649 79.9198 79.3185C78.8569 78.291 78.0065 77.1927 77.3688 76.0235C76.731 74.8542 76.235 73.6319 75.8807 72.3564C75.5264 71.0454 75.2961 69.6991 75.1898 68.3173C75.1189 66.9355 75.0835 65.5183 75.0835 64.0656C75.0835 63.3924 75.0658 62.5598 75.0303 61.5677C75.0303 60.5403 75.0303 59.4951 75.0303 58.4321C75.0303 57.3338 75.0303 56.2709 75.0303 55.2434C75.0303 54.2159 75.0481 53.3478 75.0835 52.6392C75.0835 52.1786 75.0835 51.6826 75.0835 51.1511C75.0835 50.5842 75.1012 50.0351 75.1366 49.5036C75.2075 48.9367 75.3138 48.4053 75.4555 47.9092C75.5972 47.3778 75.8098 46.8995 76.0933 46.4743C76.4121 46.0137 76.855 45.6771 77.4219 45.4645C77.9888 45.2519 78.5734 45.1456 79.1757 45.1456C79.8135 45.1456 80.4158 45.2696 80.9827 45.5177C81.5496 45.7657 82.0102 46.12 82.3645 46.5806C82.5416 46.864 82.6657 47.1475 82.7365 47.4309C82.8074 47.7144 82.8605 48.0332 82.896 48.3875C82.9668 49.5567 83.0022 50.8854 83.0022 52.3735C83.0377 53.8616 83.0377 55.3142 83.0022 56.7315C83.0022 58.1133 82.9845 59.3888 82.9491 60.558C82.9137 61.7272 82.896 62.5952 82.896 63.1621C82.896 65.288 83.0022 67.2189 83.2148 68.955C83.4274 70.6557 83.9234 72.0729 84.7029 73.2067C85.4115 74.2342 86.2442 74.8897 87.2008 75.1731C88.1574 75.4566 89.114 75.5451 90.0707 75.4389C90.9564 75.3326 91.8422 75.0137 92.728 74.4822C93.6492 73.9153 94.3755 73.1004 94.9069 72.0375C95.1195 71.6478 95.2967 71.2049 95.4384 70.7089C95.5801 70.2128 95.6864 69.7522 95.7573 69.3271C95.899 67.9807 96.023 66.4217 96.1293 64.6502C96.2356 62.8432 96.3242 61.0009 96.395 59.123C96.4659 57.2452 96.5013 55.4028 96.5013 53.5958C96.5013 51.7889 96.4836 50.1591 96.4482 48.7064C96.519 48.0687 96.7139 47.4841 97.0328 46.9526C97.3162 46.492 97.7237 46.0845 98.2551 45.7302C98.7866 45.3759 99.5129 45.1988 100.434 45.1988C101.178 45.2342 101.78 45.4291 102.241 45.7834C102.702 46.1023 103.074 46.4566 103.357 46.8463C103.676 47.3069 103.906 47.8384 104.048 48.4407ZM136.243 67.6795C136.42 68.1756 136.544 68.7425 136.615 69.3802C136.722 69.9825 136.775 70.6026 136.775 71.2403C136.775 71.8781 136.722 72.5158 136.615 73.1536C136.544 73.7559 136.438 74.2874 136.296 74.748C135.73 76.7321 134.596 78.3973 132.895 79.7437C131.194 81.0546 129.246 82.0112 127.049 82.6136C124.888 83.2159 122.638 83.4285 120.3 83.2513C117.997 83.0742 115.942 82.4896 114.135 81.4975C113.001 80.8597 112.026 80.0803 111.212 79.1591C110.397 78.2379 109.706 77.2104 109.139 76.0766C108.926 75.6869 108.785 75.244 108.714 74.748C108.678 74.2165 108.731 73.7205 108.873 73.2599C109.015 72.7638 109.245 72.3387 109.564 71.9844C109.883 71.5946 110.326 71.3289 110.893 71.1872C111.247 71.1163 111.637 71.0809 112.062 71.0809C112.522 71.0809 112.965 71.1517 113.391 71.2935C113.816 71.3998 114.205 71.5946 114.56 71.8781C114.914 72.1261 115.198 72.4804 115.41 72.941C115.8 73.685 116.349 74.3759 117.058 75.0137C117.802 75.616 118.581 76.112 119.396 76.5018C120.565 76.8915 121.734 77.0509 122.904 76.9801C124.108 76.9092 125.189 76.6435 126.146 76.1829C127.138 75.7223 127.935 75.1023 128.537 74.3228C129.139 73.5079 129.441 72.5867 129.441 71.5592C129.441 70.7089 129.317 70.018 129.069 69.4865C128.821 68.9196 128.466 68.459 128.006 68.1047C127.581 67.715 127.049 67.3961 126.411 67.1481C125.809 66.9001 125.136 66.6875 124.392 66.5103C123.541 66.3332 122.673 66.2092 121.788 66.1383C120.937 66.0674 120.069 65.9789 119.183 65.8726C118.298 65.7663 117.43 65.6246 116.579 65.4474C115.729 65.2702 114.896 65.0045 114.081 64.6502C112.452 63.977 111.212 62.9495 110.361 61.5677C109.511 60.1859 108.997 58.6979 108.82 57.1035C108.678 55.5091 108.873 53.9324 109.405 52.3735C109.936 50.7791 110.786 49.415 111.956 48.2812C113.089 47.2538 114.436 46.5274 115.995 46.1023C117.589 45.6417 119.343 45.3759 121.256 45.3051C122.319 45.2696 123.382 45.3051 124.445 45.4114C125.543 45.5177 126.588 45.6948 127.581 45.9428C128.608 46.1908 129.547 46.5097 130.397 46.8995C131.283 47.2892 132.045 47.7498 132.683 48.2812C133.143 48.6356 133.604 49.1139 134.064 49.7162C134.525 50.2831 134.879 50.9031 135.127 51.5763C135.375 52.2141 135.446 52.8341 135.34 53.4364C135.269 54.0387 134.897 54.5525 134.224 54.9776C133.657 55.3319 133.108 55.4914 132.576 55.456C132.08 55.3851 131.602 55.2257 131.141 54.9776C130.681 54.6942 130.238 54.3753 129.813 54.021C129.387 53.6667 128.998 53.3478 128.643 53.0644C127.687 52.3558 126.5 51.8775 125.083 51.6294C123.665 51.3814 122.337 51.3283 121.097 51.47C120.317 51.5763 119.591 51.7535 118.918 52.0015C118.245 52.2495 117.66 52.5861 117.164 53.0112C116.703 53.4364 116.331 53.9679 116.048 54.6056C115.8 55.2079 115.711 55.8988 115.782 56.6783C115.818 57.2452 115.977 57.7235 116.26 58.1133C116.579 58.503 116.951 58.8219 117.376 59.0699C117.837 59.3179 118.333 59.5128 118.865 59.6545C119.396 59.7962 119.928 59.9025 120.459 59.9734C122.053 60.186 123.648 60.3454 125.242 60.4517C126.836 60.558 128.395 60.9123 129.919 61.5146C131.478 62.1169 132.807 62.9318 133.905 63.9593C135.003 64.9868 135.783 66.2269 136.243 67.6795Z" fill="#3D408A"/>
<path d="M104.499 21.02C103.927 20.4272 103.397 19.7855 102.91 19.0948C102.448 18.3862 102.097 17.618 101.858 16.7904C101.525 15.7221 101.443 14.6296 101.613 13.5131C101.783 12.3965 102.142 11.3574 102.689 10.3957C103.27 9.37238 103.954 8.4679 104.741 7.68228C105.535 6.85302 106.403 6.1825 107.345 5.67073C108.313 5.14089 109.332 4.76604 110.404 4.54618C111.482 4.28267 112.619 4.20876 113.812 4.32444C115.092 4.45516 116.25 4.84547 117.284 5.49538C118.325 6.10164 119.202 6.88173 119.914 7.83566C120.651 8.77152 121.222 9.82478 121.627 10.9954C122.04 12.1225 122.266 13.2849 122.307 14.4827C122.307 14.4827 122.312 14.5173 122.323 14.5865C122.304 15.4818 122.184 16.3712 121.964 17.2545C121.727 18.1123 121.555 18.9813 121.448 19.8617C121.301 20.8473 121.393 21.6832 121.724 22.3693C122.037 23.0299 122.404 23.7672 122.826 24.5812C123.255 25.3516 123.505 26.1137 123.578 26.8676C123.657 27.5778 123.292 28.2001 122.481 28.7345C121.926 29.0882 121.399 29.2109 120.901 29.1026C120.41 28.9507 119.948 28.7025 119.513 28.358C119.085 27.9698 118.713 27.5237 118.395 27.0196C118.06 26.49 117.782 26.0153 117.562 25.5955C117.083 24.5919 116.769 23.5491 116.618 22.4672C116.449 21.3597 116.406 20.2401 116.489 19.1085C116.55 18.4901 116.639 17.9099 116.755 17.3682C116.853 16.8009 116.916 16.2388 116.944 15.6821C116.973 15.1253 116.945 14.57 116.861 14.0163C116.776 13.4625 116.583 12.89 116.28 12.2987C116.014 11.7585 115.632 11.2996 115.136 10.922C114.621 10.5188 114.075 10.2337 113.497 10.0667C112.901 9.87423 112.295 9.8036 111.68 9.85486C111.046 9.88054 110.465 10.0612 109.935 10.3969C109.456 10.6964 109.016 11.1035 108.612 11.6182C108.191 12.1073 107.871 12.6589 107.653 13.2728C107.417 13.8613 107.303 14.4594 107.311 15.0674C107.344 15.6572 107.554 16.1989 107.941 16.6924C108.183 16.9813 108.46 17.2649 108.771 17.5433C109.09 17.7779 109.371 18.0397 109.613 18.3286C109.863 18.5739 110.049 18.8643 110.171 19.1998C110.319 19.5173 110.342 19.9033 110.241 20.3577C110.088 21.1177 109.781 21.6602 109.321 21.9853C108.842 22.2848 108.312 22.4294 107.729 22.4189C107.147 22.4085 106.562 22.2852 105.973 22.049C105.392 21.7692 104.901 21.4262 104.499 21.02ZM129.068 32.363C129.592 33.1047 129.78 33.9685 129.633 34.9541C129.493 35.8961 129.065 36.62 128.349 37.1257C127.658 37.6134 126.845 37.7655 125.911 37.582C124.94 37.3475 124.202 36.8721 123.696 36.1559C123.137 35.3629 122.936 34.5082 123.093 33.5918C123.215 32.6242 123.621 31.8966 124.312 31.4089C125.028 30.9032 125.862 30.7548 126.815 30.9639C127.775 31.1292 128.526 31.5956 129.068 32.363Z" fill="#3D408A"/>
</svg>
