<svg width="370" height="299" viewBox="0 0 370 299" fill="none" xmlns="http://www.w3.org/2000/svg">
<g clip-path="url(#clip0_1276_2811)">
<rect y="0.294922" width="370" height="298.295" rx="11.4729" fill="#3D408A"/>
<ellipse cx="301.845" cy="178.295" rx="130.094" ry="237.933" transform="rotate(37.7131 301.845 178.295)" fill="white"/>
<path d="M314.544 132.745V133.275C314.456 133.275 314.456 133.275 314.368 133.275C312.78 133.275 310.664 133.275 308.9 133.715C294.349 135.92 282.797 147.296 280.24 161.935C280.151 162.111 280.151 162.376 280.151 162.552C279.71 164.581 279.622 166.521 279.622 168.02C279.622 180.631 286.413 191.566 296.554 197.651C288.353 201.178 281.298 207.087 276.448 214.935C275.037 217.14 273.89 219.344 272.92 221.725H250.785C242.055 221.725 235 214.671 235 205.94V203.559C235 185.128 246.111 169.343 261.985 162.464C251.844 156.379 245.053 145.444 245.053 132.745C245.053 113.609 260.662 98 279.799 98C298.935 98 314.544 113.609 314.544 132.745Z" fill="#FCD660"/>
<path d="M359.167 238.834V241.215C359.167 249.946 352.112 257.001 343.381 257.001H285.355C276.624 257.001 269.569 249.946 269.569 241.215V238.834C269.569 232.838 270.716 227.106 272.921 221.726C273.891 219.345 275.037 217.141 276.448 214.936C281.298 207.087 288.353 201.179 296.554 197.651C286.413 191.567 279.623 180.631 279.623 168.021C279.623 166.522 279.711 164.582 280.152 162.553C280.152 162.377 280.152 162.112 280.24 161.936C282.797 147.297 294.35 135.921 308.901 133.716C310.664 133.275 312.781 133.275 314.368 133.275C314.456 133.275 314.456 133.275 314.544 133.275C333.593 133.364 349.114 148.884 349.114 168.021C349.114 180.543 342.411 191.655 332.182 197.74C337.297 199.944 341.97 203.031 346.027 207.087C354.493 215.553 359.167 226.841 359.167 238.834Z" fill="#3D408A"/>
<g filter="url(#filter0_d_1276_2811)">
<rect x="24.5" y="212.442" width="205.556" height="56" rx="28" fill="#DDB948" shape-rendering="crispEdges"/>
<rect x="24.978" y="212.92" width="204.599" height="55.0439" rx="27.522" stroke="black" stroke-width="0.956072" shape-rendering="crispEdges"/>
<path d="M80.3808 246.75H77.5051V236.853L74.0039 244.397H71.7818L68.2899 236.881V246.75H65.4142V232.745H69.0648L72.8928 241.204L76.7209 232.745H80.3808V246.75ZM90.9966 246.75H88.6624L88.5224 245.639C88.18 246.05 87.7568 246.37 87.2526 246.601C86.7484 246.825 86.1944 246.937 85.5907 246.937C84.9371 246.937 84.3551 246.812 83.8447 246.563C83.3343 246.308 82.9328 245.959 82.6403 245.518C82.3477 245.069 82.2015 244.562 82.2015 243.996C82.2015 243.398 82.3602 242.872 82.6776 242.418C82.9951 241.963 83.4308 241.609 83.9848 241.353C84.545 241.092 85.1799 240.961 85.8894 240.961C86.3065 240.961 86.7235 241.008 87.1406 241.101C87.5638 241.195 87.956 241.325 88.317 241.493V241.251C88.317 240.877 88.2112 240.557 87.9995 240.289C87.7941 240.015 87.5078 239.804 87.1406 239.654C86.7795 239.505 86.3749 239.43 85.9268 239.43C85.4973 239.43 85.0709 239.499 84.6477 239.635C84.2306 239.772 83.8447 239.978 83.4899 240.252L82.7617 238.207C83.3903 237.883 84.0252 237.641 84.6663 237.479C85.3137 237.311 85.9392 237.227 86.543 237.227C87.4518 237.227 88.2392 237.407 88.9052 237.768C89.5712 238.123 90.0847 238.627 90.4457 239.281C90.813 239.928 90.9966 240.697 90.9966 241.587V246.75ZM86.1789 244.873C86.5337 244.873 86.8729 244.796 87.1966 244.64C87.5202 244.484 87.7817 244.273 87.9808 244.005C88.1863 243.737 88.2952 243.442 88.3076 243.118V243.053C88.0338 242.866 87.7288 242.723 87.3926 242.623C87.0627 242.517 86.7266 242.464 86.3843 242.464C85.8739 242.464 85.4568 242.577 85.1332 242.801C84.8095 243.025 84.6477 243.314 84.6477 243.669C84.6477 243.899 84.713 244.108 84.8437 244.294C84.9807 244.475 85.1643 244.618 85.3946 244.724C85.6249 244.824 85.8863 244.873 86.1789 244.873ZM102.406 246.75H99.7264V241.97C99.7264 241.241 99.5521 240.672 99.2035 240.261C98.8612 239.844 98.3912 239.635 97.7937 239.635C97.1712 239.635 96.6764 239.853 96.3091 240.289C95.9481 240.719 95.7676 241.304 95.7676 242.044V246.75H93.088V237.413H95.2541L95.3475 238.907C95.6836 238.359 96.1224 237.942 96.6639 237.656C97.2055 237.37 97.8435 237.227 98.5779 237.227C99.7668 237.227 100.7 237.594 101.379 238.328C102.064 239.057 102.406 240.065 102.406 241.353V246.75ZM112.826 246.75H110.491L110.351 245.639C110.009 246.05 109.586 246.37 109.082 246.601C108.577 246.825 108.024 246.937 107.42 246.937C106.766 246.937 106.184 246.812 105.674 246.563C105.163 246.308 104.762 245.959 104.469 245.518C104.177 245.069 104.031 244.562 104.031 243.996C104.031 243.398 104.189 242.872 104.507 242.418C104.824 241.963 105.26 241.609 105.814 241.353C106.374 241.092 107.009 240.961 107.719 240.961C108.136 240.961 108.553 241.008 108.97 241.101C109.393 241.195 109.785 241.325 110.146 241.493V241.251C110.146 240.877 110.04 240.557 109.829 240.289C109.623 240.015 109.337 239.804 108.97 239.654C108.609 239.505 108.204 239.43 107.756 239.43C107.326 239.43 106.9 239.499 106.477 239.635C106.06 239.772 105.674 239.978 105.319 240.252L104.591 238.207C105.219 237.883 105.854 237.641 106.495 237.479C107.143 237.311 107.768 237.227 108.372 237.227C109.281 237.227 110.068 237.407 110.734 237.768C111.4 238.123 111.914 238.627 112.275 239.281C112.642 239.928 112.826 240.697 112.826 241.587V246.75ZM108.008 244.873C108.363 244.873 108.702 244.796 109.026 244.64C109.349 244.484 109.611 244.273 109.81 244.005C110.015 243.737 110.124 243.442 110.137 243.118V243.053C109.863 242.866 109.558 242.723 109.222 242.623C108.892 242.517 108.556 242.464 108.213 242.464C107.703 242.464 107.286 242.577 106.962 242.801C106.639 243.025 106.477 243.314 106.477 243.669C106.477 243.899 106.542 244.108 106.673 244.294C106.81 244.475 106.993 244.618 107.224 244.724C107.454 244.824 107.715 244.873 108.008 244.873ZM118.736 246.862C117.895 246.862 117.142 246.654 116.476 246.236C115.81 245.813 115.287 245.241 114.908 244.519C114.528 243.79 114.338 242.966 114.338 242.044C114.338 241.117 114.528 240.292 114.908 239.57C115.287 238.848 115.81 238.279 116.476 237.862C117.142 237.438 117.899 237.227 118.745 237.227C119.405 237.227 120.009 237.357 120.556 237.619C121.11 237.874 121.587 238.229 121.985 238.683L122.106 237.413H124.459V246.489C124.459 247.522 124.232 248.421 123.778 249.187C123.329 249.959 122.694 250.553 121.873 250.97C121.051 251.393 120.09 251.605 118.988 251.605C117.457 251.605 116.069 251.126 114.824 250.167L115.907 247.982C116.735 248.798 117.699 249.206 118.801 249.206C119.392 249.206 119.909 249.087 120.351 248.851C120.799 248.614 121.148 248.284 121.397 247.861C121.652 247.438 121.78 246.946 121.78 246.386V245.62C121.394 246.006 120.942 246.311 120.426 246.535C119.909 246.753 119.346 246.862 118.736 246.862ZM119.427 244.472C119.862 244.472 120.258 244.378 120.612 244.192C120.967 243.999 121.25 243.734 121.462 243.398C121.674 243.056 121.78 242.67 121.78 242.24V241.839C121.78 241.409 121.671 241.027 121.453 240.691C121.241 240.354 120.958 240.093 120.603 239.906C120.255 239.713 119.862 239.617 119.427 239.617C118.979 239.617 118.577 239.723 118.222 239.934C117.867 240.146 117.587 240.435 117.382 240.803C117.177 241.164 117.074 241.577 117.074 242.044C117.074 242.511 117.177 242.928 117.382 243.295C117.587 243.663 117.867 243.952 118.222 244.164C118.577 244.369 118.979 244.472 119.427 244.472ZM135.243 245.704C134.085 246.526 132.819 246.937 131.443 246.937C130.422 246.937 129.504 246.719 128.689 246.283C127.879 245.841 127.238 245.244 126.765 244.491C126.298 243.737 126.065 242.888 126.065 241.942C126.065 241.039 126.277 240.233 126.7 239.523C127.129 238.814 127.711 238.254 128.446 237.843C129.18 237.432 130.014 237.227 130.948 237.227C131.913 237.227 132.763 237.454 133.497 237.908C134.231 238.356 134.804 238.985 135.215 239.794C135.626 240.597 135.831 241.528 135.831 242.586V242.885H128.95C129.062 243.252 129.246 243.576 129.501 243.856C129.756 244.13 130.074 244.347 130.453 244.509C130.833 244.671 131.269 244.752 131.76 244.752C132.713 244.752 133.6 244.444 134.421 243.828L135.243 245.704ZM128.829 241.521H133.357C133.307 241.117 133.18 240.762 132.974 240.457C132.775 240.146 132.51 239.903 132.181 239.729C131.857 239.555 131.493 239.467 131.088 239.467C130.677 239.467 130.31 239.558 129.986 239.738C129.669 239.919 129.411 240.161 129.211 240.466C129.012 240.771 128.885 241.123 128.829 241.521ZM154.094 232.745V240.448C154.094 241.817 153.848 242.994 153.356 243.977C152.871 244.96 152.17 245.717 151.255 246.246C150.347 246.769 149.254 247.03 147.978 247.03C146.708 247.03 145.616 246.769 144.701 246.246C143.786 245.717 143.083 244.96 142.591 243.977C142.105 242.994 141.863 241.817 141.863 240.448V232.745H144.738V240.093C144.738 241.07 144.86 241.886 145.102 242.539C145.351 243.193 145.716 243.688 146.195 244.024C146.674 244.354 147.269 244.519 147.978 244.519C148.688 244.519 149.282 244.354 149.761 244.024C150.241 243.688 150.602 243.193 150.844 242.539C151.093 241.886 151.218 241.07 151.218 240.093V232.745H154.094ZM155.625 245.947L156.213 243.669C156.4 243.874 156.649 244.064 156.96 244.238C157.277 244.413 157.617 244.553 157.978 244.659C158.345 244.758 158.69 244.808 159.014 244.808C159.4 244.808 159.702 244.736 159.92 244.593C160.138 244.444 160.246 244.245 160.246 243.996C160.246 243.79 160.172 243.619 160.022 243.482C159.879 243.339 159.683 243.215 159.434 243.109C159.191 242.997 158.921 242.888 158.622 242.782C158.217 242.626 157.8 242.446 157.371 242.24C156.948 242.035 156.59 241.755 156.297 241.4C156.005 241.045 155.858 240.575 155.858 239.99C155.858 239.43 156.005 238.945 156.297 238.534C156.59 238.117 157.004 237.796 157.539 237.572C158.074 237.342 158.697 237.227 159.406 237.227C160.558 237.227 161.706 237.516 162.851 238.095L162.095 240.214C161.896 240.059 161.647 239.916 161.348 239.785C161.049 239.648 160.741 239.539 160.424 239.458C160.113 239.377 159.833 239.337 159.584 239.337C159.279 239.337 159.039 239.399 158.865 239.523C158.697 239.648 158.613 239.819 158.613 240.037C158.613 240.199 158.672 240.345 158.79 240.476C158.908 240.6 159.083 240.722 159.313 240.84C159.549 240.952 159.839 241.073 160.181 241.204C160.604 241.36 161.031 241.546 161.46 241.764C161.896 241.976 162.26 242.262 162.553 242.623C162.851 242.978 163.001 243.451 163.001 244.042C163.001 244.621 162.842 245.129 162.525 245.564C162.213 246 161.771 246.339 161.199 246.582C160.632 246.818 159.966 246.937 159.201 246.937C157.925 246.937 156.733 246.607 155.625 245.947ZM173.224 245.704C172.067 246.526 170.8 246.937 169.424 246.937C168.404 246.937 167.485 246.719 166.67 246.283C165.861 245.841 165.22 245.244 164.747 244.491C164.28 243.737 164.046 242.888 164.046 241.942C164.046 241.039 164.258 240.233 164.681 239.523C165.111 238.814 165.693 238.254 166.427 237.843C167.162 237.432 167.996 237.227 168.93 237.227C169.894 237.227 170.744 237.454 171.478 237.908C172.213 238.356 172.786 238.985 173.196 239.794C173.607 240.597 173.813 241.528 173.813 242.586V242.885H166.932C167.044 243.252 167.227 243.576 167.482 243.856C167.738 244.13 168.055 244.347 168.435 244.509C168.814 244.671 169.25 244.752 169.742 244.752C170.694 244.752 171.581 244.444 172.403 243.828L173.224 245.704ZM166.81 241.521H171.338C171.289 241.117 171.161 240.762 170.956 240.457C170.756 240.146 170.492 239.903 170.162 239.729C169.838 239.555 169.474 239.467 169.07 239.467C168.659 239.467 168.292 239.558 167.968 239.738C167.65 239.919 167.392 240.161 167.193 240.466C166.994 240.771 166.866 241.123 166.81 241.521ZM178.192 246.75H175.512V237.413H177.846L177.939 239.029C178.251 238.462 178.674 238.02 179.209 237.703C179.745 237.385 180.358 237.227 181.049 237.227C181.248 237.227 181.447 237.242 181.646 237.273C181.851 237.298 182.06 237.339 182.272 237.395L181.936 239.804C181.525 239.685 181.136 239.626 180.768 239.626C180.252 239.626 179.797 239.744 179.405 239.981C179.019 240.211 178.721 240.535 178.509 240.952C178.297 241.363 178.192 241.845 178.192 242.399V246.75ZM182.85 245.947L183.439 243.669C183.625 243.874 183.874 244.064 184.186 244.238C184.503 244.413 184.842 244.553 185.203 244.659C185.571 244.758 185.916 244.808 186.24 244.808C186.626 244.808 186.927 244.736 187.145 244.593C187.363 244.444 187.472 244.245 187.472 243.996C187.472 243.79 187.397 243.619 187.248 243.482C187.105 243.339 186.909 243.215 186.66 243.109C186.417 242.997 186.146 242.888 185.848 242.782C185.443 242.626 185.026 242.446 184.596 242.24C184.173 242.035 183.815 241.755 183.523 241.4C183.23 241.045 183.084 240.575 183.084 239.99C183.084 239.43 183.23 238.945 183.523 238.534C183.815 238.117 184.229 237.796 184.765 237.572C185.3 237.342 185.922 237.227 186.632 237.227C187.783 237.227 188.932 237.516 190.077 238.095L189.321 240.214C189.122 240.059 188.873 239.916 188.574 239.785C188.275 239.648 187.967 239.539 187.65 239.458C187.338 239.377 187.058 239.337 186.809 239.337C186.504 239.337 186.265 239.399 186.09 239.523C185.922 239.648 185.838 239.819 185.838 240.037C185.838 240.199 185.897 240.345 186.016 240.476C186.134 240.6 186.308 240.722 186.538 240.84C186.775 240.952 187.064 241.073 187.407 241.204C187.83 241.36 188.256 241.546 188.686 241.764C189.122 241.976 189.486 242.262 189.778 242.623C190.077 242.978 190.226 243.451 190.226 244.042C190.226 244.621 190.068 245.129 189.75 245.564C189.439 246 188.997 246.339 188.424 246.582C187.858 246.818 187.192 246.937 186.426 246.937C185.15 246.937 183.958 246.607 182.85 245.947Z" fill="black"/>
</g>
<path d="M64.6787 66.417H58.5165V40.1577L48.7831 60.5349H43.8113L34.1245 40.2744V66.417H27.9623V31.4046H35.8051L46.3089 53.7892L56.7892 31.4046H64.6787V66.417ZM91.0781 66.417H86.083L85.7562 63.546C84.9003 64.6041 83.8344 65.4289 82.5584 66.0202C81.2824 66.5959 79.8663 66.8838 78.3102 66.8838C76.6607 66.8838 75.1902 66.5648 73.8986 65.9268C72.6071 65.2733 71.5878 64.3863 70.8409 63.2659C70.1095 62.1455 69.7438 60.8695 69.7438 59.4379C69.7438 57.9284 70.1406 56.6057 70.9342 55.4698C71.7434 54.3183 72.8405 53.4157 74.2254 52.7621C75.6259 52.1086 77.2209 51.7818 79.0104 51.7818C80.0997 51.7818 81.189 51.9063 82.2783 52.1553C83.3831 52.4042 84.4024 52.7544 85.336 53.2056V52.4587C85.336 51.4317 85.0559 50.5447 84.4957 49.7978C83.9355 49.0508 83.1808 48.4751 82.2316 48.0705C81.2824 47.6503 80.2164 47.4403 79.0338 47.4403C77.9601 47.4403 76.8864 47.627 75.8126 48.0005C74.7389 48.3584 73.7352 48.8952 72.8016 49.611L71.1677 45.1061C72.6615 44.2814 74.1865 43.6589 75.7426 43.2388C77.3143 42.8186 78.8471 42.6085 80.3409 42.6085C82.535 42.6085 84.4335 43.0443 86.0363 43.9157C87.6391 44.7715 88.8762 46.0009 89.7476 47.6037C90.6346 49.1909 91.0781 51.066 91.0781 53.229V66.417ZM79.5006 62.2622C80.5121 62.2622 81.4458 62.0521 82.3016 61.632C83.173 61.2118 83.8811 60.6283 84.4257 59.8813C84.9859 59.1188 85.2816 58.2474 85.3127 57.2671V57.0103C84.5813 56.4812 83.7566 56.0767 82.8385 55.7966C81.9204 55.5009 80.9945 55.3531 80.0608 55.3531C78.6292 55.3531 77.4543 55.6799 76.5362 56.3334C75.6181 56.9714 75.1591 57.8117 75.1591 58.8543C75.1591 59.4923 75.3458 60.0759 75.7193 60.6049C76.0927 61.1184 76.6063 61.523 77.2598 61.8187C77.929 62.1144 78.6759 62.2622 79.5006 62.2622ZM119.625 66.417H113.883V54.0926C113.883 52.1475 113.385 50.6147 112.389 49.4943C111.393 48.3584 110.047 47.7904 108.351 47.7904C106.608 47.7904 105.208 48.3895 104.149 49.5877C103.091 50.7703 102.562 52.3653 102.562 54.3727V66.417H96.8201V43.0754H101.558L101.745 46.8334C102.585 45.464 103.69 44.4214 105.06 43.7056C106.445 42.9742 108.063 42.6085 109.915 42.6085C112.934 42.6085 115.307 43.5267 117.034 45.3629C118.761 47.1991 119.625 49.7355 119.625 52.9722V66.417ZM145.557 66.417H140.562L140.235 63.546C139.38 64.6041 138.314 65.4289 137.038 66.0202C135.762 66.5959 134.346 66.8838 132.79 66.8838C131.14 66.8838 129.67 66.5648 128.378 65.9268C127.086 65.2733 126.067 64.3863 125.32 63.2659C124.589 62.1455 124.223 60.8695 124.223 59.4379C124.223 57.9284 124.62 56.6057 125.414 55.4698C126.223 54.3183 127.32 53.4157 128.705 52.7621C130.105 52.1086 131.7 51.7818 133.49 51.7818C134.579 51.7818 135.668 51.9063 136.758 52.1553C137.862 52.4042 138.882 52.7544 139.815 53.2056V52.4587C139.815 51.4317 139.535 50.5447 138.975 49.7978C138.415 49.0508 137.66 48.4751 136.711 48.0705C135.762 47.6503 134.696 47.4403 133.513 47.4403C132.439 47.4403 131.366 47.627 130.292 48.0005C129.218 48.3584 128.215 48.8952 127.281 49.611L125.647 45.1061C127.141 44.2814 128.666 43.6589 130.222 43.2388C131.794 42.8186 133.326 42.6085 134.82 42.6085C137.014 42.6085 138.913 43.0443 140.516 43.9157C142.118 44.7715 143.355 46.0009 144.227 47.6037C145.114 49.1909 145.557 51.066 145.557 53.229V66.417ZM133.98 62.2622C134.991 62.2622 135.925 62.0521 136.781 61.632C137.652 61.2118 138.36 60.6283 138.905 59.8813C139.465 59.1188 139.761 58.2474 139.792 57.2671V57.0103C139.061 56.4812 138.236 56.0767 137.318 55.7966C136.4 55.5009 135.474 55.3531 134.54 55.3531C133.109 55.3531 131.934 55.6799 131.016 56.3334C130.097 56.9714 129.638 57.8117 129.638 58.8543C129.638 59.4923 129.825 60.0759 130.199 60.6049C130.572 61.1184 131.086 61.523 131.739 61.8187C132.408 62.1144 133.155 62.2622 133.98 62.2622ZM160.986 66.6037C158.823 66.6037 156.894 66.0824 155.197 65.0398C153.501 63.9972 152.163 62.5734 151.183 60.7683C150.202 58.9477 149.712 56.8936 149.712 54.6061C149.712 52.3031 150.202 50.249 151.183 48.444C152.163 46.6389 153.501 45.215 155.197 44.1724C156.894 43.1298 158.823 42.6085 160.986 42.6085C162.682 42.6085 164.246 42.9353 165.678 43.5889C167.109 44.2425 168.323 45.1528 169.319 46.3199L169.599 43.0754H174.641V65.7868C174.641 68.3699 174.089 70.6185 172.984 72.5325C171.894 74.4465 170.354 75.9248 168.362 76.9674C166.37 78.0256 164.013 78.5546 161.29 78.5546C157.508 78.5546 154.124 77.3486 151.136 74.9367L153.494 70.245C155.579 72.3458 158.053 73.3961 160.916 73.3961C162.535 73.3961 163.935 73.0694 165.118 72.4158C166.316 71.7778 167.242 70.8675 167.895 69.6848C168.564 68.5177 168.899 67.1484 168.899 65.5767V63.3359C167.903 64.3629 166.728 65.1643 165.374 65.7401C164.021 66.3158 162.558 66.6037 160.986 66.6037ZM162.247 61.4919C163.476 61.4919 164.589 61.2196 165.584 60.675C166.596 60.1148 167.397 59.3523 167.989 58.3875C168.596 57.4227 168.899 56.3256 168.899 55.0963V54.0693C168.899 52.84 168.596 51.7507 167.989 50.8015C167.397 49.8522 166.596 49.1053 165.584 48.5607C164.573 48.0005 163.46 47.7204 162.247 47.7204C160.971 47.7204 159.827 48.0238 158.815 48.6307C157.804 49.222 157.003 50.039 156.411 51.0816C155.835 52.1241 155.548 53.299 155.548 54.6061C155.548 55.9133 155.835 57.0881 156.411 58.1307C157.003 59.1733 157.804 59.998 158.815 60.6049C159.827 61.1963 160.971 61.4919 162.247 61.4919ZM201.787 63.7094C198.877 65.8257 195.695 66.8838 192.241 66.8838C189.735 66.8838 187.487 66.3392 185.495 65.2499C183.503 64.1606 181.924 62.6746 180.757 60.7917C179.605 58.8932 179.029 56.7613 179.029 54.3961C179.029 52.1397 179.551 50.1245 180.593 48.3506C181.651 46.5766 183.091 45.1761 184.911 44.1491C186.748 43.1221 188.817 42.6085 191.12 42.6085C193.517 42.6085 195.617 43.1765 197.422 44.3125C199.243 45.4329 200.659 46.9968 201.671 49.0042C202.682 50.996 203.188 53.3146 203.188 55.96V56.7069H185.215C185.495 57.765 185.985 58.6987 186.685 59.5079C187.401 60.3171 188.288 60.9473 189.346 61.3985C190.404 61.8498 191.595 62.0755 192.918 62.0755C195.407 62.0755 197.71 61.2663 199.827 59.6479L201.787 63.7094ZM184.981 53.3457H197.866C197.741 52.1786 197.384 51.1594 196.792 50.2879C196.216 49.4165 195.462 48.7396 194.528 48.2572C193.61 47.7593 192.575 47.5103 191.424 47.5103C190.257 47.5103 189.214 47.7593 188.296 48.2572C187.378 48.7552 186.631 49.4476 186.055 50.3346C185.479 51.206 185.121 52.2097 184.981 53.3457ZM210.307 66.8838C209.436 66.8838 208.735 66.6193 208.206 66.0902C207.677 65.5611 207.413 64.8687 207.413 64.0128C207.413 63.1414 207.677 62.4411 208.206 61.9121C208.735 61.3674 209.436 61.0951 210.307 61.0951C211.163 61.0951 211.855 61.3674 212.384 61.9121C212.929 62.4411 213.201 63.1414 213.201 64.0128C213.201 64.8687 212.929 65.5611 212.384 66.0902C211.855 66.6193 211.163 66.8838 210.307 66.8838Z" fill="#FFEF9D"/>
</g>
<rect x="0.478036" y="0.772958" width="369.044" height="297.339" rx="10.9948" stroke="black" stroke-width="0.956072"/>
<defs>
<filter id="filter0_d_1276_2811" x="15.5129" y="207.28" width="223.53" height="73.9742" filterUnits="userSpaceOnUse" color-interpolation-filters="sRGB">
<feFlood flood-opacity="0" result="BackgroundImageFix"/>
<feColorMatrix in="SourceAlpha" type="matrix" values="0 0 0 0 0 0 0 0 0 0 0 0 0 0 0 0 0 0 127 0" result="hardAlpha"/>
<feOffset dy="3.82429"/>
<feGaussianBlur stdDeviation="4.49354"/>
<feComposite in2="hardAlpha" operator="out"/>
<feColorMatrix type="matrix" values="0 0 0 0 0 0 0 0 0 0 0 0 0 0 0 0 0 0 0.38 0"/>
<feBlend mode="normal" in2="BackgroundImageFix" result="effect1_dropShadow_1276_2811"/>
<feBlend mode="normal" in="SourceGraphic" in2="effect1_dropShadow_1276_2811" result="shape"/>
</filter>
<clipPath id="clip0_1276_2811">
<rect y="0.294922" width="370" height="298.295" rx="11.4729" fill="white"/>
</clipPath>
</defs>
</svg>
