<svg width="370" height="299" viewBox="0 0 370 299" fill="none" xmlns="http://www.w3.org/2000/svg">
<g clip-path="url(#clip0_2175_3121)">
<rect y="0.294922" width="370" height="298.295" rx="11.4729" fill="#3D408A"/>
<ellipse cx="301.845" cy="178.295" rx="130.094" ry="237.933" transform="rotate(37.7131 301.845 178.295)" fill="white"/>
<path d="M314.544 132.745V133.275C314.456 133.275 314.456 133.275 314.368 133.275C312.78 133.275 310.664 133.275 308.9 133.715C294.349 135.92 282.797 147.296 280.24 161.935C280.151 162.111 280.151 162.376 280.151 162.552C279.71 164.581 279.622 166.521 279.622 168.02C279.622 180.631 286.413 191.566 296.554 197.651C288.353 201.178 281.298 207.087 276.448 214.935C275.037 217.14 273.89 219.344 272.92 221.725H250.785C242.055 221.725 235 214.671 235 205.94V203.559C235 185.128 246.111 169.343 261.985 162.464C251.844 156.379 245.053 145.444 245.053 132.745C245.053 113.609 260.662 98 279.799 98C298.935 98 314.544 113.609 314.544 132.745Z" fill="#FCD660"/>
<path d="M359.167 238.834V241.215C359.167 249.946 352.112 257.001 343.381 257.001H285.355C276.624 257.001 269.569 249.946 269.569 241.215V238.834C269.569 232.838 270.716 227.106 272.92 221.726C273.89 219.345 275.037 217.141 276.448 214.936C281.298 207.087 288.353 201.179 296.554 197.651C286.413 191.567 279.623 180.631 279.623 168.021C279.623 166.522 279.711 164.582 280.152 162.553C280.152 162.377 280.152 162.112 280.24 161.936C282.797 147.297 294.35 135.921 308.9 133.716C310.664 133.275 312.781 133.275 314.368 133.275C314.456 133.275 314.456 133.275 314.544 133.275C333.593 133.364 349.113 148.884 349.113 168.021C349.113 180.543 342.411 191.655 332.182 197.74C337.296 199.944 341.97 203.031 346.027 207.087C354.493 215.553 359.167 226.841 359.167 238.834Z" fill="#3D408A"/>
<path d="M64.6782 66.417H58.516V40.1577L48.7826 60.5349H43.8108L34.124 40.2744V66.417H27.9619V31.4046H35.8046L46.3084 53.7892L56.7887 31.4046H64.6782V66.417ZM91.0776 66.417H86.0825L85.7557 63.546C84.8998 64.6041 83.8339 65.4289 82.5579 66.0202C81.2819 66.5959 79.8658 66.8838 78.3097 66.8838C76.6602 66.8838 75.1897 66.5648 73.8981 65.9268C72.6066 65.2733 71.5873 64.3863 70.8404 63.2659C70.109 62.1455 69.7433 60.8695 69.7433 59.4379C69.7433 57.9284 70.1401 56.6057 70.9338 55.4698C71.7429 54.3183 72.84 53.4157 74.2249 52.7621C75.6254 52.1086 77.2204 51.7818 79.01 51.7818C80.0992 51.7818 81.1885 51.9063 82.2778 52.1553C83.3826 52.4042 84.4019 52.7544 85.3355 53.2056V52.4587C85.3355 51.4317 85.0554 50.5447 84.4952 49.7978C83.935 49.0508 83.1803 48.4751 82.2311 48.0705C81.2819 47.6503 80.2159 47.4403 79.0333 47.4403C77.9596 47.4403 76.8859 47.627 75.8122 48.0005C74.7384 48.3584 73.7348 48.8952 72.8011 49.611L71.1672 45.1061C72.661 44.2814 74.186 43.6589 75.7421 43.2388C77.3138 42.8186 78.8466 42.6085 80.3404 42.6085C82.5345 42.6085 84.433 43.0443 86.0358 43.9157C87.6386 44.7715 88.8757 46.0009 89.7471 47.6037C90.6341 49.1909 91.0776 51.066 91.0776 53.229V66.417ZM79.5001 62.2622C80.5116 62.2622 81.4453 62.0521 82.3011 61.632C83.1725 61.2118 83.8806 60.6283 84.4252 59.8813C84.9854 59.1188 85.2811 58.2474 85.3122 57.2671V57.0103C84.5808 56.4812 83.7561 56.0767 82.838 55.7966C81.9199 55.5009 80.994 55.3531 80.0603 55.3531C78.6287 55.3531 77.4539 55.6799 76.5357 56.3334C75.6176 56.9714 75.1586 57.8117 75.1586 58.8543C75.1586 59.4923 75.3453 60.0759 75.7188 60.6049C76.0923 61.1184 76.6058 61.523 77.2593 61.8187C77.9285 62.1144 78.6754 62.2622 79.5001 62.2622ZM119.624 66.417H113.882V54.0926C113.882 52.1475 113.384 50.6147 112.388 49.4943C111.393 48.3584 110.047 47.7904 108.35 47.7904C106.608 47.7904 105.207 48.3895 104.149 49.5877C103.091 50.7703 102.562 52.3653 102.562 54.3727V66.417H96.8196V43.0754H101.558L101.745 46.8334C102.585 45.464 103.69 44.4214 105.059 43.7056C106.444 42.9742 108.062 42.6085 109.914 42.6085C112.933 42.6085 115.306 43.5267 117.033 45.3629C118.761 47.1991 119.624 49.7355 119.624 52.9722V66.417ZM145.557 66.417H140.562L140.235 63.546C139.379 64.6041 138.313 65.4289 137.037 66.0202C135.761 66.5959 134.345 66.8838 132.789 66.8838C131.14 66.8838 129.669 66.5648 128.377 65.9268C127.086 65.2733 126.067 64.3863 125.32 63.2659C124.588 62.1455 124.223 60.8695 124.223 59.4379C124.223 57.9284 124.619 56.6057 125.413 55.4698C126.222 54.3183 127.319 53.4157 128.704 52.7621C130.105 52.1086 131.7 51.7818 133.489 51.7818C134.579 51.7818 135.668 51.9063 136.757 52.1553C137.862 52.4042 138.881 52.7544 139.815 53.2056V52.4587C139.815 51.4317 139.535 50.5447 138.975 49.7978C138.414 49.0508 137.66 48.4751 136.71 48.0705C135.761 47.6503 134.695 47.4403 133.513 47.4403C132.439 47.4403 131.365 47.627 130.291 48.0005C129.218 48.3584 128.214 48.8952 127.28 49.611L125.646 45.1061C127.14 44.2814 128.665 43.6589 130.221 43.2388C131.793 42.8186 133.326 42.6085 134.82 42.6085C137.014 42.6085 138.912 43.0443 140.515 43.9157C142.118 44.7715 143.355 46.0009 144.226 47.6037C145.113 49.1909 145.557 51.066 145.557 53.229V66.417ZM133.979 62.2622C134.991 62.2622 135.925 62.0521 136.78 61.632C137.652 61.2118 138.36 60.6283 138.905 59.8813C139.465 59.1188 139.76 58.2474 139.792 57.2671V57.0103C139.06 56.4812 138.235 56.0767 137.317 55.7966C136.399 55.5009 135.473 55.3531 134.54 55.3531C133.108 55.3531 131.933 55.6799 131.015 56.3334C130.097 56.9714 129.638 57.8117 129.638 58.8543C129.638 59.4923 129.825 60.0759 130.198 60.6049C130.572 61.1184 131.085 61.523 131.739 61.8187C132.408 62.1144 133.155 62.2622 133.979 62.2622ZM160.986 66.6037C158.823 66.6037 156.893 66.0824 155.197 65.0398C153.501 63.9972 152.163 62.5734 151.182 60.7683C150.202 58.9477 149.712 56.8936 149.712 54.6061C149.712 52.3031 150.202 50.249 151.182 48.444C152.163 46.6389 153.501 45.215 155.197 44.1724C156.893 43.1298 158.823 42.6085 160.986 42.6085C162.682 42.6085 164.246 42.9353 165.677 43.5889C167.109 44.2425 168.323 45.1528 169.319 46.3199L169.599 43.0754H174.641V65.7868C174.641 68.3699 174.088 70.6185 172.983 72.5325C171.894 74.4465 170.353 75.9248 168.362 76.9674C166.37 78.0256 164.012 78.5546 161.289 78.5546C157.508 78.5546 154.123 77.3486 151.136 74.9367L153.493 70.245C155.578 72.3458 158.052 73.3961 160.916 73.3961C162.534 73.3961 163.935 73.0694 165.117 72.4158C166.315 71.7778 167.241 70.8675 167.895 69.6848C168.564 68.5177 168.898 67.1484 168.898 65.5767V63.3359C167.903 64.3629 166.728 65.1643 165.374 65.7401C164.02 66.3158 162.557 66.6037 160.986 66.6037ZM162.246 61.4919C163.475 61.4919 164.588 61.2196 165.584 60.675C166.595 60.1148 167.397 59.3523 167.988 58.3875C168.595 57.4227 168.898 56.3256 168.898 55.0963V54.0693C168.898 52.84 168.595 51.7507 167.988 50.8015C167.397 49.8522 166.595 49.1053 165.584 48.5607C164.573 48.0005 163.46 47.7204 162.246 47.7204C160.97 47.7204 159.826 48.0238 158.815 48.6307C157.803 49.222 157.002 50.039 156.411 51.0816C155.835 52.1241 155.547 53.299 155.547 54.6061C155.547 55.9133 155.835 57.0881 156.411 58.1307C157.002 59.1733 157.803 59.998 158.815 60.6049C159.826 61.1963 160.97 61.4919 162.246 61.4919ZM201.787 63.7094C198.877 65.8257 195.695 66.8838 192.24 66.8838C189.735 66.8838 187.486 66.3392 185.494 65.2499C183.503 64.1606 181.923 62.6746 180.756 60.7917C179.605 58.8932 179.029 56.7613 179.029 54.3961C179.029 52.1397 179.55 50.1245 180.593 48.3506C181.651 46.5766 183.09 45.1761 184.911 44.1491C186.747 43.1221 188.817 42.6085 191.12 42.6085C193.516 42.6085 195.617 43.1765 197.422 44.3125C199.243 45.4329 200.659 46.9968 201.67 49.0042C202.682 50.996 203.187 53.3146 203.187 55.96V56.7069H185.214C185.494 57.765 185.985 58.6987 186.685 59.5079C187.401 60.3171 188.288 60.9473 189.346 61.3985C190.404 61.8498 191.594 62.0755 192.917 62.0755C195.407 62.0755 197.71 61.2663 199.826 59.6479L201.787 63.7094ZM184.981 53.3457H197.865C197.741 52.1786 197.383 51.1594 196.792 50.2879C196.216 49.4165 195.461 48.7396 194.528 48.2572C193.609 47.7593 192.575 47.5103 191.423 47.5103C190.256 47.5103 189.213 47.7593 188.295 48.2572C187.377 48.7552 186.63 49.4476 186.055 50.3346C185.479 51.206 185.121 52.2097 184.981 53.3457ZM210.307 66.8838C209.435 66.8838 208.735 66.6193 208.206 66.0902C207.677 65.5611 207.412 64.8687 207.412 64.0128C207.412 63.1414 207.677 62.4411 208.206 61.9121C208.735 61.3674 209.435 61.0951 210.307 61.0951C211.162 61.0951 211.855 61.3674 212.384 61.9121C212.929 62.4411 213.201 63.1414 213.201 64.0128C213.201 64.8687 212.929 65.5611 212.384 66.0902C211.855 66.6193 211.162 66.8838 210.307 66.8838Z" fill="#FFEF9D"/>
</g>
<rect x="0.478036" y="0.772958" width="369.044" height="297.339" rx="10.9948" stroke="black" stroke-width="0.956072"/>
<defs>
<clipPath id="clip0_2175_3121">
<rect y="0.294922" width="370" height="298.295" rx="11.4729" fill="white"/>
</clipPath>
</defs>
</svg>
