<svg width="5" height="19" viewBox="0 0 5 19" fill="none" xmlns="http://www.w3.org/2000/svg">
<path d="M2.66824 8.16867C1.93296 8.16867 1.33691 8.76472 1.33691 9.5C1.33691 10.2353 1.93296 10.8313 2.66824 10.8313C3.4035 10.8313 3.99956 10.2353 3.99956 9.5C3.99956 8.76472 3.4035 8.16867 2.66824 8.16867ZM2.66824 15.3373C1.93296 15.3373 1.33691 15.9334 1.33691 16.6687C1.33691 17.404 1.93296 18 2.66824 18C3.4035 18 3.99956 17.404 3.99956 16.6687C3.99956 15.9334 3.4035 15.3373 2.66824 15.3373ZM2.66824 1C1.93296 1 1.33691 1.59604 1.33691 2.33133C1.33691 3.06659 1.93296 3.66265 2.66824 3.66265C3.4035 3.66265 3.99956 3.06661 3.99956 2.33133C3.99956 1.59604 3.4035 1 2.66824 1Z" fill="black" stroke="black" stroke-width="1.43373"/>
</svg>
