<svg width="29" height="22" viewBox="0 0 29 22" fill="none" xmlns="http://www.w3.org/2000/svg">
<path d="M23.7273 6.22168L18.4545 11.4717H22.4091C22.4091 15.8226 18.8698 19.3467 14.5 19.3467C13.162 19.3467 11.9098 19.012 10.8025 18.4345L8.87795 20.3507C10.5125 21.3679 12.4305 21.9717 14.5 21.9717C20.3264 21.9717 25.0455 17.2729 25.0455 11.4717H29L23.7273 6.22168ZM6.59091 11.4717C6.59091 7.12074 10.1302 3.59668 14.5 3.59668C15.838 3.59668 17.0902 3.93137 18.1975 4.50887L20.122 2.59262C18.4875 1.57543 16.5695 0.97168 14.5 0.97168C8.67364 0.97168 3.95455 5.67043 3.95455 11.4717H0L5.27273 16.7217L10.5455 11.4717H6.59091Z" fill="#3D408A"/>
</svg>
