<svg width="13" height="22" viewBox="0 0 13 22" fill="none" xmlns="http://www.w3.org/2000/svg">
<path d="M0.605178 0.617323C0.217565 1.00834 0 1.53729 0 2.08864C0 2.63998 0.217565 3.16893 0.605178 3.55995L7.9724 11.0522L0.605178 18.44C0.217565 18.8311 0 19.36 0 19.9114C0 20.4627 0.217565 20.9917 0.605178 21.3827C0.798647 21.5783 1.02882 21.7335 1.28243 21.8395C1.53603 21.9455 1.80805 22 2.08278 22C2.35752 22 2.62954 21.9455 2.88314 21.8395C3.13675 21.7335 3.36692 21.5783 3.56039 21.3827L12.3844 12.5339C12.5795 12.3399 12.7343 12.1091 12.8399 11.8548C12.9456 11.6005 13 11.3277 13 11.0522C13 10.7767 12.9456 10.5039 12.8399 10.2496C12.7343 9.99526 12.5795 9.76444 12.3844 9.57043L3.56039 0.617323C3.36692 0.421714 3.13675 0.266456 2.88314 0.160503C2.62954 0.0545507 2.35752 0 2.08278 0C1.80805 0 1.53603 0.0545507 1.28243 0.160503C1.02882 0.266456 0.798647 0.421714 0.605178 0.617323Z" fill="#3D408A"/>
</svg>
