<svg width="31" height="25" viewBox="0 0 31 25" fill="none" xmlns="http://www.w3.org/2000/svg">
<path fill-rule="evenodd" clip-rule="evenodd" d="M6.18457 10.5H4.18457V0.5H6.18457V10.5ZM4.18457 24.5H6.18457V18.5H4.18457V24.5ZM14.1846 24.5H16.1846V12.5H14.1846V24.5ZM24.1846 24.5H26.1846V20.5H24.1846V24.5ZM26.1846 0.5H24.1846V12.5H26.1846V0.5ZM16.1846 0.5H14.1846V4.5H16.1846V0.5ZM8.18457 12.5H2.18457C1.08457 12.5 0.18457 13.4 0.18457 14.5C0.18457 15.6 1.08457 16.5 2.18457 16.5H8.18457C9.28457 16.5 10.1846 15.6 10.1846 14.5C10.1846 13.4 9.28457 12.5 8.18457 12.5ZM18.1846 6.5H12.1846C11.0846 6.5 10.1846 7.4 10.1846 8.5C10.1846 9.6 11.0846 10.5 12.1846 10.5H18.1846C19.2846 10.5 20.1846 9.6 20.1846 8.5C20.1846 7.4 19.2846 6.5 18.1846 6.5ZM28.1846 14.5H22.1846C21.0846 14.5 20.1846 15.4 20.1846 16.5C20.1846 17.6 21.0846 18.5 22.1846 18.5H28.1846C29.2846 18.5 30.1846 17.6 30.1846 16.5C30.1846 15.4 29.2846 14.5 28.1846 14.5Z" fill="black"/>
</svg>
