<svg width="109" height="68" viewBox="0 0 109 68" fill="none" xmlns="http://www.w3.org/2000/svg">
<path d="M20.052 14.0672C20.1229 14.404 20.1229 14.7586 20.052 15.1309C20.0165 15.3082 19.981 15.4855 19.9456 15.6628C19.9279 15.8224 19.9013 15.9908 19.8658 16.1681L19.8392 16.2745C19.591 17.3737 19.3073 18.535 18.9882 19.7583C18.6868 20.9639 18.412 22.1074 18.1638 23.1889C17.951 24.0754 17.7294 25.0505 17.4989 26.1143C17.2684 27.1781 17.0291 28.1532 16.7809 29.0396C16.6922 29.341 16.5947 29.6424 16.4884 29.9438C16.3997 30.2452 16.2845 30.5466 16.1426 30.848C16.0185 31.114 15.8678 31.3533 15.6905 31.5661C15.531 31.7611 15.3448 31.9029 15.1321 31.9916C14.9193 32.098 14.6888 32.1334 14.4406 32.098C14.2101 32.0802 13.953 31.9739 13.6694 31.7788C13.2439 31.4774 12.9247 31.0608 12.712 30.5289C12.517 29.997 12.3131 29.5095 12.1003 29.0662C12.0294 28.9421 11.923 28.6673 11.7812 28.2418C11.6394 27.8163 11.4887 27.3554 11.3291 26.8589C11.1695 26.3448 11.01 25.8572 10.8504 25.3963C10.7086 24.9176 10.5845 24.563 10.4781 24.3325C10.3185 24.7225 10.159 25.1658 9.99939 25.6622C9.83982 26.1586 9.68912 26.6462 9.54729 27.1249C9.40545 27.6036 9.27248 28.0379 9.14838 28.428C9.042 28.8003 8.96222 29.0751 8.90903 29.2524C8.76719 29.607 8.60763 29.997 8.43033 30.4225C8.27077 30.848 8.06688 31.2115 7.81867 31.5129C7.58819 31.8143 7.30452 32.0093 6.96766 32.098C6.6308 32.2043 6.23189 32.1068 5.77092 31.8054C5.41634 31.5927 5.16812 31.2913 5.02629 30.9012C4.93764 30.653 4.84899 30.4137 4.76035 30.1832C4.6717 29.9527 4.60078 29.7134 4.54759 29.4652L4.01571 27.4706L2.92535 23.1889C2.78352 22.6393 2.64168 22.0809 2.49985 21.5135C2.37574 20.9284 2.22504 20.3256 2.04775 19.7051C1.9591 19.4037 1.87932 19.1112 1.8084 18.8275C1.75521 18.5261 1.69316 18.207 1.62224 17.8701C1.56905 17.5155 1.49814 17.1166 1.40949 16.6734C1.33857 16.2301 1.24992 15.716 1.14355 15.1309C1.10809 14.9359 1.08149 14.7586 1.06376 14.599C1.06376 14.4217 1.08149 14.2445 1.11695 14.0672C1.15241 13.8012 1.27652 13.5707 1.48927 13.3757C1.57792 13.2871 1.68429 13.2161 1.8084 13.163C1.93251 13.1098 2.06548 13.0654 2.20731 13.03C2.42006 12.9591 2.64168 12.9236 2.87216 12.9236C3.08492 12.9236 3.30654 12.9945 3.53702 13.1364C3.69658 13.225 3.82069 13.3403 3.90934 13.4821L4.22846 14.0406C4.26392 14.1647 4.29938 14.2799 4.33484 14.3863C4.3703 14.4749 4.40576 14.5724 4.44122 14.6788C4.47668 14.8029 4.50327 14.9182 4.521 15.0245C4.53873 15.1132 4.55646 15.2018 4.57419 15.2905C4.73375 16.2124 4.92878 17.1078 5.15926 17.9765C5.38974 18.8452 5.60249 19.6785 5.79752 20.4763C5.86844 20.7955 5.95708 21.1944 6.06346 21.6731C6.16984 22.134 6.27621 22.6216 6.38259 23.1358C6.48896 23.6322 6.59534 24.1109 6.70172 24.5718C6.80809 25.0328 6.91447 25.3963 7.02085 25.6622C7.25133 24.8644 7.48181 24.0665 7.71229 23.2687C7.96051 22.4709 8.22645 21.6642 8.51012 20.8487C8.65195 20.4232 8.79379 20.042 8.93562 19.7051C9.09519 19.3505 9.27248 19.058 9.46751 18.8275C9.66253 18.597 9.88415 18.4463 10.1324 18.3754C10.3806 18.3045 10.6731 18.3311 11.01 18.4552C11.3114 18.5793 11.5773 18.8452 11.8078 19.253C12.0383 19.6608 12.2422 20.0774 12.4195 20.5029C12.579 20.893 12.7297 21.3096 12.8716 21.7529C13.0311 22.1784 13.1818 22.6039 13.3237 23.0294C13.4832 23.4372 13.6339 23.8272 13.7758 24.1995C13.9176 24.5718 14.0594 24.891 14.2013 25.1569C14.2544 24.9619 14.3165 24.7137 14.3874 24.4123C14.4583 24.1109 14.5293 23.7917 14.6002 23.4549C14.6888 23.1003 14.7686 22.7546 14.8395 22.4177C14.9104 22.0809 14.9814 21.7706 15.0523 21.4869C15.2828 20.5295 15.5221 19.5721 15.7703 18.6148C16.0185 17.6396 16.2579 16.6822 16.4884 15.7426L16.6213 15.2905C16.6568 15.2018 16.6745 15.1132 16.6745 15.0245C16.6922 14.9182 16.7188 14.8029 16.7543 14.6788C16.7898 14.5724 16.8252 14.4749 16.8607 14.3863C16.8961 14.2799 16.9316 14.1647 16.967 14.0406C17.0025 13.9519 17.038 13.8633 17.0734 13.7746C17.1266 13.6682 17.1887 13.5707 17.2596 13.4821C17.3128 13.3934 17.3748 13.3225 17.4457 13.2693C17.5167 13.2161 17.5876 13.1718 17.6585 13.1364C17.9067 12.9945 18.1195 12.9236 18.2968 12.9236C18.5272 12.9236 18.7489 12.9591 18.9616 13.03C19.2453 13.0832 19.5024 13.1984 19.7328 13.3757C19.9101 13.553 20.0165 13.7835 20.052 14.0672ZM30.7661 26.593C30.7838 26.9476 30.7927 27.3199 30.7927 27.7099C30.7927 28.0823 30.7838 28.428 30.7661 28.7471C30.7483 29.2258 30.7217 29.669 30.6863 30.0768C30.6508 30.4669 30.5799 30.8037 30.4735 31.0874C30.3672 31.3533 30.1987 31.5572 29.9682 31.6991C29.7555 31.8232 29.4541 31.8586 29.064 31.8054C28.6563 31.7522 28.3637 31.5572 28.1864 31.2204C28.0091 30.8835 27.885 30.5023 27.8141 30.0768C27.7609 29.6336 27.7432 29.1903 27.7609 28.7471C27.7787 28.3039 27.7787 27.9582 27.7609 27.7099C27.7432 27.3199 27.7255 26.8767 27.7077 26.3802C27.7077 25.8661 27.6546 25.3874 27.5482 24.9442C27.4595 24.4832 27.3 24.0931 27.0695 23.774C26.839 23.4549 26.4933 23.2865 26.0323 23.2687C25.4472 23.2333 24.9951 23.2776 24.676 23.4017C24.3746 23.5258 24.153 23.712 24.0112 23.9602C23.8693 24.1907 23.7807 24.4743 23.7452 24.8112C23.7275 25.148 23.692 25.5115 23.6388 25.9015L23.6123 26.9387V28.8801C23.6123 29.1992 23.6034 29.5361 23.5857 29.8907C23.5857 30.2275 23.5325 30.5378 23.4261 30.8215C23.3197 31.1051 23.1513 31.3445 22.9208 31.5395C22.7081 31.7345 22.3889 31.832 21.9634 31.832C21.4315 31.832 21.0326 31.6636 20.7667 31.3267C20.5185 30.9722 20.3944 30.5378 20.3944 30.0236V14.732C20.3944 14.6256 20.3944 14.5281 20.3944 14.4395C20.4121 14.3331 20.4298 14.2267 20.4476 14.1203C20.483 14.014 20.5096 13.9165 20.5273 13.8278C20.5451 13.7214 20.5717 13.6239 20.6071 13.5353C20.6603 13.358 20.749 13.225 20.8731 13.1364C20.9617 13.0477 21.0504 12.9768 21.139 12.9236C21.2276 12.8704 21.3252 12.835 21.4315 12.8172C21.5202 12.7995 21.6177 12.7906 21.7241 12.7906C21.8304 12.7729 21.9368 12.764 22.0432 12.764C22.3091 12.764 22.5662 12.8438 22.8144 13.0034C22.9208 13.0743 23.0183 13.1541 23.107 13.2427C23.1956 13.3137 23.2665 13.42 23.3197 13.5619C23.4616 13.8987 23.5325 14.2179 23.5325 14.5193C23.5502 14.6079 23.5591 14.7409 23.5591 14.9182C23.5768 15.0777 23.5857 15.2462 23.5857 15.4235C23.5857 15.6008 23.5857 15.778 23.5857 15.9553C23.6034 16.1149 23.6123 16.239 23.6123 16.3277V16.4606C23.63 17.028 23.6388 17.6042 23.6388 18.1892C23.6388 18.7743 23.6388 19.3683 23.6388 19.9711V20.4232C24.3835 20.1749 25.1636 20.0597 25.9791 20.0774C26.7947 20.0774 27.5216 20.237 28.1598 20.5561C28.8158 20.893 29.3123 21.2742 29.6491 21.6997C30.0037 22.1252 30.2608 22.595 30.4203 23.1092C30.5799 23.6233 30.6686 24.1729 30.6863 24.758C30.7217 25.3431 30.7483 25.9547 30.7661 26.593ZM40.2523 28.1886C40.465 28.1354 40.6778 28.1 40.8905 28.0823C41.121 28.0645 41.3249 28.0911 41.5022 28.162C41.6972 28.233 41.8568 28.3571 41.9809 28.5344C42.105 28.6939 42.1671 28.9244 42.1671 29.2258C42.1671 29.4386 42.1139 29.6424 42.0075 29.8375C41.9011 30.0325 41.7681 30.2098 41.6086 30.3694C41.449 30.5289 41.2717 30.6708 41.0767 30.7949C40.8817 30.9012 40.6955 30.9899 40.5182 31.0608C40.0041 31.2913 39.4101 31.4686 38.7364 31.5927C38.0804 31.7168 37.3978 31.7611 36.6887 31.7257C35.7313 31.6902 34.8093 31.504 33.9229 31.1672C33.0541 30.8126 32.3716 30.2364 31.8751 29.4386C31.4142 28.6585 31.1394 27.7897 31.0507 26.8323C30.9621 25.8749 31.0064 24.9707 31.1837 24.1197C31.3787 23.0914 31.7067 22.2581 32.1677 21.6199C32.6464 20.9639 33.2137 20.4409 33.8697 20.0508C34.6675 19.5899 35.5628 19.3505 36.5557 19.3328C37.5485 19.3151 38.4971 19.5101 39.4013 19.9179C40.0041 20.1838 40.5448 20.5473 41.0235 21.0082C41.5022 21.4515 41.8657 21.9922 42.1139 22.6305C42.1848 22.79 42.238 22.9851 42.2734 23.2155C42.3266 23.446 42.3621 23.6942 42.3798 23.9602C42.3975 24.2084 42.3975 24.4566 42.3798 24.7048C42.3621 24.953 42.3178 25.1746 42.2468 25.3697C42.1405 25.6888 42.0075 25.937 41.8479 26.1143C41.6884 26.2916 41.4845 26.4246 41.2363 26.5132C40.988 26.6019 40.6866 26.6639 40.3321 26.6994C39.9952 26.7171 39.5874 26.7348 39.1087 26.7526C38.6832 26.7703 38.2843 26.7791 37.912 26.7791C37.5397 26.7791 37.1585 26.7791 36.7684 26.7791C36.3784 26.7614 35.9706 26.7526 35.5451 26.7526C35.1373 26.7348 34.6764 26.7171 34.1622 26.6994C34.109 27.054 34.1534 27.3642 34.2952 27.6302C34.4548 27.8784 34.6675 28.0911 34.9334 28.2684C35.1994 28.428 35.5008 28.5521 35.8377 28.6407C36.1745 28.7294 36.5025 28.7826 36.8216 28.8003C37.4244 28.8358 38.0006 28.7914 38.5503 28.6673C39.0999 28.5255 39.6672 28.3659 40.2523 28.1886ZM39.1087 23.0294C38.7719 22.6393 38.4173 22.3557 38.045 22.1784C37.7613 22.0543 37.4599 22.0011 37.1408 22.0188C36.8394 22.0188 36.5468 22.0631 36.2632 22.1518C35.749 22.2759 35.3146 22.5418 34.96 22.9496C34.9246 22.9851 34.8625 23.0737 34.7739 23.2155C34.6852 23.3396 34.5966 23.4726 34.5079 23.6144C34.437 23.7563 34.3838 23.8893 34.3484 24.0134C34.3129 24.1375 34.3306 24.1995 34.4016 24.1995H39.614C39.5963 23.9513 39.552 23.7474 39.481 23.5879C39.4101 23.4106 39.286 23.2244 39.1087 23.0294ZM42.6946 22.4177C42.6946 22.205 42.6946 21.9656 42.6946 21.6997C42.6946 21.416 42.7034 21.1323 42.7212 20.8487C42.7389 20.5473 42.7655 20.2636 42.8009 19.9976C42.8541 19.714 42.9251 19.4658 43.0137 19.253C43.1555 18.9339 43.3772 18.7211 43.6786 18.6148C43.98 18.4906 44.3079 18.4375 44.6625 18.4552C45.0349 18.4552 45.3274 18.5172 45.5401 18.6413C45.7529 18.7655 45.9125 18.9339 46.0188 19.1466C46.1252 19.3417 46.1873 19.5721 46.205 19.8381C46.2405 20.0863 46.2582 20.3522 46.2582 20.6359C46.4177 20.3522 46.6305 20.1218 46.8964 19.9445C47.1801 19.7672 47.4638 19.6253 47.7475 19.519C48.0311 19.4126 48.2882 19.3417 48.5187 19.3062C48.7492 19.253 48.8821 19.2264 48.9176 19.2264C49.3608 19.191 49.7597 19.1821 50.1143 19.1998C50.4866 19.2176 50.8944 19.2973 51.3377 19.4392C51.6213 19.5455 51.9139 19.6962 52.2153 19.8913C52.5167 20.0686 52.7826 20.2813 53.0131 20.5295C53.2436 20.7777 53.3943 21.0525 53.4652 21.3539C53.5538 21.6376 53.5184 21.939 53.3588 22.2581C53.1106 22.7014 52.8358 22.923 52.5344 22.923C52.233 22.9053 51.905 22.8521 51.5504 22.7634C51.3554 22.728 51.1249 22.6482 50.859 22.5241C50.593 22.4 50.3625 22.3202 50.1675 22.2847C49.5647 22.1961 49.0328 22.2404 48.5719 22.4177C48.1109 22.595 47.712 22.8078 47.3751 23.056C46.9851 23.3574 46.6482 23.7031 46.3646 24.0931V27.9227C46.3646 28.4014 46.3557 28.8978 46.338 29.412C46.338 29.9261 46.267 30.3959 46.1252 30.8215C46.0011 31.2292 45.7795 31.5661 45.4604 31.832C45.159 32.0802 44.7157 32.1866 44.1307 32.1512C43.8115 32.1334 43.5279 31.9827 43.2796 31.6991C43.0314 31.3977 42.8807 31.1051 42.8275 30.8215C42.7921 30.5555 42.7655 30.2364 42.7478 29.8641C42.73 29.4917 42.7123 29.1017 42.6946 28.6939C42.6946 28.2861 42.6946 27.8784 42.6946 27.4706C42.6946 27.0451 42.6946 26.655 42.6946 26.3005V22.4177ZM61.4091 28.1886C61.6219 28.1354 61.8346 28.1 62.0474 28.0823C62.2779 28.0645 62.4818 28.0911 62.6591 28.162C62.8541 28.233 63.0137 28.3571 63.1378 28.5344C63.2619 28.6939 63.3239 28.9244 63.3239 29.2258C63.3239 29.4386 63.2707 29.6424 63.1644 29.8375C63.058 30.0325 62.925 30.2098 62.7654 30.3694C62.6059 30.5289 62.4286 30.6708 62.2336 30.7949C62.0385 30.9012 61.8524 30.9899 61.6751 31.0608C61.1609 31.2913 60.567 31.4686 59.8933 31.5927C59.2373 31.7168 58.5547 31.7611 57.8455 31.7257C56.8881 31.6902 55.9662 31.504 55.0797 31.1672C54.211 30.8126 53.5284 30.2364 53.032 29.4386C52.571 28.6585 52.2962 27.7897 52.2076 26.8323C52.1189 25.8749 52.1633 24.9707 52.3405 24.1197C52.5356 23.0914 52.8636 22.2581 53.3245 21.6199C53.8032 20.9639 54.3706 20.4409 55.0266 20.0508C55.8244 19.5899 56.7197 19.3505 57.7126 19.3328C58.7054 19.3151 59.6539 19.5101 60.5581 19.9179C61.1609 20.1838 61.7017 20.5473 62.1804 21.0082C62.6591 21.4515 63.0225 21.9922 63.2707 22.6305C63.3416 22.79 63.3948 22.9851 63.4303 23.2155C63.4835 23.446 63.5189 23.6942 63.5367 23.9602C63.5544 24.2084 63.5544 24.4566 63.5367 24.7048C63.5189 24.953 63.4746 25.1746 63.4037 25.3697C63.2973 25.6888 63.1644 25.937 63.0048 26.1143C62.8452 26.2916 62.6413 26.4246 62.3931 26.5132C62.1449 26.6019 61.8435 26.6639 61.4889 26.6994C61.1521 26.7171 60.7443 26.7348 60.2656 26.7526C59.8401 26.7703 59.4412 26.7791 59.0689 26.7791C58.6965 26.7791 58.3154 26.7791 57.9253 26.7791C57.5353 26.7614 57.1275 26.7526 56.702 26.7526C56.2942 26.7348 55.8332 26.7171 55.3191 26.6994C55.2659 27.054 55.3102 27.3642 55.4521 27.6302C55.6116 27.8784 55.8244 28.0911 56.0903 28.2684C56.3563 28.428 56.6577 28.5521 56.9945 28.6407C57.3314 28.7294 57.6594 28.7826 57.9785 28.8003C58.5813 28.8358 59.1575 28.7914 59.7071 28.6673C60.2567 28.5255 60.8241 28.3659 61.4091 28.1886ZM60.2656 23.0294C59.9287 22.6393 59.5741 22.3557 59.2018 22.1784C58.9182 22.0543 58.6168 22.0011 58.2976 22.0188C57.9962 22.0188 57.7037 22.0631 57.42 22.1518C56.9059 22.2759 56.4715 22.5418 56.1169 22.9496C56.0815 22.9851 56.0194 23.0737 55.9308 23.2155C55.8421 23.3396 55.7535 23.4726 55.6648 23.6144C55.5939 23.7563 55.5407 23.8893 55.5052 24.0134C55.4698 24.1375 55.4875 24.1995 55.5584 24.1995H60.7709C60.7532 23.9513 60.7088 23.7474 60.6379 23.5879C60.567 23.4106 60.4429 23.2244 60.2656 23.0294ZM72.2223 21.7529C72.2223 22.2493 72.2223 22.8078 72.2223 23.4283C72.2401 24.0488 72.2489 24.6959 72.2489 25.3697C72.2489 26.0256 72.2489 26.6816 72.2489 27.3376C72.2489 27.9759 72.2401 28.5698 72.2223 29.1194C72.2046 29.3854 72.178 29.6779 72.1426 29.997C72.1071 30.2984 72.0362 30.5821 71.9298 30.848C71.8234 31.114 71.655 31.3356 71.4245 31.5129C71.2118 31.6725 70.9192 31.7434 70.5469 31.7257C69.9973 31.6902 69.5984 31.4508 69.3502 31.0076C69.1197 30.5644 68.9867 29.9438 68.9513 29.146C68.9513 28.7382 68.9424 28.2684 68.9247 27.7365C68.9247 27.2047 68.9158 26.6639 68.8981 26.1143C68.8981 25.5647 68.8981 25.0328 68.8981 24.5186C68.8981 23.9868 68.8981 23.5081 68.8981 23.0826C68.8981 22.8344 68.8892 22.533 68.8715 22.1784C68.8715 21.8238 68.8804 21.4603 68.8981 21.088C68.9158 20.7157 68.9601 20.3611 69.0311 20.0242C69.102 19.6697 69.2172 19.3771 69.3768 19.1466C69.5009 19.0048 69.6782 18.8984 69.9087 18.8275C70.1391 18.7389 70.3785 18.6945 70.6267 18.6945C70.8926 18.6945 71.1409 18.7389 71.3713 18.8275C71.6195 18.9162 71.7968 19.0403 71.9032 19.1998C71.9741 19.3062 72.0273 19.4569 72.0628 19.6519C72.0982 19.8469 72.1248 20.0686 72.1426 20.3168C72.178 20.5473 72.1958 20.7955 72.1958 21.0614C72.2135 21.3096 72.2223 21.5401 72.2223 21.7529ZM71.2118 16.3808C70.6622 16.5227 70.2012 16.4695 69.8289 16.2213C69.4743 15.9553 69.2527 15.5653 69.164 15.0511C69.0931 14.6788 69.1197 14.3508 69.2438 14.0672C69.3679 13.7835 69.5541 13.5707 69.8023 13.4289C70.0505 13.2693 70.3342 13.1984 70.6533 13.2161C70.9724 13.2339 71.2916 13.358 71.6107 13.5885C71.9121 13.8012 72.1248 14.0494 72.2489 14.3331C72.3908 14.6168 72.4351 14.8916 72.3819 15.1575C72.3465 15.4235 72.2312 15.6717 72.0362 15.9022C71.8412 16.1149 71.5664 16.2745 71.2118 16.3808ZM79.0535 27.1515C78.7166 26.9387 78.3355 26.7703 77.91 26.6462C77.5022 26.5221 77.0767 26.4068 76.6334 26.3005C76.2079 26.1941 75.7913 26.0788 75.3835 25.9547C74.9757 25.8129 74.6034 25.6179 74.2666 25.3697C73.5397 24.82 73.1141 24.1463 72.99 23.3485C72.8837 22.533 73.061 21.7174 73.5219 20.9018C73.7701 20.4763 74.0981 20.1306 74.5059 19.8647C74.9137 19.581 75.3569 19.3683 75.8356 19.2264C76.332 19.0669 76.8373 18.9782 77.3515 18.9605C77.8656 18.9427 78.3532 18.9693 78.8142 19.0403C79.1156 19.0934 79.4347 19.1732 79.7715 19.2796C80.1084 19.3683 80.4187 19.4924 80.7023 19.6519C81.0037 19.8115 81.2697 20.0154 81.5002 20.2636C81.7484 20.4941 81.9257 20.7866 82.032 21.1412C82.103 21.3717 82.1118 21.5933 82.0586 21.806C82.0232 22.0188 81.9345 22.1961 81.7927 22.3379C81.6686 22.4798 81.5002 22.5861 81.2874 22.6571C81.0924 22.728 80.8796 22.7457 80.6491 22.7102C80.3832 22.6571 80.135 22.5773 79.9045 22.4709C79.674 22.3645 79.4435 22.2493 79.2131 22.1252C78.9826 22.0011 78.7432 21.8947 78.495 21.806C78.2645 21.7174 78.0163 21.6731 77.7504 21.6731C77.3426 21.6553 77.0058 21.7263 76.7398 21.8858C76.4739 22.0454 76.2877 22.2404 76.1813 22.4709C76.0927 22.7014 76.1016 22.9496 76.2079 23.2155C76.332 23.4815 76.5802 23.712 76.9526 23.907C77.2894 24.0843 77.6617 24.2261 78.0695 24.3325C78.4773 24.4389 78.8762 24.5452 79.2663 24.6516C79.674 24.758 80.0641 24.8821 80.4364 25.0239C80.8264 25.1658 81.1722 25.3608 81.4736 25.609C82.0586 26.0877 82.4132 26.6462 82.5373 27.2844C82.6792 27.9227 82.6437 28.5521 82.431 29.1726C82.2182 29.7931 81.8459 30.3428 81.314 30.8215C80.7998 31.3001 80.1882 31.6193 79.479 31.7788C78.9649 31.8852 78.4064 31.9384 77.8036 31.9384C77.2185 31.9384 76.6334 31.8764 76.0484 31.7522C75.481 31.6281 74.9314 31.4331 74.3995 31.1672C73.8854 30.9012 73.451 30.5644 73.0964 30.1566C72.8482 29.8729 72.7152 29.5538 72.6975 29.1992C72.6975 28.8269 72.7684 28.5078 72.9103 28.2418C73.0698 27.9582 73.2914 27.7631 73.5751 27.6568C73.8588 27.5504 74.1779 27.6124 74.5325 27.8429C74.8162 28.0379 75.153 28.233 75.5431 28.428C75.9331 28.6053 76.3232 28.7471 76.7132 28.8535C77.1033 28.9599 77.4756 29.0131 77.8302 29.0131C78.2025 29.0131 78.5216 28.9333 78.7876 28.7737C79.1776 28.5255 79.3815 28.2418 79.3992 27.9227C79.417 27.5858 79.3017 27.3288 79.0535 27.1515ZM15.4778 44.6356C15.5132 45.2029 15.531 45.7437 15.531 46.2578C15.531 46.7543 15.5132 47.2861 15.4778 47.8535C15.4778 48.0662 15.4778 48.3056 15.4778 48.5715C15.4778 48.8375 15.46 49.0945 15.4246 49.3428C15.3891 49.591 15.3271 49.8215 15.2384 50.0342C15.1498 50.247 15.0168 50.4154 14.8395 50.5395C14.6268 50.6813 14.3874 50.7788 14.1215 50.832C13.8555 50.8675 13.6073 50.8498 13.3768 50.7788C13.1464 50.7079 12.9425 50.575 12.7652 50.3799C12.6056 50.1849 12.517 49.9101 12.4992 49.5555C12.446 48.74 12.4195 47.9244 12.4195 47.1089C12.4195 46.7011 12.4106 46.311 12.3929 45.9387C12.3929 45.5664 12.4017 45.0434 12.4195 44.3697C12.4195 44.0328 12.3929 43.6516 12.3397 43.2261C12.2865 42.7829 12.1535 42.4726 11.9408 42.2953C11.7812 42.1535 11.6039 42.0737 11.4089 42.056C11.2139 42.0205 11.0188 42.0382 10.8238 42.1092C10.6465 42.1801 10.4869 42.313 10.3451 42.5081C10.2033 42.6854 10.1058 42.9158 10.0526 43.1995C10.0526 43.43 10.0437 43.6693 10.026 43.9176C10.026 44.148 10.0348 44.3697 10.0526 44.5824C10.0703 45.1498 10.0792 45.6905 10.0792 46.2047C10.0792 46.7011 10.0703 47.233 10.0526 47.8003C10.0348 48.0308 10.026 48.279 10.026 48.5449C10.0437 48.8109 10.0437 49.0768 10.026 49.3428C10.0083 49.591 9.95506 49.8215 9.86642 50.0342C9.7955 50.247 9.66253 50.4154 9.46751 50.5395C9.25475 50.6813 9.02427 50.77 8.77606 50.8054C8.54558 50.8232 8.32396 50.7877 8.11121 50.6991C7.91618 50.5927 7.73889 50.4331 7.57932 50.2204C7.43749 50.0076 7.35771 49.7239 7.33998 49.3694C7.30452 48.9616 7.27792 48.5893 7.26019 48.2524C7.26019 47.8978 7.26019 47.5255 7.26019 47.1354C7.26019 46.7277 7.26906 46.311 7.28679 45.8855C7.30452 45.4423 7.29565 45.0168 7.26019 44.609C7.26019 44.4849 7.25133 44.3431 7.2336 44.1835C7.2336 44.0062 7.22474 43.8289 7.20701 43.6516C7.20701 43.4743 7.18928 43.3059 7.15382 43.1463C7.13609 42.969 7.10063 42.8272 7.04744 42.7208C6.90561 42.4726 6.64853 42.313 6.27621 42.2421C5.92162 42.1712 5.62022 42.1978 5.37201 42.3219C5.1238 42.446 4.93764 42.6056 4.81354 42.8006C4.68943 42.9956 4.60078 43.2084 4.54759 43.4389C4.49441 43.6693 4.46781 43.9176 4.46781 44.1835C4.46781 44.4317 4.46781 44.6711 4.46781 44.9015C4.46781 46.054 4.46781 47.0557 4.46781 47.9067C4.48554 48.74 4.39689 49.4137 4.20187 49.9278C4.11322 50.1938 3.92706 50.3977 3.64339 50.5395C3.37745 50.6813 3.08492 50.7522 2.76579 50.7522C2.46439 50.7522 2.18072 50.6813 1.91478 50.5395C1.64884 50.3977 1.47154 50.176 1.38289 49.8746C1.32971 49.6796 1.27652 49.4048 1.22333 49.0502C1.18787 48.6779 1.16128 48.2701 1.14355 47.8269C1.12582 47.3837 1.11695 46.9404 1.11695 46.4972C1.11695 46.0362 1.11695 45.6196 1.11695 45.2473V41.4177C1.09922 41.0099 1.09036 40.5667 1.09036 40.088C1.09036 39.6093 1.16128 39.1749 1.30311 38.7849C1.42722 38.448 1.62224 38.2353 1.88818 38.1466C2.15412 38.0403 2.42893 37.9959 2.7126 38.0137C3.03173 38.0137 3.27994 38.1023 3.45724 38.2796C3.65226 38.4392 3.79409 38.6431 3.88274 38.8913C3.97139 39.1218 4.02458 39.3877 4.04231 39.6891C4.06004 39.9728 4.07776 40.2476 4.09549 40.5135C4.29052 40.0703 4.521 39.7068 4.78694 39.4232C5.07061 39.1218 5.46952 38.9267 5.98368 38.8381C7.29565 38.5899 8.34169 38.9267 9.12178 39.8487C9.47637 39.4941 9.92847 39.2015 10.4781 38.9711C10.9036 38.8115 11.338 38.7406 11.7812 38.7583C12.2244 38.7583 12.6411 38.8381 13.0311 38.9976C13.4389 39.1572 13.8023 39.3877 14.1215 39.6891C14.4583 39.9905 14.7243 40.3539 14.9193 40.7795C15.1852 41.3468 15.3359 41.9762 15.3714 42.6676C15.4069 43.3591 15.4423 44.0151 15.4778 44.6356ZM29.3464 38.9711C29.506 39.2193 29.5769 39.4852 29.5592 39.7689C29.5592 40.1767 29.4882 40.5312 29.3464 40.8326C29.3109 40.9213 29.2578 41.0365 29.1868 41.1784C29.1336 41.3202 29.0716 41.4709 29.0007 41.6305C28.9475 41.79 28.8854 41.9407 28.8145 42.0826C28.7436 42.2244 28.6904 42.3308 28.655 42.4017L28.6018 42.5347C28.3536 43.0843 28.1142 43.6162 27.8837 44.1303C27.6532 44.6445 27.3962 45.1941 27.1125 45.7791C26.8288 46.3465 26.554 46.905 26.2881 47.4546C26.0399 47.9865 25.7917 48.5095 25.5434 49.0236C25.4725 49.1655 25.4105 49.3073 25.3573 49.4491C25.3041 49.5732 25.2332 49.7062 25.1445 49.848L23.868 52.5872C23.6375 53.0482 23.4159 53.5003 23.2032 53.9435C23.0081 54.3868 22.7865 54.83 22.5383 55.2732C22.4851 55.3619 22.4319 55.4417 22.3787 55.5126C22.3433 55.6012 22.3078 55.6899 22.2724 55.7785C22.1483 55.9913 21.9621 56.1952 21.7139 56.3902C21.4834 56.603 21.2352 56.7182 20.9693 56.7359C20.4906 56.7714 20.0739 56.6295 19.7193 56.3104C19.5066 56.1863 19.3381 56.009 19.214 55.7785C19.1431 55.619 19.1077 55.4151 19.1077 55.1669C19.1254 55.0605 19.1343 54.9541 19.1343 54.8477C19.152 54.7591 19.1697 54.6704 19.1874 54.5818C19.2229 54.4932 19.2495 54.4045 19.2672 54.3159C19.285 54.2272 19.3116 54.1563 19.347 54.1031C19.4002 53.9613 19.4445 53.8904 19.48 53.8904L21.4214 49.6885C21.3327 49.4935 21.2441 49.2984 21.1554 49.1034C21.0668 48.8907 20.987 48.7045 20.9161 48.5449C20.6856 47.9953 20.4374 47.4191 20.1714 46.8163C19.9232 46.1958 19.6661 45.5841 19.4002 44.9813C19.1343 44.3608 18.8595 43.758 18.5758 43.1729C18.2921 42.5879 18.0084 42.0294 17.7248 41.4975C17.6184 41.3202 17.5209 41.134 17.4322 40.939C17.3436 40.7263 17.2727 40.5224 17.2195 40.3274C17.1663 40.1146 17.1486 39.9018 17.1663 39.6891C17.184 39.4763 17.2638 39.2636 17.4056 39.0508C17.5475 38.7849 17.7336 38.5987 17.9641 38.4924C18.1946 38.3683 18.4339 38.3151 18.6822 38.3328C18.9481 38.3328 19.1963 38.386 19.4268 38.4924C19.6573 38.5987 19.8434 38.7406 19.9853 38.9179C20.2867 39.237 20.526 39.5916 20.7033 39.9816C20.8806 40.3717 21.049 40.7706 21.2086 41.1784C21.5455 41.8875 21.8912 42.6322 22.2458 43.4123C22.6004 44.1924 22.9549 44.9547 23.3095 45.6994L24.6924 42.774C24.8343 42.4903 24.9584 42.2155 25.0647 41.9496C25.1889 41.6837 25.313 41.4266 25.4371 41.1784C25.5789 40.877 25.7119 40.5667 25.836 40.2476C25.9778 39.9284 26.1374 39.6359 26.3147 39.37C26.3501 39.299 26.3856 39.237 26.421 39.1838C26.4565 39.1306 26.492 39.0686 26.5274 38.9976C26.687 38.7849 26.8288 38.6165 26.9529 38.4924C27.0416 38.4214 27.1125 38.3683 27.1657 38.3328C27.2366 38.2796 27.3164 38.2441 27.405 38.2264C27.5291 38.191 27.6444 38.1732 27.7508 38.1732C27.8749 38.1555 27.9901 38.1555 28.0965 38.1732C28.2738 38.2264 28.4865 38.3062 28.7347 38.4126C29.0007 38.519 29.2046 38.7051 29.3464 38.9711Z" fill="#DDB948"/>
<path d="M51.8152 49.6097C52.6171 50.1351 53.2947 50.7573 53.8477 51.4763C54.4285 52.1676 54.8848 53.0249 55.2166 54.0481C55.5761 55.1819 55.7559 56.3295 55.7559 57.491C55.7835 58.6248 55.5761 59.6895 55.1336 60.685C54.7188 61.6529 54.0413 62.5101 53.1011 63.2568C52.1885 63.9758 50.9856 64.4874 49.4923 64.7916C48.6903 64.9852 47.7501 65.1372 46.6716 65.2479C45.5931 65.3585 44.6252 65.4138 43.7679 65.4138C42.6894 65.4414 41.5695 65.4414 40.408 65.4138C39.2742 65.4138 38.1681 65.3032 37.0896 65.0819C36.6194 64.9437 36.2738 64.7086 36.0525 64.3768C35.859 64.0173 35.7207 63.6163 35.6377 63.1738C35.5271 62.9249 35.4718 62.6761 35.4718 62.4272V38.8662C35.4718 38.0919 35.6239 37.4973 35.9281 37.0825C36.2599 36.64 36.6886 36.322 37.214 36.1285C37.7394 35.9072 38.334 35.7828 38.9977 35.7551C39.6614 35.6998 40.3527 35.6722 41.0717 35.6722C41.6248 35.6722 42.1779 35.6722 42.7309 35.6722C43.3117 35.6445 43.8924 35.6445 44.4731 35.6722C45.3857 35.6998 46.3259 35.7828 47.2938 35.921C48.2893 36.0317 49.2296 36.2529 50.1145 36.5847C50.5293 36.723 50.9717 36.9166 51.4419 37.1655C51.912 37.3867 52.2853 37.6632 52.5618 37.9951C53.4468 38.797 54.0966 39.7373 54.5114 40.8158C54.9539 41.8666 55.1475 42.9451 55.0922 44.0513C55.0369 45.1298 54.7327 46.1668 54.1796 47.1623C53.6542 48.1578 52.866 48.9736 51.8152 49.6097ZM44.5561 60.602C45.4133 60.5467 46.2844 60.4499 47.1694 60.3117C48.0543 60.1734 48.6627 59.9107 48.9945 59.5235C49.354 59.0811 49.6029 58.5695 49.7412 57.9887C49.9071 57.3804 49.9486 56.772 49.8656 56.1636C49.8103 55.5276 49.6305 54.933 49.3264 54.3799C49.0498 53.7992 48.6765 53.3429 48.2064 53.0111C47.5703 52.5133 46.8375 52.1953 46.0079 52.057C45.1783 51.8911 44.3625 51.8081 43.5605 51.8081C43.1734 51.8081 42.8139 51.822 42.482 51.8496C42.1779 51.8496 41.9013 51.8911 41.6524 51.9741C41.4312 52.0294 41.2653 52.1538 41.1547 52.3474C41.044 52.541 40.9887 52.8313 40.9887 53.2185C41.044 53.9375 41.044 54.6565 40.9887 55.3755C40.9334 56.0945 40.9058 56.7858 40.9058 57.4495C40.9058 57.8367 40.892 58.2653 40.8643 58.7354C40.8643 59.1779 41.0164 59.5512 41.3206 59.8554C41.6248 60.1596 42.0672 60.367 42.648 60.4776C43.2287 60.5882 43.8647 60.6297 44.5561 60.602ZM45.3857 40.6913C44.5284 40.6637 43.8094 40.6498 43.2287 40.6498C42.6756 40.6222 42.2332 40.6637 41.9013 40.7743C41.5971 40.8572 41.3759 41.0646 41.2376 41.3965C41.127 41.7007 41.0855 42.1708 41.1132 42.8068C41.1132 43.3323 41.0994 43.8577 41.0717 44.3831C41.0717 44.8809 41.0717 45.3786 41.0717 45.8764C41.0717 46.4295 41.2515 46.8443 41.611 47.1208C41.9705 47.3697 42.4129 47.5218 42.9383 47.5771C43.4914 47.6324 44.0583 47.6324 44.639 47.5771C45.2474 47.5218 45.7728 47.4527 46.2153 47.3697C47.2108 47.2038 47.9713 46.8719 48.4967 46.3742C49.0498 45.8487 49.3678 45.0883 49.4508 44.0927C49.5614 42.8483 49.2296 41.991 48.4553 41.5209C47.7086 41.0232 46.6854 40.7466 45.3857 40.6913ZM81.2101 37.8292C81.376 39.1565 81.4728 40.7052 81.5004 42.475C81.5281 44.2172 81.5004 45.987 81.4175 47.7845C81.3621 49.5544 81.2377 51.2412 81.0441 52.8452C80.8506 54.4214 80.6155 55.6935 80.339 56.6614C80.1454 57.2421 79.9103 57.8505 79.6338 58.4865C79.3849 59.0949 79.1084 59.648 78.8042 60.1457C78.3617 60.8924 77.8225 61.5561 77.1864 62.1368C76.5504 62.6899 75.8452 63.1738 75.0709 63.5886C74.3243 63.9758 73.5223 64.28 72.665 64.5012C71.8354 64.7224 71.0058 64.8469 70.1762 64.8745C68.7106 64.9298 67.314 64.7224 65.9867 64.2523C64.6869 63.7546 63.484 62.9803 62.3778 61.9294C61.5482 61.1275 60.8845 60.2702 60.3868 59.3576C59.889 58.445 59.5019 57.491 59.2253 56.4954C58.9488 55.4723 58.769 54.4214 58.6861 53.3429C58.6308 52.2644 58.6031 51.1583 58.6031 50.0245C58.6031 49.499 58.5893 48.8492 58.5616 48.0749C58.5616 47.2729 58.5616 46.4571 58.5616 45.6275C58.5616 44.7703 58.5616 43.9406 58.5616 43.1387C58.5616 42.3367 58.5755 41.6592 58.6031 41.1061C58.6031 40.7466 58.6031 40.3595 58.6031 39.9447C58.6031 39.5022 58.6169 39.0736 58.6446 38.6588C58.6999 38.2163 58.7829 37.8015 58.8935 37.4144C59.0041 36.9995 59.17 36.6262 59.3912 36.2944C59.6401 35.9349 59.9858 35.6722 60.4283 35.5062C60.8707 35.3403 61.327 35.2574 61.7971 35.2574C62.2949 35.2574 62.765 35.3541 63.2075 35.5477C63.6499 35.7413 64.0094 36.0178 64.286 36.3773C64.4242 36.5986 64.521 36.8198 64.5763 37.041C64.6316 37.2623 64.6731 37.5111 64.7008 37.7877C64.7561 38.7003 64.7837 39.7373 64.7837 40.8987C64.8114 42.0602 64.8114 43.194 64.7837 44.3001C64.7837 45.3786 64.7699 46.3742 64.7422 47.2867C64.7146 48.1993 64.7008 48.8768 64.7008 49.3193C64.7008 50.9785 64.7837 52.4857 64.9496 53.8407C65.1156 55.1681 65.5027 56.2742 66.1111 57.1591C66.6642 57.9611 67.314 58.4727 68.0607 58.6939C68.8073 58.9151 69.554 58.9843 70.3006 58.9013C70.992 58.8184 71.6833 58.5695 72.3747 58.1547C73.0937 57.7122 73.6606 57.0762 74.0754 56.2466C74.2413 55.9424 74.3796 55.5967 74.4902 55.2095C74.6008 54.8224 74.6838 54.4629 74.7391 54.131C74.8497 53.0802 74.9465 51.8634 75.0294 50.4808C75.1124 49.0704 75.1815 47.6324 75.2368 46.1668C75.2921 44.7011 75.3198 43.2631 75.3198 41.8528C75.3198 40.4424 75.306 39.1704 75.2783 38.0366C75.3336 37.5388 75.4857 37.0825 75.7346 36.6677C75.9558 36.3082 76.2739 35.9902 76.6887 35.7136C77.1035 35.4371 77.6704 35.2988 78.3894 35.2988C78.9701 35.3265 79.4402 35.4786 79.7997 35.7551C80.1592 36.004 80.4496 36.2805 80.6708 36.5847C80.9197 36.9442 81.0994 37.359 81.2101 37.8292ZM106.339 52.8452C106.477 53.2323 106.574 53.6748 106.629 54.1725C106.712 54.6426 106.753 55.1266 106.753 55.6244C106.753 56.1221 106.712 56.6199 106.629 57.1177C106.574 57.5878 106.491 58.0026 106.38 58.3621C105.938 59.9107 105.053 61.2104 103.725 62.2613C102.398 63.2844 100.877 64.0311 99.1624 64.5012C97.4755 64.9713 95.7195 65.1372 93.8944 64.999C92.0969 64.8607 90.493 64.4044 89.0826 63.6301C88.1977 63.1323 87.4372 62.524 86.8012 61.805C86.1652 61.086 85.6259 60.284 85.1834 59.3991C85.0175 59.0949 84.9069 58.7492 84.8516 58.3621C84.8239 57.9473 84.8654 57.5601 84.976 57.2006C85.0867 56.8135 85.2664 56.4816 85.5153 56.2051C85.7642 55.9009 86.1098 55.6935 86.5523 55.5829C86.8288 55.5276 87.133 55.4999 87.4649 55.4999C87.8244 55.4999 88.1701 55.5552 88.5019 55.6658C88.8337 55.7488 89.1379 55.9009 89.4145 56.1221C89.691 56.3157 89.9122 56.5922 90.0782 56.9517C90.3824 57.5325 90.811 58.0717 91.3641 58.5695C91.9448 59.0396 92.5532 59.4267 93.1892 59.7309C94.1018 60.0351 95.0144 60.1596 95.9269 60.1043C96.8672 60.049 97.7106 59.8416 98.4573 59.4821C99.2316 59.1226 99.8538 58.6386 100.324 58.0302C100.794 57.3942 101.029 56.6752 101.029 55.8732C101.029 55.2095 100.932 54.6703 100.739 54.2555C100.545 53.813 100.269 53.4535 99.9091 53.177C99.5772 52.8728 99.1624 52.6239 98.6647 52.4303C98.1945 52.2368 97.6691 52.0708 97.0884 51.9326C96.4247 51.7943 95.7472 51.6975 95.0558 51.6422C94.3921 51.5869 93.7146 51.5178 93.0233 51.4348C92.3319 51.3518 91.6544 51.2412 90.9907 51.103C90.327 50.9647 89.6772 50.7573 89.0411 50.4808C87.7691 49.9553 86.8012 49.1534 86.1375 48.0749C85.4738 46.9964 85.0728 45.8349 84.9346 44.5905C84.8239 43.3461 84.976 42.1155 85.3908 40.8987C85.8057 39.6543 86.4693 38.5896 87.3819 37.7047C88.2668 36.9028 89.3177 36.3359 90.5344 36.004C91.7789 35.6445 93.1477 35.4371 94.641 35.3818C95.4706 35.3541 96.3003 35.3818 97.1299 35.4648C97.9871 35.5477 98.8029 35.686 99.5772 35.8796C100.379 36.0731 101.112 36.322 101.776 36.6262C102.467 36.9304 103.062 37.2899 103.559 37.7047C103.919 37.9813 104.278 38.3546 104.638 38.8247C104.997 39.2672 105.274 39.7511 105.467 40.2765C105.661 40.7743 105.716 41.2582 105.633 41.7283C105.578 42.1985 105.288 42.5994 104.762 42.9313C104.32 43.2078 103.891 43.3323 103.476 43.3046C103.089 43.2493 102.716 43.1249 102.356 42.9313C101.997 42.71 101.651 42.4612 101.319 42.1846C100.988 41.9081 100.683 41.6592 100.407 41.438C99.6602 40.8849 98.7338 40.5116 97.6276 40.318C96.5215 40.1244 95.4845 40.0829 94.5166 40.1936C93.9082 40.2765 93.3413 40.4148 92.8159 40.6084C92.2905 40.8019 91.8342 41.0646 91.447 41.3965C91.0875 41.7283 90.7972 42.1431 90.5759 42.6409C90.3824 43.111 90.3132 43.6503 90.3685 44.2587C90.3962 44.7011 90.5206 45.0744 90.7419 45.3786C90.9907 45.6828 91.2811 45.9317 91.6129 46.1253C91.9724 46.3189 92.3596 46.471 92.7744 46.5816C93.1892 46.6922 93.604 46.7751 94.0188 46.8305C95.2632 46.9964 96.5077 47.1208 97.7521 47.2038C98.9965 47.2867 100.213 47.5633 101.402 48.0334C102.619 48.5035 103.656 49.1395 104.513 49.9415C105.371 50.7435 105.979 51.7113 106.339 52.8452Z" fill="#DDB948"/>
<path d="M81.4488 16.5847C81.0024 16.122 80.5889 15.6212 80.2083 15.0821C79.8476 14.529 79.5739 13.9295 79.387 13.2835C79.1274 12.4497 79.0638 11.597 79.1964 10.7255C79.329 9.85403 79.6089 9.043 80.0363 8.29244C80.4896 7.49372 81.0233 6.78776 81.6374 6.17459C82.2575 5.52734 82.9351 5.004 83.6702 4.60456C84.4254 4.19102 85.221 3.89845 86.0572 3.72685C86.8993 3.52118 87.786 3.46349 88.7174 3.55378C89.7169 3.65581 90.6202 3.96044 91.4271 4.4677C92.2399 4.94089 92.9242 5.54976 93.4798 6.2943C94.0554 7.02474 94.5013 7.84681 94.8174 8.76051C95.1393 9.64016 95.3162 10.5474 95.3481 11.4823C95.3481 11.4823 95.3522 11.5093 95.3604 11.5633C95.3453 12.2622 95.252 12.9563 95.0806 13.6458C94.8952 14.3153 94.7608 14.9935 94.6775 15.6806C94.5625 16.4499 94.6343 17.1024 94.8927 17.6379C95.1371 18.1534 95.4238 18.7289 95.7527 19.3642C96.0876 19.9655 96.2832 20.5604 96.3397 21.1488C96.402 21.7031 96.1167 22.1888 95.4837 22.6059C95.0504 22.882 94.6393 22.9777 94.2505 22.8932C93.8676 22.7747 93.5064 22.5809 93.167 22.312C92.8334 22.0091 92.5426 21.6609 92.2948 21.2675C92.0328 20.8541 91.816 20.4836 91.6445 20.1559C91.2709 19.3726 91.0253 18.5587 90.9077 17.7143C90.776 16.8499 90.7424 15.976 90.8069 15.0928C90.855 14.6101 90.9242 14.1573 91.0146 13.7345C91.0908 13.2917 91.1401 12.853 91.1623 12.4184C91.1846 11.9839 91.1628 11.5505 91.097 11.1183C91.0311 10.6861 90.8801 10.2392 90.644 9.77769C90.436 9.35608 90.1382 8.99791 89.7506 8.70317C89.3489 8.38847 88.9225 8.16597 88.4715 8.03567C88.0064 7.88541 87.5336 7.83028 87.0533 7.87029C86.5588 7.89033 86.1049 8.03134 85.6915 8.29332C85.3181 8.5271 84.974 8.84485 84.6593 9.24658C84.3305 9.62834 84.081 10.0588 83.9107 10.538C83.7264 10.9973 83.6372 11.4642 83.6432 11.9387C83.6691 12.3991 83.833 12.8219 84.1349 13.207C84.324 13.4325 84.5402 13.6539 84.7833 13.8711C85.0323 14.0543 85.2514 14.2586 85.4405 14.4841C85.6355 14.6755 85.7806 14.9022 85.8758 15.1641C85.9909 15.4119 86.0092 15.7131 85.9306 16.0678C85.8109 16.6609 85.5713 17.0844 85.212 17.3381C84.8385 17.5719 84.4245 17.6847 83.97 17.6766C83.5155 17.6684 83.0586 17.5722 82.5993 17.3879C82.1459 17.1695 81.7624 16.9018 81.4488 16.5847ZM100.625 25.4379C101.034 26.0169 101.181 26.691 101.066 27.4603C100.957 28.1956 100.622 28.7606 100.063 29.1553C99.5244 29.5359 98.8902 29.6546 98.1609 29.5115C97.4033 29.3284 96.8271 28.9573 96.4324 28.3983C95.9954 27.7794 95.8385 27.1123 95.9617 26.3971C96.0567 25.6418 96.3738 25.0739 96.9128 24.6933C97.4718 24.2986 98.123 24.1828 98.8665 24.3459C99.6158 24.475 100.202 24.839 100.625 25.4379Z" fill="#DDB948"/>
</svg>
