<svg width="20" height="21" viewBox="0 0 20 21" fill="none" xmlns="http://www.w3.org/2000/svg">
<path fill-rule="evenodd" clip-rule="evenodd" d="M16.5629 18.4997H3.4381C2.73211 18.4997 2.21012 17.8027 2.47711 17.1617C3.71309 14.1977 6.61704 12.4998 9.99998 12.4998C13.3839 12.4998 16.2879 14.1977 17.5239 17.1617C17.7908 17.8027 17.2689 18.4997 16.5629 18.4997ZM5.91705 6.49988C5.91705 4.29392 7.74902 2.49995 9.99998 2.49995C12.2519 2.49995 14.0829 4.29392 14.0829 6.49988C14.0829 8.70584 12.2519 10.4998 9.99998 10.4998C7.74902 10.4998 5.91705 8.70584 5.91705 6.49988ZM19.9558 18.1357C19.2138 14.7767 16.8919 12.2978 13.8369 11.1728C15.4559 9.89579 16.3999 7.8308 16.0529 5.56984C15.6509 2.94689 13.4229 0.847971 10.735 0.541976C7.02304 0.118984 3.87509 2.94894 3.87509 6.49988C3.87509 8.38985 4.76908 10.0738 6.16405 11.1728C3.10711 12.2978 0.787143 14.7767 0.0441561 18.1357C-0.225839 19.3566 0.779145 20.4996 2.05412 20.4996H17.9458C19.2218 20.4996 20.2258 19.3566 19.9558 18.1357Z" fill="black"/>
</svg>
