<svg width="12" height="10" viewBox="0 0 12 10" fill="none" xmlns="http://www.w3.org/2000/svg">
<path d="M11.9972 3.75595C12.0242 2.97571 11.8536 2.2013 11.5012 1.50464C11.2621 1.21879 10.9303 1.02588 10.5636 0.959533C9.04684 0.821906 7.5238 0.765497 6.00102 0.790548C4.48379 0.76436 2.96623 0.818949 1.4548 0.954082C1.15598 1.00844 0.879445 1.1486 0.658938 1.35746C0.168339 1.80991 0.113828 2.58396 0.0593167 3.23809C-0.0197722 4.41421 -0.0197722 5.5943 0.0593167 6.77041C0.0750868 7.13858 0.129905 7.50404 0.22285 7.86063C0.288577 8.13595 0.421555 8.39067 0.609878 8.60198C0.831884 8.82191 1.11486 8.97005 1.42209 9.02717C2.59731 9.17223 3.78145 9.23235 4.96531 9.20705C6.8732 9.23431 8.54669 9.20706 10.5254 9.05442C10.8402 9.00081 11.1312 8.85248 11.3595 8.62924C11.5121 8.47656 11.6261 8.28969 11.692 8.08413C11.8869 7.48593 11.9827 6.85987 11.9754 6.23075C11.9972 5.92549 11.9972 4.08302 11.9972 3.75595ZM4.76907 6.55782V3.18358L7.99613 4.87888C7.09124 5.38038 5.89745 5.94729 4.76907 6.55782Z" fill="white"/>
</svg>
